G75*
%MOIN*%
%OFA0B0*%
%FSLAX25Y25*%
%IPPOS*%
%LPD*%
%AMOC8*
5,1,8,0,0,1.08239X$1,22.5*
%
%ADD10C,0.00000*%
%ADD11R,0.12500X0.12500*%
%ADD12C,0.07874*%
%ADD13R,0.03937X0.09843*%
%ADD14R,0.09843X0.23622*%
D10*
X0017181Y0006628D02*
X0017181Y0251628D01*
X0323181Y0251628D01*
X0323181Y0006628D01*
X0017181Y0006628D01*
D11*
X0054435Y0024872D03*
X0116435Y0024872D03*
D12*
X0081498Y0024872D02*
X0081500Y0024997D01*
X0081506Y0025122D01*
X0081516Y0025246D01*
X0081530Y0025370D01*
X0081547Y0025494D01*
X0081569Y0025617D01*
X0081595Y0025739D01*
X0081624Y0025861D01*
X0081657Y0025981D01*
X0081695Y0026100D01*
X0081735Y0026219D01*
X0081780Y0026335D01*
X0081828Y0026450D01*
X0081880Y0026564D01*
X0081936Y0026676D01*
X0081995Y0026786D01*
X0082057Y0026894D01*
X0082123Y0027001D01*
X0082192Y0027105D01*
X0082265Y0027206D01*
X0082340Y0027306D01*
X0082419Y0027403D01*
X0082501Y0027497D01*
X0082586Y0027589D01*
X0082673Y0027678D01*
X0082764Y0027764D01*
X0082857Y0027847D01*
X0082953Y0027928D01*
X0083051Y0028005D01*
X0083151Y0028079D01*
X0083254Y0028150D01*
X0083359Y0028217D01*
X0083467Y0028282D01*
X0083576Y0028342D01*
X0083687Y0028400D01*
X0083800Y0028453D01*
X0083914Y0028503D01*
X0084030Y0028550D01*
X0084147Y0028592D01*
X0084266Y0028631D01*
X0084386Y0028667D01*
X0084507Y0028698D01*
X0084629Y0028726D01*
X0084751Y0028749D01*
X0084875Y0028769D01*
X0084999Y0028785D01*
X0085123Y0028797D01*
X0085248Y0028805D01*
X0085373Y0028809D01*
X0085497Y0028809D01*
X0085622Y0028805D01*
X0085747Y0028797D01*
X0085871Y0028785D01*
X0085995Y0028769D01*
X0086119Y0028749D01*
X0086241Y0028726D01*
X0086363Y0028698D01*
X0086484Y0028667D01*
X0086604Y0028631D01*
X0086723Y0028592D01*
X0086840Y0028550D01*
X0086956Y0028503D01*
X0087070Y0028453D01*
X0087183Y0028400D01*
X0087294Y0028342D01*
X0087404Y0028282D01*
X0087511Y0028217D01*
X0087616Y0028150D01*
X0087719Y0028079D01*
X0087819Y0028005D01*
X0087917Y0027928D01*
X0088013Y0027847D01*
X0088106Y0027764D01*
X0088197Y0027678D01*
X0088284Y0027589D01*
X0088369Y0027497D01*
X0088451Y0027403D01*
X0088530Y0027306D01*
X0088605Y0027206D01*
X0088678Y0027105D01*
X0088747Y0027001D01*
X0088813Y0026894D01*
X0088875Y0026786D01*
X0088934Y0026676D01*
X0088990Y0026564D01*
X0089042Y0026450D01*
X0089090Y0026335D01*
X0089135Y0026219D01*
X0089175Y0026100D01*
X0089213Y0025981D01*
X0089246Y0025861D01*
X0089275Y0025739D01*
X0089301Y0025617D01*
X0089323Y0025494D01*
X0089340Y0025370D01*
X0089354Y0025246D01*
X0089364Y0025122D01*
X0089370Y0024997D01*
X0089372Y0024872D01*
X0089370Y0024747D01*
X0089364Y0024622D01*
X0089354Y0024498D01*
X0089340Y0024374D01*
X0089323Y0024250D01*
X0089301Y0024127D01*
X0089275Y0024005D01*
X0089246Y0023883D01*
X0089213Y0023763D01*
X0089175Y0023644D01*
X0089135Y0023525D01*
X0089090Y0023409D01*
X0089042Y0023294D01*
X0088990Y0023180D01*
X0088934Y0023068D01*
X0088875Y0022958D01*
X0088813Y0022850D01*
X0088747Y0022743D01*
X0088678Y0022639D01*
X0088605Y0022538D01*
X0088530Y0022438D01*
X0088451Y0022341D01*
X0088369Y0022247D01*
X0088284Y0022155D01*
X0088197Y0022066D01*
X0088106Y0021980D01*
X0088013Y0021897D01*
X0087917Y0021816D01*
X0087819Y0021739D01*
X0087719Y0021665D01*
X0087616Y0021594D01*
X0087511Y0021527D01*
X0087403Y0021462D01*
X0087294Y0021402D01*
X0087183Y0021344D01*
X0087070Y0021291D01*
X0086956Y0021241D01*
X0086840Y0021194D01*
X0086723Y0021152D01*
X0086604Y0021113D01*
X0086484Y0021077D01*
X0086363Y0021046D01*
X0086241Y0021018D01*
X0086119Y0020995D01*
X0085995Y0020975D01*
X0085871Y0020959D01*
X0085747Y0020947D01*
X0085622Y0020939D01*
X0085497Y0020935D01*
X0085373Y0020935D01*
X0085248Y0020939D01*
X0085123Y0020947D01*
X0084999Y0020959D01*
X0084875Y0020975D01*
X0084751Y0020995D01*
X0084629Y0021018D01*
X0084507Y0021046D01*
X0084386Y0021077D01*
X0084266Y0021113D01*
X0084147Y0021152D01*
X0084030Y0021194D01*
X0083914Y0021241D01*
X0083800Y0021291D01*
X0083687Y0021344D01*
X0083576Y0021402D01*
X0083466Y0021462D01*
X0083359Y0021527D01*
X0083254Y0021594D01*
X0083151Y0021665D01*
X0083051Y0021739D01*
X0082953Y0021816D01*
X0082857Y0021897D01*
X0082764Y0021980D01*
X0082673Y0022066D01*
X0082586Y0022155D01*
X0082501Y0022247D01*
X0082419Y0022341D01*
X0082340Y0022438D01*
X0082265Y0022538D01*
X0082192Y0022639D01*
X0082123Y0022743D01*
X0082057Y0022850D01*
X0081995Y0022958D01*
X0081936Y0023068D01*
X0081880Y0023180D01*
X0081828Y0023294D01*
X0081780Y0023409D01*
X0081735Y0023525D01*
X0081695Y0023644D01*
X0081657Y0023763D01*
X0081624Y0023883D01*
X0081595Y0024005D01*
X0081569Y0024127D01*
X0081547Y0024250D01*
X0081530Y0024374D01*
X0081516Y0024498D01*
X0081506Y0024622D01*
X0081500Y0024747D01*
X0081498Y0024872D01*
D13*
X0116585Y0159822D03*
X0126585Y0159822D03*
D14*
X0121585Y0179822D03*
M02*
