G75*
%MOIN*%
%OFA0B0*%
%FSLAX25Y25*%
%IPPOS*%
%LPD*%
%AMOC8*
5,1,8,0,0,1.08239X$1,22.5*
%
%ADD10C,0.00000*%
%ADD11OC8,0.05200*%
%ADD12C,0.07400*%
%ADD13OC8,0.06000*%
%ADD14C,0.17000*%
%ADD15C,0.06000*%
%ADD16C,0.05200*%
%ADD17C,0.06500*%
%ADD18C,0.07050*%
%ADD19R,0.05900X0.05900*%
%ADD20C,0.05900*%
%ADD21R,0.07400X0.07400*%
%ADD22C,0.07000*%
%ADD23R,0.07000X0.07000*%
%ADD24C,0.05937*%
%ADD25C,0.17780*%
%ADD26C,0.02000*%
%ADD27C,0.08000*%
%ADD28C,0.15000*%
%ADD29C,0.04500*%
%ADD30C,0.01600*%
%ADD31C,0.01000*%
%ADD32C,0.02700*%
%ADD33C,0.03000*%
D10*
X0017181Y0006628D02*
X0017181Y0251628D01*
X0323181Y0251628D01*
X0323181Y0006628D01*
X0017181Y0006628D01*
D11*
X0054063Y0050982D03*
X0064063Y0050982D03*
X0143528Y0117652D03*
X0143528Y0127652D03*
X0210181Y0106628D03*
X0220181Y0106628D03*
X0233981Y0043228D03*
X0243981Y0043228D03*
X0222981Y0042228D03*
X0212981Y0042228D03*
X0201281Y0041928D03*
X0191281Y0041928D03*
X0180181Y0041628D03*
X0170181Y0041628D03*
X0275981Y0035228D03*
X0285981Y0035228D03*
X0241181Y0171628D03*
X0231181Y0171628D03*
X0221181Y0171628D03*
X0211181Y0171628D03*
X0251181Y0172628D03*
X0261181Y0172628D03*
X0214881Y0233128D03*
X0204881Y0233128D03*
X0107181Y0195628D03*
X0097181Y0195628D03*
X0082181Y0201628D03*
X0082181Y0211628D03*
D12*
X0098124Y0213203D03*
X0128124Y0213203D03*
X0129378Y0245778D03*
X0139378Y0245778D03*
X0149378Y0245778D03*
X0159378Y0245778D03*
X0169378Y0245778D03*
X0179378Y0245778D03*
X0192291Y0246202D03*
X0211976Y0246202D03*
X0262781Y0244628D03*
X0272781Y0244628D03*
X0282781Y0244628D03*
X0299181Y0184628D03*
X0310181Y0184628D03*
X0310181Y0154628D03*
X0299181Y0154628D03*
X0265181Y0133628D03*
X0255181Y0133628D03*
X0245181Y0133628D03*
X0235181Y0133628D03*
X0211181Y0122628D03*
X0202181Y0122628D03*
X0189181Y0108628D03*
X0179181Y0108628D03*
X0169181Y0108628D03*
X0130477Y0101933D03*
X0130477Y0091933D03*
X0110469Y0090965D03*
X0110469Y0100965D03*
X0160717Y0144778D03*
X0160205Y0154628D03*
X0169181Y0168628D03*
X0179181Y0168628D03*
X0189181Y0168628D03*
X0190205Y0154628D03*
X0190717Y0144778D03*
X0202181Y0152628D03*
X0211181Y0152628D03*
X0235181Y0103628D03*
X0245181Y0103628D03*
X0255181Y0103628D03*
X0265181Y0103628D03*
X0256299Y0047250D03*
X0286299Y0047250D03*
X0287181Y0012628D03*
X0277181Y0012628D03*
X0267181Y0012628D03*
X0297181Y0012628D03*
X0307181Y0012628D03*
X0317181Y0012628D03*
X0206369Y0013948D03*
X0206369Y0023948D03*
X0190083Y0024019D03*
X0190083Y0014019D03*
X0167000Y0013746D03*
X0167000Y0023746D03*
X0158717Y0037187D03*
X0158764Y0047990D03*
X0128764Y0047990D03*
X0128717Y0037187D03*
X0135362Y0023778D03*
X0135362Y0013778D03*
X0142181Y0147628D03*
X0142181Y0177628D03*
X0066181Y0180628D03*
X0066181Y0210628D03*
X0054181Y0211628D03*
X0024181Y0211628D03*
D13*
X0300181Y0141628D03*
X0310181Y0141628D03*
X0310181Y0131628D03*
X0300181Y0131628D03*
X0300181Y0121628D03*
X0300181Y0111628D03*
X0310181Y0111628D03*
X0310181Y0121628D03*
X0310181Y0101628D03*
X0300181Y0101628D03*
X0300181Y0091628D03*
X0310181Y0091628D03*
X0310181Y0081628D03*
X0300181Y0081628D03*
X0300181Y0071628D03*
X0310181Y0071628D03*
D14*
X0058937Y0099219D03*
X0047126Y0080715D03*
X0035315Y0099219D03*
D15*
X0096909Y0077434D02*
X0102909Y0077434D01*
X0122509Y0077434D02*
X0128509Y0077434D01*
X0128509Y0059634D02*
X0122509Y0059634D01*
X0102909Y0059634D02*
X0096909Y0059634D01*
X0082666Y0228090D02*
X0076666Y0228090D01*
X0057066Y0228090D02*
X0051066Y0228090D01*
X0051066Y0245890D02*
X0057066Y0245890D01*
X0076666Y0245890D02*
X0082666Y0245890D01*
D16*
X0141181Y0222228D02*
X0141181Y0217028D01*
X0151181Y0217028D02*
X0151181Y0222228D01*
X0161181Y0222228D02*
X0161181Y0217028D01*
X0171181Y0217028D02*
X0171181Y0222228D01*
X0181181Y0222228D02*
X0181181Y0217028D01*
X0191181Y0217028D02*
X0191181Y0222228D01*
X0201181Y0222228D02*
X0201181Y0217028D01*
X0211181Y0217028D02*
X0211181Y0222228D01*
X0221181Y0222228D02*
X0221181Y0217028D01*
X0231181Y0217028D02*
X0231181Y0222228D01*
X0241181Y0222228D02*
X0241181Y0217028D01*
X0251181Y0217028D02*
X0251181Y0222228D01*
X0261181Y0222228D02*
X0261181Y0217028D01*
X0271181Y0217028D02*
X0271181Y0222228D01*
X0271181Y0192228D02*
X0271181Y0187028D01*
X0261181Y0187028D02*
X0261181Y0192228D01*
X0251181Y0192228D02*
X0251181Y0187028D01*
X0241181Y0187028D02*
X0241181Y0192228D01*
X0231181Y0192228D02*
X0231181Y0187028D01*
X0221181Y0187028D02*
X0221181Y0192228D01*
X0211181Y0192228D02*
X0211181Y0187028D01*
X0201181Y0187028D02*
X0201181Y0192228D01*
X0191181Y0192228D02*
X0191181Y0187028D01*
X0181181Y0187028D02*
X0181181Y0192228D01*
X0171181Y0192228D02*
X0171181Y0187028D01*
X0161181Y0187028D02*
X0161181Y0192228D01*
X0151181Y0192228D02*
X0151181Y0187028D01*
X0141181Y0187028D02*
X0141181Y0192228D01*
X0126803Y0148063D02*
X0126803Y0142863D01*
X0116803Y0142863D02*
X0116803Y0148063D01*
X0106803Y0148063D02*
X0106803Y0142863D01*
X0096803Y0142863D02*
X0096803Y0148063D01*
X0096803Y0118063D02*
X0096803Y0112863D01*
X0106803Y0112863D02*
X0106803Y0118063D01*
X0116803Y0118063D02*
X0116803Y0112863D01*
X0126803Y0112863D02*
X0126803Y0118063D01*
X0145181Y0092228D02*
X0145181Y0087028D01*
X0155181Y0087028D02*
X0155181Y0092228D01*
X0165181Y0092228D02*
X0165181Y0087028D01*
X0175181Y0087028D02*
X0175181Y0092228D01*
X0185181Y0092228D02*
X0185181Y0087028D01*
X0195181Y0087028D02*
X0195181Y0092228D01*
X0205181Y0092228D02*
X0205181Y0087028D01*
X0215181Y0087028D02*
X0215181Y0092228D01*
X0225181Y0092228D02*
X0225181Y0087028D01*
X0235181Y0087028D02*
X0235181Y0092228D01*
X0245181Y0092228D02*
X0245181Y0087028D01*
X0255181Y0087028D02*
X0255181Y0092228D01*
X0265181Y0092228D02*
X0265181Y0087028D01*
X0275181Y0087028D02*
X0275181Y0092228D01*
X0275181Y0062228D02*
X0275181Y0057028D01*
X0265181Y0057028D02*
X0265181Y0062228D01*
X0255181Y0062228D02*
X0255181Y0057028D01*
X0245181Y0057028D02*
X0245181Y0062228D01*
X0235181Y0062228D02*
X0235181Y0057028D01*
X0225181Y0057028D02*
X0225181Y0062228D01*
X0215181Y0062228D02*
X0215181Y0057028D01*
X0205181Y0057028D02*
X0205181Y0062228D01*
X0195181Y0062228D02*
X0195181Y0057028D01*
X0185181Y0057028D02*
X0185181Y0062228D01*
X0175181Y0062228D02*
X0175181Y0057028D01*
X0165181Y0057028D02*
X0165181Y0062228D01*
X0155181Y0062228D02*
X0155181Y0057028D01*
X0145181Y0057028D02*
X0145181Y0062228D01*
D17*
X0226481Y0019828D03*
X0246481Y0019828D03*
X0250181Y0151628D03*
X0230181Y0151628D03*
D18*
X0040556Y0151037D02*
X0033506Y0151037D01*
X0033506Y0131352D02*
X0040556Y0131352D01*
X0040950Y0174778D02*
X0033900Y0174778D01*
X0033900Y0194463D02*
X0040950Y0194463D01*
D19*
X0236715Y0245427D03*
D20*
X0226715Y0245427D03*
X0231715Y0235427D03*
D21*
X0252781Y0244628D03*
X0159181Y0168628D03*
X0159181Y0108628D03*
D22*
X0083005Y0069261D03*
X0040550Y0055659D03*
X0066661Y0136384D03*
X0076661Y0156384D03*
D23*
X0069225Y0069261D03*
X0026770Y0055659D03*
D24*
X0096181Y0167659D02*
X0096181Y0173596D01*
X0106181Y0173596D02*
X0106181Y0167659D01*
X0104181Y0235659D02*
X0104181Y0241596D01*
X0094181Y0241596D02*
X0094181Y0235659D01*
X0114181Y0235659D02*
X0114181Y0241596D01*
X0296181Y0240596D02*
X0296181Y0234659D01*
X0306181Y0234659D02*
X0306181Y0240596D01*
X0316181Y0240596D02*
X0316181Y0234659D01*
D25*
X0308520Y0207415D03*
X0308520Y0045998D03*
X0032929Y0022376D03*
X0032929Y0234974D03*
D26*
X0032681Y0234628D01*
X0024681Y0226628D01*
X0024681Y0213128D01*
X0024181Y0211628D01*
X0024181Y0189128D01*
X0035181Y0178128D01*
X0037425Y0174778D01*
X0066181Y0180628D02*
X0066681Y0181128D01*
X0066681Y0196128D01*
X0082181Y0211628D01*
X0082181Y0225128D01*
X0079681Y0227628D01*
X0079666Y0228090D01*
X0024181Y0212628D02*
X0024181Y0211628D01*
X0066181Y0180628D02*
X0091181Y0155628D01*
X0106181Y0170628D01*
X0091181Y0155628D02*
X0096681Y0150128D01*
X0096681Y0145628D01*
X0096803Y0145463D01*
X0143528Y0127652D02*
X0143681Y0127628D01*
X0158681Y0112628D01*
X0158681Y0109128D01*
X0159181Y0108628D01*
X0159681Y0108128D01*
X0161181Y0108128D01*
X0168681Y0100628D01*
X0201181Y0100628D01*
X0207181Y0106628D01*
X0210181Y0106628D01*
X0201181Y0108628D02*
X0209181Y0116628D01*
X0213681Y0116628D01*
X0218181Y0121128D01*
X0201181Y0108628D02*
X0189181Y0108628D01*
X0205181Y0089628D02*
X0205181Y0069628D01*
X0215181Y0059628D01*
X0212981Y0042228D02*
X0213681Y0041628D01*
X0218181Y0037128D01*
X0235181Y0037128D01*
X0241181Y0043128D01*
X0243181Y0043128D01*
X0243981Y0043228D01*
X0244681Y0043128D01*
X0265181Y0022628D01*
X0266681Y0022628D01*
X0267181Y0023128D01*
X0277181Y0016128D02*
X0277181Y0012628D01*
X0277181Y0016128D02*
X0302181Y0041128D01*
X0302181Y0045128D01*
X0308520Y0045998D01*
X0308181Y0045628D01*
X0302681Y0045628D01*
X0212981Y0042228D02*
X0212681Y0042128D01*
X0201681Y0042128D01*
X0201281Y0041928D01*
X0180181Y0041628D02*
X0175181Y0046628D01*
X0168681Y0046628D01*
X0160181Y0055128D01*
X0160181Y0064128D01*
X0157181Y0067128D01*
X0143181Y0067128D01*
X0130681Y0054628D01*
X0135681Y0049628D01*
X0135681Y0025128D01*
X0135362Y0023778D01*
X0135681Y0024128D01*
X0166681Y0024128D01*
X0167000Y0023746D01*
X0130681Y0054628D02*
X0126181Y0059128D01*
X0125509Y0059634D01*
X0125181Y0059628D01*
X0100181Y0059628D01*
X0099909Y0059634D01*
X0083005Y0069261D02*
X0082681Y0069628D01*
X0079181Y0069628D01*
X0071681Y0077128D01*
X0053681Y0077128D01*
X0047126Y0080715D01*
X0039094Y0080715D02*
X0040681Y0073628D01*
X0040681Y0056628D01*
X0040550Y0055659D01*
X0040181Y0055628D01*
X0040181Y0023128D01*
X0032929Y0022376D01*
X0033181Y0022628D01*
X0216681Y0137128D02*
X0230181Y0137128D01*
X0238681Y0145628D01*
X0252681Y0145628D01*
X0266181Y0159128D01*
X0266181Y0208628D01*
X0265681Y0208628D01*
X0266181Y0208628D02*
X0266181Y0231628D01*
X0253181Y0244628D01*
X0252781Y0244628D01*
X0211976Y0246202D02*
X0211681Y0246128D01*
X0210681Y0246128D01*
X0196181Y0231628D01*
X0201181Y0219628D02*
X0211181Y0209628D01*
X0211181Y0197628D01*
X0242681Y0197628D01*
X0246181Y0194128D01*
X0246181Y0185128D01*
X0241181Y0180128D01*
X0241181Y0171628D01*
X0221181Y0171628D02*
X0221181Y0179628D01*
X0211181Y0189628D01*
X0211181Y0197628D01*
D27*
X0076661Y0156384D02*
X0067425Y0156384D01*
X0053181Y0170628D01*
X0053181Y0178707D01*
X0037425Y0194463D01*
X0037425Y0174778D02*
X0023181Y0160533D01*
X0023181Y0141628D01*
X0033457Y0131352D01*
X0037031Y0131352D01*
X0035315Y0129636D01*
X0035315Y0099219D01*
X0066661Y0136384D02*
X0052008Y0151037D01*
X0037031Y0151037D01*
D28*
X0076661Y0156384D02*
X0080181Y0152864D01*
X0080181Y0128628D01*
X0058937Y0107384D01*
X0058937Y0099219D01*
X0047126Y0080715D02*
X0039094Y0080715D01*
X0035181Y0084628D01*
X0035181Y0099085D01*
X0035315Y0099219D01*
D29*
X0081681Y0114628D03*
X0218181Y0121128D03*
X0216681Y0137128D03*
X0265681Y0208628D03*
X0196181Y0231628D03*
X0266181Y0037628D03*
X0277681Y0026128D03*
X0288681Y0021128D03*
X0301681Y0034128D03*
X0266681Y0022628D03*
D30*
X0266382Y0021528D02*
X0255824Y0032086D01*
X0254758Y0032528D01*
X0198882Y0032528D01*
X0193917Y0037493D01*
X0196281Y0039857D01*
X0196281Y0043999D01*
X0195052Y0045228D01*
X0198359Y0045228D01*
X0196881Y0043750D01*
X0196881Y0041928D01*
X0201281Y0041928D01*
X0201281Y0041928D01*
X0196881Y0041928D01*
X0196881Y0040105D01*
X0199459Y0037528D01*
X0201281Y0037528D01*
X0201281Y0041928D01*
X0201281Y0041928D01*
X0205681Y0041928D01*
X0205681Y0043750D01*
X0204204Y0045228D01*
X0209759Y0045228D01*
X0208581Y0044050D01*
X0208581Y0042228D01*
X0212981Y0042228D01*
X0212981Y0042228D01*
X0208581Y0042228D01*
X0208581Y0040405D01*
X0211159Y0037828D01*
X0212981Y0037828D01*
X0212981Y0042228D01*
X0212981Y0042228D01*
X0217381Y0042228D01*
X0217381Y0044050D01*
X0216204Y0045228D01*
X0218910Y0045228D01*
X0217981Y0044299D01*
X0217981Y0040157D01*
X0220910Y0037228D01*
X0225052Y0037228D01*
X0227981Y0040157D01*
X0227981Y0044299D01*
X0227052Y0045228D01*
X0228981Y0045228D01*
X0228981Y0041157D01*
X0231910Y0038228D01*
X0236052Y0038228D01*
X0238981Y0041157D01*
X0238981Y0045228D01*
X0239759Y0045228D01*
X0239581Y0045050D01*
X0239581Y0043228D01*
X0243981Y0043228D01*
X0243981Y0043228D01*
X0239581Y0043228D01*
X0239581Y0041405D01*
X0242159Y0038828D01*
X0243981Y0038828D01*
X0243981Y0043228D01*
X0243981Y0043228D01*
X0248381Y0043228D01*
X0248381Y0043327D01*
X0251723Y0039985D01*
X0252538Y0039169D01*
X0253604Y0038728D01*
X0261604Y0038728D01*
X0261531Y0038553D01*
X0261531Y0036703D01*
X0262239Y0034994D01*
X0263547Y0033686D01*
X0265256Y0032978D01*
X0265316Y0032978D01*
X0273031Y0025263D01*
X0273031Y0025203D01*
X0273739Y0023494D01*
X0275047Y0022186D01*
X0275111Y0022159D01*
X0274480Y0021528D01*
X0266382Y0021528D01*
X0265297Y0022613D02*
X0274620Y0022613D01*
X0273442Y0024212D02*
X0263699Y0024212D01*
X0262100Y0025810D02*
X0272484Y0025810D01*
X0270885Y0027409D02*
X0260502Y0027409D01*
X0258903Y0029007D02*
X0269287Y0029007D01*
X0267688Y0030606D02*
X0257305Y0030606D01*
X0255540Y0032204D02*
X0266089Y0032204D01*
X0263430Y0033803D02*
X0197608Y0033803D01*
X0196009Y0035401D02*
X0262070Y0035401D01*
X0261531Y0037000D02*
X0194411Y0037000D01*
X0195022Y0038598D02*
X0198388Y0038598D01*
X0196881Y0040197D02*
X0196281Y0040197D01*
X0196281Y0041795D02*
X0196881Y0041795D01*
X0196881Y0043394D02*
X0196281Y0043394D01*
X0195288Y0044992D02*
X0198123Y0044992D01*
X0201281Y0041928D02*
X0201281Y0041928D01*
X0201281Y0037528D01*
X0203104Y0037528D01*
X0205681Y0040105D01*
X0205681Y0041928D01*
X0201281Y0041928D01*
X0201281Y0041795D02*
X0201281Y0041795D01*
X0201281Y0040197D02*
X0201281Y0040197D01*
X0201281Y0038598D02*
X0201281Y0038598D01*
X0204174Y0038598D02*
X0210388Y0038598D01*
X0208790Y0040197D02*
X0205681Y0040197D01*
X0205681Y0041795D02*
X0208581Y0041795D01*
X0208581Y0043394D02*
X0205681Y0043394D01*
X0204439Y0044992D02*
X0209523Y0044992D01*
X0212981Y0042228D02*
X0212981Y0042228D01*
X0212981Y0037828D01*
X0214804Y0037828D01*
X0217381Y0040405D01*
X0217381Y0042228D01*
X0212981Y0042228D01*
X0212981Y0041795D02*
X0212981Y0041795D01*
X0212981Y0040197D02*
X0212981Y0040197D01*
X0212981Y0038598D02*
X0212981Y0038598D01*
X0215574Y0038598D02*
X0219540Y0038598D01*
X0217981Y0040197D02*
X0217172Y0040197D01*
X0217381Y0041795D02*
X0217981Y0041795D01*
X0217981Y0043394D02*
X0217381Y0043394D01*
X0216439Y0044992D02*
X0218674Y0044992D01*
X0227288Y0044992D02*
X0228981Y0044992D01*
X0228981Y0043394D02*
X0227981Y0043394D01*
X0227981Y0041795D02*
X0228981Y0041795D01*
X0229941Y0040197D02*
X0227981Y0040197D01*
X0226422Y0038598D02*
X0231540Y0038598D01*
X0236422Y0038598D02*
X0261550Y0038598D01*
X0261774Y0044528D02*
X0262399Y0046037D01*
X0262399Y0047728D01*
X0275180Y0047728D01*
X0271980Y0044528D01*
X0261774Y0044528D01*
X0261967Y0044992D02*
X0272444Y0044992D01*
X0274043Y0046591D02*
X0262399Y0046591D01*
X0270759Y0038728D02*
X0272410Y0038728D01*
X0271503Y0037821D01*
X0270831Y0038493D01*
X0270831Y0038553D01*
X0270759Y0038728D01*
X0270812Y0038598D02*
X0272280Y0038598D01*
X0275882Y0040228D02*
X0280636Y0044982D01*
X0281128Y0043795D01*
X0282844Y0042079D01*
X0285086Y0041150D01*
X0287513Y0041150D01*
X0289755Y0042079D01*
X0291471Y0043795D01*
X0292399Y0046037D01*
X0292399Y0048463D01*
X0291471Y0050705D01*
X0289755Y0052421D01*
X0288567Y0052913D01*
X0299882Y0064228D01*
X0305180Y0064228D01*
X0295223Y0054271D01*
X0294781Y0053205D01*
X0294781Y0052051D01*
X0294781Y0041829D01*
X0290616Y0037664D01*
X0288052Y0040228D01*
X0283910Y0040228D01*
X0280981Y0037299D01*
X0278052Y0040228D01*
X0275882Y0040228D01*
X0278083Y0040197D02*
X0283879Y0040197D01*
X0283528Y0041795D02*
X0277450Y0041795D01*
X0279048Y0043394D02*
X0281529Y0043394D01*
X0282280Y0038598D02*
X0279682Y0038598D01*
X0280981Y0037299D02*
X0280981Y0033157D01*
X0278602Y0030778D01*
X0278606Y0030778D01*
X0280315Y0030070D01*
X0281623Y0028762D01*
X0281650Y0028698D01*
X0283545Y0030593D01*
X0280981Y0033157D01*
X0280981Y0037299D01*
X0280981Y0037000D02*
X0280981Y0037000D01*
X0280981Y0035401D02*
X0280981Y0035401D01*
X0280981Y0033803D02*
X0280981Y0033803D01*
X0280028Y0032204D02*
X0281934Y0032204D01*
X0283532Y0030606D02*
X0279022Y0030606D01*
X0281378Y0029007D02*
X0281959Y0029007D01*
X0286350Y0025195D02*
X0297614Y0036459D01*
X0297031Y0035053D01*
X0297031Y0034993D01*
X0287816Y0025778D01*
X0287756Y0025778D01*
X0286350Y0025195D01*
X0286964Y0025810D02*
X0287848Y0025810D01*
X0288563Y0027409D02*
X0289446Y0027409D01*
X0290161Y0029007D02*
X0291045Y0029007D01*
X0291760Y0030606D02*
X0292643Y0030606D01*
X0293358Y0032204D02*
X0294242Y0032204D01*
X0294957Y0033803D02*
X0295840Y0033803D01*
X0296556Y0035401D02*
X0297175Y0035401D01*
X0299350Y0038195D02*
X0300140Y0038985D01*
X0300581Y0040051D01*
X0300581Y0051427D01*
X0317781Y0068627D01*
X0317781Y0027329D01*
X0308950Y0018498D01*
X0308394Y0018728D01*
X0305968Y0018728D01*
X0303726Y0017799D01*
X0302181Y0016255D01*
X0300636Y0017799D01*
X0298394Y0018728D01*
X0295968Y0018728D01*
X0293726Y0017799D01*
X0292181Y0016255D01*
X0291269Y0017167D01*
X0291315Y0017186D01*
X0292623Y0018494D01*
X0293331Y0020203D01*
X0293331Y0020263D01*
X0302547Y0029478D01*
X0302606Y0029478D01*
X0304315Y0030186D01*
X0305623Y0031494D01*
X0306331Y0033203D01*
X0306331Y0035053D01*
X0305623Y0036762D01*
X0304315Y0038070D01*
X0302606Y0038778D01*
X0300756Y0038778D01*
X0299350Y0038195D01*
X0299753Y0038598D02*
X0300322Y0038598D01*
X0300581Y0040197D02*
X0317781Y0040197D01*
X0317781Y0041795D02*
X0300581Y0041795D01*
X0300581Y0043394D02*
X0317781Y0043394D01*
X0317781Y0044992D02*
X0300581Y0044992D01*
X0300581Y0046591D02*
X0317781Y0046591D01*
X0317781Y0048189D02*
X0300581Y0048189D01*
X0300581Y0049788D02*
X0317781Y0049788D01*
X0317781Y0051386D02*
X0300581Y0051386D01*
X0302139Y0052985D02*
X0317781Y0052985D01*
X0317781Y0054583D02*
X0303738Y0054583D01*
X0305336Y0056182D02*
X0317781Y0056182D01*
X0317781Y0057780D02*
X0306935Y0057780D01*
X0308533Y0059379D02*
X0317781Y0059379D01*
X0317781Y0060977D02*
X0310132Y0060977D01*
X0311730Y0062576D02*
X0317781Y0062576D01*
X0317781Y0064174D02*
X0313329Y0064174D01*
X0314927Y0065773D02*
X0317781Y0065773D01*
X0317781Y0067371D02*
X0316526Y0067371D01*
X0315199Y0074247D02*
X0312818Y0076628D01*
X0315581Y0079391D01*
X0315581Y0083865D01*
X0312818Y0086628D01*
X0315581Y0089391D01*
X0315581Y0093865D01*
X0314300Y0095146D01*
X0315781Y0096627D01*
X0315781Y0074829D01*
X0315199Y0074247D01*
X0315781Y0075364D02*
X0314082Y0075364D01*
X0313152Y0076962D02*
X0315781Y0076962D01*
X0315781Y0078561D02*
X0314751Y0078561D01*
X0315581Y0080159D02*
X0315781Y0080159D01*
X0315781Y0081758D02*
X0315581Y0081758D01*
X0315581Y0083356D02*
X0315781Y0083356D01*
X0315781Y0084955D02*
X0314491Y0084955D01*
X0315781Y0086554D02*
X0312892Y0086554D01*
X0314342Y0088152D02*
X0315781Y0088152D01*
X0315781Y0089751D02*
X0315581Y0089751D01*
X0315581Y0091349D02*
X0315781Y0091349D01*
X0315781Y0092948D02*
X0315581Y0092948D01*
X0315781Y0094546D02*
X0314900Y0094546D01*
X0315299Y0096145D02*
X0315781Y0096145D01*
X0306663Y0087509D02*
X0307544Y0086628D01*
X0304781Y0083865D01*
X0304781Y0083816D01*
X0303876Y0084721D01*
X0306663Y0087509D01*
X0307470Y0086554D02*
X0305708Y0086554D01*
X0305871Y0084955D02*
X0304109Y0084955D01*
X0296062Y0088110D02*
X0275180Y0067228D01*
X0274187Y0067228D01*
X0272814Y0066659D01*
X0295163Y0089009D01*
X0296062Y0088110D01*
X0296020Y0088152D02*
X0294306Y0088152D01*
X0294505Y0086554D02*
X0292708Y0086554D01*
X0292907Y0084955D02*
X0291109Y0084955D01*
X0291308Y0083356D02*
X0289511Y0083356D01*
X0289710Y0081758D02*
X0287912Y0081758D01*
X0288111Y0080159D02*
X0286314Y0080159D01*
X0286513Y0078561D02*
X0284715Y0078561D01*
X0284914Y0076962D02*
X0283117Y0076962D01*
X0283316Y0075364D02*
X0281518Y0075364D01*
X0281717Y0073765D02*
X0279920Y0073765D01*
X0280119Y0072167D02*
X0278321Y0072167D01*
X0278520Y0070568D02*
X0276723Y0070568D01*
X0276922Y0068970D02*
X0275124Y0068970D01*
X0275323Y0067371D02*
X0273526Y0067371D01*
X0270750Y0064595D02*
X0269946Y0063791D01*
X0270181Y0063223D01*
X0270750Y0064595D01*
X0270575Y0064174D02*
X0270329Y0064174D01*
X0270181Y0063223D02*
X0270181Y0056033D01*
X0269972Y0055528D01*
X0270390Y0055528D01*
X0270181Y0056033D01*
X0270181Y0063223D01*
X0270181Y0062576D02*
X0270181Y0062576D01*
X0270181Y0060977D02*
X0270181Y0060977D01*
X0270181Y0059379D02*
X0270181Y0059379D01*
X0270181Y0057780D02*
X0270181Y0057780D01*
X0270181Y0056182D02*
X0270181Y0056182D01*
X0280181Y0060229D02*
X0280181Y0063223D01*
X0279946Y0063791D01*
X0295588Y0079433D01*
X0296486Y0078534D01*
X0293223Y0075271D01*
X0292781Y0074205D01*
X0292781Y0072829D01*
X0280181Y0060229D01*
X0280181Y0060977D02*
X0280929Y0060977D01*
X0280181Y0062576D02*
X0282528Y0062576D01*
X0284126Y0064174D02*
X0280329Y0064174D01*
X0281927Y0065773D02*
X0285725Y0065773D01*
X0287323Y0067371D02*
X0283526Y0067371D01*
X0285124Y0068970D02*
X0288922Y0068970D01*
X0290520Y0070568D02*
X0286723Y0070568D01*
X0288321Y0072167D02*
X0292119Y0072167D01*
X0292781Y0073765D02*
X0289920Y0073765D01*
X0291518Y0075364D02*
X0293316Y0075364D01*
X0293117Y0076962D02*
X0294914Y0076962D01*
X0294715Y0078561D02*
X0296460Y0078561D01*
X0286104Y0088152D02*
X0280181Y0088152D01*
X0280181Y0086554D02*
X0284505Y0086554D01*
X0282907Y0084955D02*
X0279734Y0084955D01*
X0279420Y0084196D02*
X0280181Y0086033D01*
X0280181Y0093223D01*
X0279420Y0095060D01*
X0279252Y0095228D01*
X0290758Y0095228D01*
X0291824Y0095669D01*
X0295588Y0099433D01*
X0296486Y0098534D01*
X0265180Y0067228D01*
X0264187Y0067228D01*
X0262349Y0066467D01*
X0261646Y0065764D01*
X0258324Y0069086D01*
X0257258Y0069528D01*
X0253104Y0069528D01*
X0252038Y0069086D01*
X0251223Y0068271D01*
X0248716Y0065764D01*
X0248013Y0066467D01*
X0246176Y0067228D01*
X0244187Y0067228D01*
X0242349Y0066467D01*
X0240942Y0065060D01*
X0240181Y0063223D01*
X0239420Y0065060D01*
X0238013Y0066467D01*
X0236176Y0067228D01*
X0234187Y0067228D01*
X0232349Y0066467D01*
X0230942Y0065060D01*
X0230181Y0063223D01*
X0229420Y0065060D01*
X0228013Y0066467D01*
X0226176Y0067228D01*
X0224187Y0067228D01*
X0222349Y0066467D01*
X0220942Y0065060D01*
X0220181Y0063223D01*
X0220181Y0056033D01*
X0220598Y0055028D01*
X0219100Y0055028D01*
X0219259Y0055339D01*
X0219473Y0055998D01*
X0219581Y0056682D01*
X0219581Y0059628D01*
X0219581Y0062574D01*
X0219473Y0063258D01*
X0219259Y0063917D01*
X0218944Y0064534D01*
X0218537Y0065094D01*
X0218048Y0065584D01*
X0217487Y0065991D01*
X0216870Y0066306D01*
X0216211Y0066520D01*
X0215527Y0066628D01*
X0215181Y0066628D01*
X0214835Y0066628D01*
X0214151Y0066520D01*
X0213492Y0066306D01*
X0212875Y0065991D01*
X0212315Y0065584D01*
X0211825Y0065094D01*
X0211418Y0064534D01*
X0211103Y0063917D01*
X0210889Y0063258D01*
X0210781Y0062574D01*
X0210781Y0059628D01*
X0215181Y0059628D01*
X0215181Y0059628D01*
X0215181Y0066628D01*
X0215181Y0059628D01*
X0215181Y0059628D01*
X0210781Y0059628D01*
X0210781Y0056682D01*
X0210889Y0055998D01*
X0211103Y0055339D01*
X0211262Y0055028D01*
X0209765Y0055028D01*
X0210181Y0056033D01*
X0210181Y0063223D01*
X0209420Y0065060D01*
X0208013Y0066467D01*
X0206176Y0067228D01*
X0204187Y0067228D01*
X0203416Y0066909D01*
X0187987Y0082337D01*
X0187675Y0082649D01*
X0188013Y0082789D01*
X0189420Y0084196D01*
X0190181Y0086033D01*
X0190181Y0093223D01*
X0189420Y0095060D01*
X0188013Y0096467D01*
X0186176Y0097228D01*
X0184187Y0097228D01*
X0182349Y0096467D01*
X0180942Y0095060D01*
X0180181Y0093223D01*
X0179420Y0095060D01*
X0178013Y0096467D01*
X0176176Y0097228D01*
X0174187Y0097228D01*
X0172349Y0096467D01*
X0170942Y0095060D01*
X0170181Y0093223D01*
X0169420Y0095060D01*
X0168013Y0096467D01*
X0166176Y0097228D01*
X0164682Y0097228D01*
X0158782Y0103128D01*
X0158981Y0103128D01*
X0158981Y0108428D01*
X0153681Y0108428D01*
X0153681Y0108229D01*
X0150581Y0111329D01*
X0150581Y0120205D01*
X0150140Y0121271D01*
X0146754Y0124656D01*
X0147928Y0125829D01*
X0147928Y0127652D01*
X0147928Y0129474D01*
X0147174Y0130228D01*
X0189180Y0130228D01*
X0188723Y0129771D01*
X0172694Y0113742D01*
X0172636Y0113799D01*
X0170394Y0114728D01*
X0167968Y0114728D01*
X0165726Y0113799D01*
X0164641Y0112715D01*
X0164558Y0113023D01*
X0164321Y0113433D01*
X0163986Y0113768D01*
X0163576Y0114005D01*
X0163118Y0114128D01*
X0159381Y0114128D01*
X0159381Y0108828D01*
X0158981Y0108828D01*
X0158981Y0108428D01*
X0159381Y0108428D01*
X0159381Y0103128D01*
X0163118Y0103128D01*
X0163576Y0103251D01*
X0163986Y0103488D01*
X0164321Y0103823D01*
X0164558Y0104233D01*
X0164641Y0104541D01*
X0165726Y0103457D01*
X0167968Y0102528D01*
X0170394Y0102528D01*
X0172636Y0103457D01*
X0174181Y0105001D01*
X0175726Y0103457D01*
X0177968Y0102528D01*
X0180394Y0102528D01*
X0182636Y0103457D01*
X0182694Y0103514D01*
X0184723Y0101485D01*
X0185538Y0100669D01*
X0186604Y0100228D01*
X0200258Y0100228D01*
X0201324Y0100669D01*
X0205781Y0105127D01*
X0205781Y0104805D01*
X0208359Y0102228D01*
X0210181Y0102228D01*
X0210181Y0106628D01*
X0210181Y0106628D01*
X0214581Y0106628D01*
X0214581Y0108450D01*
X0212004Y0111028D01*
X0211682Y0111028D01*
X0211882Y0111228D01*
X0217710Y0111228D01*
X0215181Y0108699D01*
X0215181Y0104557D01*
X0218110Y0101628D01*
X0222252Y0101628D01*
X0223352Y0102728D01*
X0226957Y0102728D01*
X0228390Y0103322D01*
X0229081Y0104013D01*
X0229081Y0102415D01*
X0229655Y0101028D01*
X0204604Y0101028D01*
X0203538Y0100586D01*
X0202723Y0099771D01*
X0198716Y0095764D01*
X0198013Y0096467D01*
X0196176Y0097228D01*
X0194187Y0097228D01*
X0192349Y0096467D01*
X0190942Y0095060D01*
X0190181Y0093223D01*
X0190181Y0086033D01*
X0190942Y0084196D01*
X0192349Y0082789D01*
X0194187Y0082028D01*
X0196176Y0082028D01*
X0198013Y0082789D01*
X0199420Y0084196D01*
X0200181Y0086033D01*
X0200181Y0089027D01*
X0200781Y0089627D01*
X0200781Y0086682D01*
X0200889Y0085998D01*
X0201103Y0085339D01*
X0201418Y0084722D01*
X0201825Y0084162D01*
X0202315Y0083672D01*
X0202875Y0083265D01*
X0203492Y0082950D01*
X0204151Y0082736D01*
X0204835Y0082628D01*
X0205181Y0082628D01*
X0205181Y0089628D01*
X0205181Y0089628D01*
X0209581Y0089628D01*
X0209581Y0092574D01*
X0209473Y0093258D01*
X0209259Y0093917D01*
X0208944Y0094534D01*
X0208537Y0095094D01*
X0208404Y0095228D01*
X0211110Y0095228D01*
X0210942Y0095060D01*
X0210181Y0093223D01*
X0210181Y0086033D01*
X0210942Y0084196D01*
X0212349Y0082789D01*
X0214187Y0082028D01*
X0216176Y0082028D01*
X0218013Y0082789D01*
X0219420Y0084196D01*
X0220181Y0086033D01*
X0220181Y0093223D01*
X0220181Y0086033D01*
X0220942Y0084196D01*
X0222349Y0082789D01*
X0224187Y0082028D01*
X0226176Y0082028D01*
X0228013Y0082789D01*
X0229420Y0084196D01*
X0230181Y0086033D01*
X0230181Y0093223D01*
X0230181Y0086033D01*
X0230942Y0084196D01*
X0232349Y0082789D01*
X0234187Y0082028D01*
X0236176Y0082028D01*
X0238013Y0082789D01*
X0239420Y0084196D01*
X0240181Y0086033D01*
X0240181Y0093223D01*
X0240181Y0086033D01*
X0240942Y0084196D01*
X0242349Y0082789D01*
X0244187Y0082028D01*
X0246176Y0082028D01*
X0248013Y0082789D01*
X0249420Y0084196D01*
X0250181Y0086033D01*
X0250181Y0093223D01*
X0250181Y0086033D01*
X0250942Y0084196D01*
X0252349Y0082789D01*
X0254187Y0082028D01*
X0256176Y0082028D01*
X0258013Y0082789D01*
X0259420Y0084196D01*
X0260181Y0086033D01*
X0260181Y0093223D01*
X0260181Y0086033D01*
X0260942Y0084196D01*
X0262349Y0082789D01*
X0264187Y0082028D01*
X0266176Y0082028D01*
X0268013Y0082789D01*
X0269420Y0084196D01*
X0270181Y0086033D01*
X0270181Y0093223D01*
X0270181Y0086033D01*
X0270942Y0084196D01*
X0272349Y0082789D01*
X0274187Y0082028D01*
X0276176Y0082028D01*
X0278013Y0082789D01*
X0279420Y0084196D01*
X0278581Y0083356D02*
X0281308Y0083356D01*
X0279710Y0081758D02*
X0188566Y0081758D01*
X0188581Y0083356D02*
X0191781Y0083356D01*
X0190628Y0084955D02*
X0189734Y0084955D01*
X0190181Y0086554D02*
X0190181Y0086554D01*
X0190181Y0088152D02*
X0190181Y0088152D01*
X0190181Y0089751D02*
X0190181Y0089751D01*
X0190181Y0091349D02*
X0190181Y0091349D01*
X0190181Y0092948D02*
X0190181Y0092948D01*
X0189633Y0094546D02*
X0190729Y0094546D01*
X0192027Y0096145D02*
X0188336Y0096145D01*
X0185268Y0100940D02*
X0160970Y0100940D01*
X0162569Y0099342D02*
X0202294Y0099342D01*
X0201594Y0100940D02*
X0204392Y0100940D01*
X0203193Y0102539D02*
X0208048Y0102539D01*
X0210181Y0102539D02*
X0210181Y0102539D01*
X0210181Y0102228D02*
X0212004Y0102228D01*
X0214581Y0104805D01*
X0214581Y0106628D01*
X0210181Y0106628D01*
X0210181Y0106628D01*
X0210181Y0102228D01*
X0210181Y0104137D02*
X0210181Y0104137D01*
X0210181Y0105736D02*
X0210181Y0105736D01*
X0212314Y0102539D02*
X0217199Y0102539D01*
X0215601Y0104137D02*
X0213913Y0104137D01*
X0214581Y0105736D02*
X0215181Y0105736D01*
X0215181Y0107334D02*
X0214581Y0107334D01*
X0214099Y0108933D02*
X0215415Y0108933D01*
X0217013Y0110531D02*
X0212500Y0110531D01*
X0206449Y0104137D02*
X0204791Y0104137D01*
X0200695Y0097743D02*
X0164167Y0097743D01*
X0168336Y0096145D02*
X0172027Y0096145D01*
X0170729Y0094546D02*
X0169633Y0094546D01*
X0170181Y0093223D02*
X0170181Y0086033D01*
X0169420Y0084196D01*
X0169252Y0084028D01*
X0171110Y0084028D01*
X0170942Y0084196D01*
X0170181Y0086033D01*
X0170181Y0093223D01*
X0170181Y0092948D02*
X0170181Y0092948D01*
X0170181Y0091349D02*
X0170181Y0091349D01*
X0170181Y0089751D02*
X0170181Y0089751D01*
X0170181Y0088152D02*
X0170181Y0088152D01*
X0170181Y0086554D02*
X0170181Y0086554D01*
X0169734Y0084955D02*
X0170628Y0084955D01*
X0179252Y0084028D02*
X0179420Y0084196D01*
X0180181Y0086033D01*
X0180181Y0093223D01*
X0180181Y0086033D01*
X0180942Y0084196D01*
X0181110Y0084028D01*
X0179252Y0084028D01*
X0179734Y0084955D02*
X0180628Y0084955D01*
X0180181Y0086554D02*
X0180181Y0086554D01*
X0180181Y0088152D02*
X0180181Y0088152D01*
X0180181Y0089751D02*
X0180181Y0089751D01*
X0180181Y0091349D02*
X0180181Y0091349D01*
X0180181Y0092948D02*
X0180181Y0092948D01*
X0179633Y0094546D02*
X0180729Y0094546D01*
X0182027Y0096145D02*
X0178336Y0096145D01*
X0177942Y0102539D02*
X0170420Y0102539D01*
X0167942Y0102539D02*
X0159372Y0102539D01*
X0159381Y0104137D02*
X0158981Y0104137D01*
X0158981Y0105736D02*
X0159381Y0105736D01*
X0159381Y0107334D02*
X0158981Y0107334D01*
X0158981Y0108828D02*
X0153681Y0108828D01*
X0153681Y0112565D01*
X0153804Y0113023D01*
X0154041Y0113433D01*
X0154376Y0113768D01*
X0154786Y0114005D01*
X0155244Y0114128D01*
X0158981Y0114128D01*
X0158981Y0108828D01*
X0158981Y0108933D02*
X0159381Y0108933D01*
X0159381Y0110531D02*
X0158981Y0110531D01*
X0158981Y0112130D02*
X0159381Y0112130D01*
X0159381Y0113728D02*
X0158981Y0113728D01*
X0154336Y0113728D02*
X0150581Y0113728D01*
X0150581Y0112130D02*
X0153681Y0112130D01*
X0153681Y0110531D02*
X0151379Y0110531D01*
X0152978Y0108933D02*
X0153681Y0108933D01*
X0149571Y0104137D02*
X0140581Y0104137D01*
X0140581Y0102539D02*
X0151169Y0102539D01*
X0152768Y0100940D02*
X0140581Y0100940D01*
X0140581Y0099342D02*
X0154366Y0099342D01*
X0154187Y0097228D02*
X0152349Y0096467D01*
X0150942Y0095060D01*
X0150181Y0093223D01*
X0149420Y0095060D01*
X0148013Y0096467D01*
X0146176Y0097228D01*
X0144187Y0097228D01*
X0142349Y0096467D01*
X0140942Y0095060D01*
X0140181Y0093223D01*
X0140181Y0088143D01*
X0136577Y0091747D01*
X0136577Y0093147D01*
X0136471Y0093403D01*
X0138890Y0095822D01*
X0138890Y0095822D01*
X0139987Y0096919D01*
X0140581Y0098352D01*
X0140581Y0111728D01*
X0141957Y0111728D01*
X0143390Y0112322D01*
X0143720Y0112652D01*
X0144781Y0112652D01*
X0144781Y0109551D01*
X0145223Y0108485D01*
X0146038Y0107669D01*
X0146038Y0107669D01*
X0156695Y0097013D01*
X0156176Y0097228D01*
X0154187Y0097228D01*
X0155965Y0097743D02*
X0140329Y0097743D01*
X0139213Y0096145D02*
X0142027Y0096145D01*
X0140729Y0094546D02*
X0137615Y0094546D01*
X0136577Y0092948D02*
X0140181Y0092948D01*
X0140181Y0091349D02*
X0136975Y0091349D01*
X0138574Y0089751D02*
X0140181Y0089751D01*
X0140172Y0088152D02*
X0140181Y0088152D01*
X0133937Y0083356D02*
X0100425Y0083356D01*
X0099903Y0082834D02*
X0103797Y0086728D01*
X0106079Y0086728D01*
X0107013Y0085794D01*
X0109255Y0084865D01*
X0111682Y0084865D01*
X0113924Y0085794D01*
X0115640Y0087510D01*
X0116568Y0089752D01*
X0116568Y0092178D01*
X0115640Y0094420D01*
X0114095Y0095965D01*
X0115640Y0097510D01*
X0116568Y0099752D01*
X0116568Y0102178D01*
X0115640Y0104420D01*
X0113924Y0106136D01*
X0111682Y0107065D01*
X0109255Y0107065D01*
X0107013Y0106136D01*
X0105297Y0104420D01*
X0104369Y0102178D01*
X0104369Y0099752D01*
X0105297Y0097510D01*
X0106842Y0095965D01*
X0105405Y0094528D01*
X0105081Y0094528D01*
X0105081Y0097404D01*
X0104487Y0098837D01*
X0103390Y0099934D01*
X0095217Y0108108D01*
X0095809Y0107863D01*
X0097798Y0107863D01*
X0099635Y0108624D01*
X0101042Y0110030D01*
X0101803Y0111868D01*
X0101803Y0115149D01*
X0101803Y0111868D01*
X0102564Y0110030D01*
X0103971Y0108624D01*
X0105809Y0107863D01*
X0107798Y0107863D01*
X0109635Y0108624D01*
X0111042Y0110030D01*
X0111803Y0111868D01*
X0111803Y0115149D01*
X0111803Y0111868D01*
X0112564Y0110030D01*
X0113971Y0108624D01*
X0115809Y0107863D01*
X0117798Y0107863D01*
X0119635Y0108624D01*
X0121042Y0110030D01*
X0121803Y0111868D01*
X0121803Y0119057D01*
X0121803Y0111868D01*
X0122564Y0110030D01*
X0123971Y0108624D01*
X0125809Y0107863D01*
X0127798Y0107863D01*
X0129635Y0108624D01*
X0131042Y0110030D01*
X0131745Y0111728D01*
X0132781Y0111728D01*
X0132781Y0107582D01*
X0131691Y0108033D01*
X0129264Y0108033D01*
X0127022Y0107105D01*
X0125306Y0105389D01*
X0124377Y0103147D01*
X0124377Y0100720D01*
X0125306Y0098478D01*
X0126850Y0096933D01*
X0125306Y0095389D01*
X0124377Y0093147D01*
X0124377Y0090720D01*
X0125306Y0088478D01*
X0127022Y0086762D01*
X0129264Y0085833D01*
X0131460Y0085833D01*
X0140472Y0076822D01*
X0141905Y0076228D01*
X0171785Y0076228D01*
X0171432Y0075377D01*
X0170057Y0074807D01*
X0169002Y0073752D01*
X0168431Y0072374D01*
X0168431Y0071979D01*
X0163322Y0066870D01*
X0162349Y0066467D01*
X0160942Y0065060D01*
X0160181Y0063223D01*
X0159420Y0065060D01*
X0158013Y0066467D01*
X0156176Y0067228D01*
X0154187Y0067228D01*
X0152349Y0066467D01*
X0150942Y0065060D01*
X0150181Y0063223D01*
X0149420Y0065060D01*
X0148013Y0066467D01*
X0146176Y0067228D01*
X0144187Y0067228D01*
X0142349Y0066467D01*
X0140942Y0065060D01*
X0140181Y0063223D01*
X0140181Y0056033D01*
X0140942Y0054196D01*
X0142349Y0052789D01*
X0144187Y0052028D01*
X0146176Y0052028D01*
X0148013Y0052789D01*
X0149420Y0054196D01*
X0150181Y0056033D01*
X0150181Y0063223D01*
X0150181Y0056033D01*
X0150942Y0054196D01*
X0152349Y0052789D01*
X0154178Y0052031D01*
X0153592Y0051446D01*
X0152664Y0049204D01*
X0152664Y0046777D01*
X0153592Y0044535D01*
X0155308Y0042819D01*
X0155841Y0042598D01*
X0155261Y0042358D01*
X0153545Y0040642D01*
X0152617Y0038400D01*
X0152617Y0035974D01*
X0153545Y0033732D01*
X0155261Y0032016D01*
X0157503Y0031087D01*
X0159930Y0031087D01*
X0162172Y0032016D01*
X0162182Y0032026D01*
X0165248Y0028960D01*
X0164889Y0028843D01*
X0164117Y0028450D01*
X0163417Y0027941D01*
X0162805Y0027329D01*
X0162296Y0026629D01*
X0161903Y0025857D01*
X0161635Y0025034D01*
X0161500Y0024179D01*
X0161500Y0023746D01*
X0161500Y0023313D01*
X0161635Y0022458D01*
X0161903Y0021635D01*
X0162296Y0020863D01*
X0162805Y0020163D01*
X0163417Y0019551D01*
X0164019Y0019114D01*
X0163545Y0018917D01*
X0161829Y0017201D01*
X0160900Y0014959D01*
X0160900Y0012533D01*
X0161829Y0010291D01*
X0163091Y0009028D01*
X0139239Y0009028D01*
X0140534Y0010322D01*
X0141462Y0012564D01*
X0141462Y0014991D01*
X0140534Y0017233D01*
X0138818Y0018949D01*
X0138344Y0019145D01*
X0138945Y0019582D01*
X0139557Y0020195D01*
X0140066Y0020895D01*
X0140459Y0021666D01*
X0140727Y0022490D01*
X0140862Y0023345D01*
X0140862Y0023777D01*
X0135362Y0023777D01*
X0129862Y0023777D01*
X0129862Y0023345D01*
X0129998Y0022490D01*
X0130265Y0021666D01*
X0130658Y0020895D01*
X0131167Y0020195D01*
X0131779Y0019582D01*
X0132381Y0019145D01*
X0131907Y0018949D01*
X0130191Y0017233D01*
X0129262Y0014991D01*
X0129262Y0012564D01*
X0130191Y0010322D01*
X0131485Y0009028D01*
X0019581Y0009028D01*
X0019581Y0208602D01*
X0019986Y0208045D01*
X0020598Y0207433D01*
X0021298Y0206924D01*
X0022070Y0206531D01*
X0022893Y0206263D01*
X0023748Y0206128D01*
X0024095Y0206128D01*
X0024095Y0211542D01*
X0024267Y0211542D01*
X0024267Y0206128D01*
X0024614Y0206128D01*
X0025469Y0206263D01*
X0026292Y0206531D01*
X0027064Y0206924D01*
X0027764Y0207433D01*
X0028376Y0208045D01*
X0028885Y0208745D01*
X0029278Y0209517D01*
X0029546Y0210340D01*
X0029681Y0211195D01*
X0029681Y0211542D01*
X0024267Y0211542D01*
X0024267Y0211714D01*
X0024095Y0211714D01*
X0024095Y0217128D01*
X0023748Y0217128D01*
X0022893Y0216993D01*
X0022070Y0216725D01*
X0021298Y0216332D01*
X0020598Y0215823D01*
X0019986Y0215211D01*
X0019581Y0214654D01*
X0019581Y0249228D01*
X0046767Y0249228D01*
X0046488Y0248949D01*
X0045666Y0246964D01*
X0045666Y0244816D01*
X0046488Y0242831D01*
X0048007Y0241312D01*
X0049992Y0240490D01*
X0058140Y0240490D01*
X0060125Y0241312D01*
X0061644Y0242831D01*
X0062466Y0244816D01*
X0062466Y0246964D01*
X0061644Y0248949D01*
X0061365Y0249228D01*
X0072367Y0249228D01*
X0072088Y0248949D01*
X0071266Y0246964D01*
X0071266Y0244816D01*
X0072088Y0242831D01*
X0073607Y0241312D01*
X0075592Y0240490D01*
X0076781Y0240490D01*
X0076781Y0237051D01*
X0077223Y0235985D01*
X0080318Y0232890D01*
X0079866Y0232890D01*
X0079866Y0228290D01*
X0079466Y0228290D01*
X0079466Y0227890D01*
X0079866Y0227890D01*
X0079866Y0223290D01*
X0083044Y0223290D01*
X0083790Y0223408D01*
X0084509Y0223642D01*
X0085182Y0223985D01*
X0085793Y0224429D01*
X0086327Y0224963D01*
X0086771Y0225574D01*
X0087062Y0226145D01*
X0089781Y0223427D01*
X0089781Y0201129D01*
X0086824Y0204086D01*
X0086772Y0204108D01*
X0084252Y0206628D01*
X0080110Y0206628D01*
X0077181Y0203699D01*
X0077181Y0199557D01*
X0080110Y0196628D01*
X0084252Y0196628D01*
X0085166Y0197542D01*
X0104608Y0178099D01*
X0104351Y0178016D01*
X0103682Y0177675D01*
X0103075Y0177234D01*
X0102544Y0176703D01*
X0102103Y0176096D01*
X0101762Y0175427D01*
X0101530Y0174713D01*
X0101530Y0174712D01*
X0100732Y0176637D01*
X0099222Y0178148D01*
X0097249Y0178965D01*
X0095113Y0178965D01*
X0093140Y0178148D01*
X0091630Y0176637D01*
X0090813Y0174664D01*
X0090813Y0166592D01*
X0091630Y0164618D01*
X0093140Y0163108D01*
X0095113Y0162291D01*
X0097249Y0162291D01*
X0099222Y0163108D01*
X0100732Y0164618D01*
X0101530Y0166544D01*
X0101530Y0166543D01*
X0101762Y0165829D01*
X0102103Y0165160D01*
X0102544Y0164553D01*
X0103075Y0164022D01*
X0103682Y0163581D01*
X0104351Y0163240D01*
X0105064Y0163008D01*
X0105806Y0162891D01*
X0105997Y0162891D01*
X0105997Y0170444D01*
X0106365Y0170444D01*
X0106365Y0162891D01*
X0106556Y0162891D01*
X0107298Y0163008D01*
X0108012Y0163240D01*
X0108680Y0163581D01*
X0109288Y0164022D01*
X0109818Y0164553D01*
X0110259Y0165160D01*
X0110600Y0165829D01*
X0110832Y0166543D01*
X0110950Y0167284D01*
X0110950Y0170444D01*
X0106365Y0170444D01*
X0106365Y0170812D01*
X0110950Y0170812D01*
X0110950Y0171758D01*
X0112223Y0170485D01*
X0113038Y0169669D01*
X0114104Y0169228D01*
X0143266Y0169228D01*
X0139972Y0165934D01*
X0138875Y0164837D01*
X0138281Y0163404D01*
X0138281Y0152355D01*
X0137010Y0151083D01*
X0136081Y0148841D01*
X0136081Y0146415D01*
X0137010Y0144173D01*
X0138726Y0142457D01*
X0139916Y0141964D01*
X0139480Y0141528D01*
X0131662Y0141528D01*
X0131803Y0141868D01*
X0131803Y0149057D01*
X0131042Y0150895D01*
X0129635Y0152301D01*
X0127798Y0153063D01*
X0125809Y0153063D01*
X0123971Y0152301D01*
X0122564Y0150895D01*
X0121803Y0149057D01*
X0121042Y0150895D01*
X0119635Y0152301D01*
X0117798Y0153063D01*
X0115809Y0153063D01*
X0113971Y0152301D01*
X0112564Y0150895D01*
X0111803Y0149057D01*
X0111042Y0150895D01*
X0109635Y0152301D01*
X0107798Y0153063D01*
X0105809Y0153063D01*
X0103971Y0152301D01*
X0102564Y0150895D01*
X0101803Y0149057D01*
X0101803Y0141868D01*
X0102564Y0140030D01*
X0103971Y0138624D01*
X0105809Y0137863D01*
X0107798Y0137863D01*
X0109635Y0138624D01*
X0111042Y0140030D01*
X0111803Y0141868D01*
X0111803Y0149057D01*
X0111803Y0141868D01*
X0112564Y0140030D01*
X0113971Y0138624D01*
X0115809Y0137863D01*
X0116315Y0137863D01*
X0100194Y0121742D01*
X0099635Y0122301D01*
X0097798Y0123063D01*
X0095809Y0123063D01*
X0093971Y0122301D01*
X0092564Y0120895D01*
X0091803Y0119057D01*
X0091803Y0111868D01*
X0092048Y0111276D01*
X0085390Y0117934D01*
X0084640Y0118245D01*
X0084315Y0118570D01*
X0084180Y0118626D01*
X0088574Y0123020D01*
X0090081Y0126659D01*
X0090081Y0154833D01*
X0088574Y0158472D01*
X0082269Y0164777D01*
X0078631Y0166284D01*
X0074692Y0166284D01*
X0071054Y0164777D01*
X0069568Y0163292D01*
X0059581Y0173279D01*
X0059581Y0179980D01*
X0058607Y0182332D01*
X0046875Y0194064D01*
X0046875Y0195641D01*
X0045973Y0197819D01*
X0044306Y0199486D01*
X0042129Y0200388D01*
X0039845Y0200388D01*
X0038698Y0200863D01*
X0036152Y0200863D01*
X0035005Y0200388D01*
X0032722Y0200388D01*
X0030544Y0199486D01*
X0028877Y0197819D01*
X0027975Y0195641D01*
X0027975Y0193284D01*
X0028877Y0191106D01*
X0030544Y0189440D01*
X0032722Y0188538D01*
X0034299Y0188538D01*
X0043260Y0179577D01*
X0042994Y0179712D01*
X0042197Y0179971D01*
X0041369Y0180103D01*
X0037800Y0180103D01*
X0037800Y0175153D01*
X0037050Y0175153D01*
X0037050Y0180103D01*
X0033481Y0180103D01*
X0032653Y0179971D01*
X0031856Y0179712D01*
X0031109Y0179332D01*
X0030431Y0178839D01*
X0029839Y0178247D01*
X0029346Y0177568D01*
X0028965Y0176822D01*
X0028706Y0176024D01*
X0028575Y0175197D01*
X0028575Y0175153D01*
X0037050Y0175153D01*
X0037050Y0174403D01*
X0028575Y0174403D01*
X0028575Y0174358D01*
X0028706Y0173531D01*
X0028965Y0172733D01*
X0029346Y0171987D01*
X0029839Y0171309D01*
X0030431Y0170716D01*
X0031109Y0170223D01*
X0031856Y0169843D01*
X0032653Y0169584D01*
X0033481Y0169453D01*
X0037050Y0169453D01*
X0037050Y0174402D01*
X0037800Y0174402D01*
X0037800Y0169453D01*
X0041369Y0169453D01*
X0042197Y0169584D01*
X0042994Y0169843D01*
X0043741Y0170223D01*
X0044419Y0170716D01*
X0045012Y0171309D01*
X0045505Y0171987D01*
X0045885Y0172733D01*
X0046144Y0173531D01*
X0046275Y0174358D01*
X0046275Y0174403D01*
X0037800Y0174403D01*
X0037800Y0175153D01*
X0046275Y0175153D01*
X0046275Y0175197D01*
X0046144Y0176024D01*
X0045885Y0176822D01*
X0045750Y0177087D01*
X0046781Y0176056D01*
X0046781Y0169355D01*
X0047755Y0167003D01*
X0049556Y0165202D01*
X0063800Y0150958D01*
X0066152Y0149984D01*
X0069061Y0149984D01*
X0070281Y0148763D01*
X0070281Y0141815D01*
X0055633Y0156463D01*
X0053281Y0157437D01*
X0035758Y0157437D01*
X0034612Y0156962D01*
X0032328Y0156962D01*
X0030150Y0156060D01*
X0028484Y0154394D01*
X0027581Y0152216D01*
X0027581Y0149859D01*
X0028484Y0147681D01*
X0030150Y0146014D01*
X0032328Y0145112D01*
X0034612Y0145112D01*
X0035758Y0144637D01*
X0049357Y0144637D01*
X0063036Y0130958D01*
X0065388Y0129984D01*
X0067536Y0129984D01*
X0050544Y0112992D01*
X0049037Y0109353D01*
X0049037Y0103871D01*
X0048780Y0103426D01*
X0048037Y0100654D01*
X0048037Y0097783D01*
X0048780Y0095011D01*
X0050215Y0092526D01*
X0052244Y0090496D01*
X0054730Y0089061D01*
X0057502Y0088319D01*
X0060372Y0088319D01*
X0063144Y0089061D01*
X0065630Y0090496D01*
X0067659Y0092526D01*
X0069094Y0095011D01*
X0069837Y0097783D01*
X0069837Y0100654D01*
X0069094Y0103426D01*
X0069052Y0103498D01*
X0077683Y0112129D01*
X0077739Y0111994D01*
X0079047Y0110686D01*
X0080756Y0109978D01*
X0082316Y0109978D01*
X0097281Y0095013D01*
X0097281Y0091243D01*
X0087875Y0081837D01*
X0087281Y0080404D01*
X0087281Y0072392D01*
X0087047Y0072714D01*
X0086457Y0073304D01*
X0085783Y0073794D01*
X0085039Y0074173D01*
X0084246Y0074431D01*
X0083422Y0074561D01*
X0083091Y0074561D01*
X0083091Y0069347D01*
X0082919Y0069347D01*
X0082919Y0074561D01*
X0082588Y0074561D01*
X0081764Y0074431D01*
X0080970Y0074173D01*
X0080227Y0073794D01*
X0079552Y0073304D01*
X0078962Y0072714D01*
X0078472Y0072039D01*
X0078093Y0071296D01*
X0077835Y0070502D01*
X0077705Y0069678D01*
X0077705Y0069347D01*
X0082919Y0069347D01*
X0082919Y0069175D01*
X0077705Y0069175D01*
X0077705Y0068844D01*
X0077835Y0068020D01*
X0078093Y0067227D01*
X0078472Y0066483D01*
X0078962Y0065808D01*
X0079552Y0065218D01*
X0080227Y0064728D01*
X0080970Y0064349D01*
X0081285Y0064247D01*
X0072066Y0055028D01*
X0067088Y0055028D01*
X0066134Y0055982D01*
X0061992Y0055982D01*
X0059063Y0053053D01*
X0059063Y0048911D01*
X0061992Y0045982D01*
X0066134Y0045982D01*
X0067380Y0047228D01*
X0074457Y0047228D01*
X0075890Y0047822D01*
X0093390Y0065322D01*
X0094487Y0066419D01*
X0095081Y0067852D01*
X0095081Y0072346D01*
X0095835Y0072034D01*
X0103983Y0072034D01*
X0105968Y0072856D01*
X0107487Y0074375D01*
X0107633Y0074728D01*
X0117785Y0074728D01*
X0117931Y0074375D01*
X0119450Y0072856D01*
X0121435Y0072034D01*
X0129583Y0072034D01*
X0131568Y0072856D01*
X0133087Y0074375D01*
X0133909Y0076360D01*
X0133909Y0078508D01*
X0133087Y0080493D01*
X0131568Y0082012D01*
X0129583Y0082834D01*
X0121435Y0082834D01*
X0119450Y0082012D01*
X0117966Y0080528D01*
X0107452Y0080528D01*
X0105968Y0082012D01*
X0103983Y0082834D01*
X0099903Y0082834D01*
X0102024Y0084955D02*
X0109038Y0084955D01*
X0111899Y0084955D02*
X0132339Y0084955D01*
X0131822Y0081758D02*
X0135536Y0081758D01*
X0137134Y0080159D02*
X0133225Y0080159D01*
X0133887Y0078561D02*
X0138733Y0078561D01*
X0140331Y0076962D02*
X0133909Y0076962D01*
X0133496Y0075364D02*
X0171401Y0075364D01*
X0169015Y0073765D02*
X0132477Y0073765D01*
X0129903Y0072167D02*
X0168431Y0072167D01*
X0167020Y0070568D02*
X0095081Y0070568D01*
X0095081Y0068970D02*
X0165422Y0068970D01*
X0163823Y0067371D02*
X0094882Y0067371D01*
X0093841Y0065773D02*
X0141655Y0065773D01*
X0140575Y0064174D02*
X0130069Y0064174D01*
X0130351Y0064083D02*
X0129633Y0064316D01*
X0128886Y0064434D01*
X0125709Y0064434D01*
X0125709Y0059834D01*
X0133309Y0059834D01*
X0133309Y0060012D01*
X0133190Y0060758D01*
X0132957Y0061477D01*
X0132614Y0062150D01*
X0132170Y0062761D01*
X0131636Y0063295D01*
X0131024Y0063740D01*
X0130351Y0064083D01*
X0132305Y0062576D02*
X0140181Y0062576D01*
X0140181Y0060977D02*
X0133119Y0060977D01*
X0133309Y0059434D02*
X0125709Y0059434D01*
X0125709Y0059834D01*
X0125309Y0059834D01*
X0125309Y0064434D01*
X0122131Y0064434D01*
X0121385Y0064316D01*
X0120666Y0064083D01*
X0119993Y0063740D01*
X0119382Y0063295D01*
X0118847Y0062761D01*
X0118403Y0062150D01*
X0118060Y0061477D01*
X0117827Y0060758D01*
X0117709Y0060012D01*
X0117709Y0059834D01*
X0125309Y0059834D01*
X0125309Y0059434D01*
X0125709Y0059434D01*
X0125709Y0054834D01*
X0128886Y0054834D01*
X0129633Y0054952D01*
X0130351Y0055186D01*
X0131024Y0055529D01*
X0131636Y0055973D01*
X0132170Y0056507D01*
X0132614Y0057119D01*
X0132957Y0057792D01*
X0133190Y0058510D01*
X0133309Y0059256D01*
X0133309Y0059434D01*
X0133309Y0059379D02*
X0140181Y0059379D01*
X0140181Y0057780D02*
X0132951Y0057780D01*
X0131844Y0056182D02*
X0140181Y0056182D01*
X0140782Y0054583D02*
X0082652Y0054583D01*
X0081053Y0052985D02*
X0125132Y0052985D01*
X0125308Y0053161D02*
X0123592Y0051446D01*
X0122664Y0049204D01*
X0122664Y0046777D01*
X0123592Y0044535D01*
X0125308Y0042819D01*
X0125841Y0042598D01*
X0125261Y0042358D01*
X0123545Y0040642D01*
X0122617Y0038400D01*
X0122617Y0035974D01*
X0123545Y0033732D01*
X0125261Y0032016D01*
X0127503Y0031087D01*
X0129930Y0031087D01*
X0132172Y0032016D01*
X0133888Y0033732D01*
X0134817Y0035974D01*
X0134817Y0038400D01*
X0133888Y0040642D01*
X0132172Y0042358D01*
X0131640Y0042579D01*
X0132219Y0042819D01*
X0133935Y0044535D01*
X0134864Y0046777D01*
X0134864Y0049204D01*
X0133935Y0051446D01*
X0132219Y0053161D01*
X0129977Y0054090D01*
X0127550Y0054090D01*
X0125308Y0053161D01*
X0125309Y0054834D02*
X0122131Y0054834D01*
X0121385Y0054952D01*
X0120666Y0055186D01*
X0119993Y0055529D01*
X0119382Y0055973D01*
X0118847Y0056507D01*
X0118403Y0057119D01*
X0118060Y0057792D01*
X0117827Y0058510D01*
X0117709Y0059256D01*
X0117709Y0059434D01*
X0125309Y0059434D01*
X0125309Y0054834D01*
X0125309Y0056182D02*
X0125709Y0056182D01*
X0125709Y0057780D02*
X0125309Y0057780D01*
X0125309Y0059379D02*
X0125709Y0059379D01*
X0125709Y0060977D02*
X0125309Y0060977D01*
X0125309Y0062576D02*
X0125709Y0062576D01*
X0125709Y0064174D02*
X0125309Y0064174D01*
X0120949Y0064174D02*
X0104469Y0064174D01*
X0104751Y0064083D02*
X0104033Y0064316D01*
X0103286Y0064434D01*
X0100109Y0064434D01*
X0100109Y0059834D01*
X0107709Y0059834D01*
X0107709Y0060012D01*
X0107590Y0060758D01*
X0107357Y0061477D01*
X0107014Y0062150D01*
X0106570Y0062761D01*
X0106036Y0063295D01*
X0105424Y0063740D01*
X0104751Y0064083D01*
X0106705Y0062576D02*
X0118713Y0062576D01*
X0117898Y0060977D02*
X0107519Y0060977D01*
X0107709Y0059434D02*
X0100109Y0059434D01*
X0100109Y0059834D01*
X0099709Y0059834D01*
X0099709Y0064434D01*
X0096531Y0064434D01*
X0095785Y0064316D01*
X0095066Y0064083D01*
X0094393Y0063740D01*
X0093782Y0063295D01*
X0093247Y0062761D01*
X0092803Y0062150D01*
X0092460Y0061477D01*
X0092227Y0060758D01*
X0092109Y0060012D01*
X0092109Y0059834D01*
X0099709Y0059834D01*
X0099709Y0059434D01*
X0100109Y0059434D01*
X0100109Y0054834D01*
X0103286Y0054834D01*
X0104033Y0054952D01*
X0104751Y0055186D01*
X0105424Y0055529D01*
X0106036Y0055973D01*
X0106570Y0056507D01*
X0107014Y0057119D01*
X0107357Y0057792D01*
X0107590Y0058510D01*
X0107709Y0059256D01*
X0107709Y0059434D01*
X0107709Y0059379D02*
X0117709Y0059379D01*
X0118066Y0057780D02*
X0107351Y0057780D01*
X0106244Y0056182D02*
X0119173Y0056182D01*
X0123568Y0051386D02*
X0079455Y0051386D01*
X0077856Y0049788D02*
X0122906Y0049788D01*
X0122664Y0048189D02*
X0076258Y0048189D01*
X0073220Y0056182D02*
X0045833Y0056182D01*
X0045850Y0056076D02*
X0045719Y0056900D01*
X0045461Y0057693D01*
X0045083Y0058436D01*
X0044592Y0059111D01*
X0044002Y0059701D01*
X0043327Y0060192D01*
X0042584Y0060570D01*
X0041791Y0060828D01*
X0040967Y0060959D01*
X0040635Y0060959D01*
X0040635Y0055745D01*
X0040464Y0055745D01*
X0040464Y0060959D01*
X0040132Y0060959D01*
X0039309Y0060828D01*
X0038515Y0060570D01*
X0037772Y0060192D01*
X0037097Y0059701D01*
X0036507Y0059111D01*
X0036017Y0058436D01*
X0035638Y0057693D01*
X0035380Y0056900D01*
X0035250Y0056076D01*
X0035250Y0055744D01*
X0040464Y0055744D01*
X0040464Y0055573D01*
X0040635Y0055573D01*
X0040635Y0050359D01*
X0040967Y0050359D01*
X0041791Y0050489D01*
X0042584Y0050747D01*
X0043327Y0051126D01*
X0044002Y0051616D01*
X0044592Y0052206D01*
X0045083Y0052881D01*
X0045461Y0053624D01*
X0045719Y0054418D01*
X0045850Y0055242D01*
X0045850Y0055573D01*
X0040636Y0055573D01*
X0040636Y0055744D01*
X0045850Y0055744D01*
X0045850Y0056076D01*
X0045745Y0054583D02*
X0051441Y0054583D01*
X0052240Y0055382D02*
X0049663Y0052805D01*
X0049663Y0050982D01*
X0049663Y0049160D01*
X0052240Y0046582D01*
X0054063Y0046582D01*
X0055886Y0046582D01*
X0058463Y0049160D01*
X0058463Y0050982D01*
X0054063Y0050982D01*
X0054063Y0046582D01*
X0054063Y0050982D01*
X0054063Y0050982D01*
X0054063Y0050982D01*
X0049663Y0050982D01*
X0054063Y0050982D01*
X0054063Y0050982D01*
X0058463Y0050982D01*
X0058463Y0052805D01*
X0055886Y0055382D01*
X0054063Y0055382D01*
X0054063Y0050982D01*
X0054063Y0055382D01*
X0052240Y0055382D01*
X0054063Y0054583D02*
X0054063Y0054583D01*
X0054063Y0052985D02*
X0054063Y0052985D01*
X0054063Y0051386D02*
X0054063Y0051386D01*
X0054063Y0050982D02*
X0054063Y0050982D01*
X0054063Y0049788D02*
X0054063Y0049788D01*
X0054063Y0048189D02*
X0054063Y0048189D01*
X0054063Y0046591D02*
X0054063Y0046591D01*
X0055894Y0046591D02*
X0061383Y0046591D01*
X0059785Y0048189D02*
X0057492Y0048189D01*
X0058463Y0049788D02*
X0059063Y0049788D01*
X0059063Y0051386D02*
X0058463Y0051386D01*
X0058283Y0052985D02*
X0059063Y0052985D01*
X0060593Y0054583D02*
X0056684Y0054583D01*
X0049843Y0052985D02*
X0045136Y0052985D01*
X0043686Y0051386D02*
X0049663Y0051386D01*
X0049663Y0049788D02*
X0030818Y0049788D01*
X0030747Y0049759D02*
X0031630Y0050124D01*
X0032305Y0050799D01*
X0032670Y0051681D01*
X0032670Y0059636D01*
X0032305Y0060518D01*
X0031630Y0061193D01*
X0030747Y0061559D01*
X0022793Y0061559D01*
X0021911Y0061193D01*
X0021235Y0060518D01*
X0020870Y0059636D01*
X0020870Y0051681D01*
X0021235Y0050799D01*
X0021911Y0050124D01*
X0022793Y0049759D01*
X0030747Y0049759D01*
X0032548Y0051386D02*
X0037413Y0051386D01*
X0037097Y0051616D02*
X0037772Y0051126D01*
X0038515Y0050747D01*
X0039309Y0050489D01*
X0040132Y0050359D01*
X0040464Y0050359D01*
X0040464Y0055573D01*
X0035250Y0055573D01*
X0035250Y0055242D01*
X0035380Y0054418D01*
X0035638Y0053624D01*
X0036017Y0052881D01*
X0036507Y0052206D01*
X0037097Y0051616D01*
X0035964Y0052985D02*
X0032670Y0052985D01*
X0032670Y0054583D02*
X0035354Y0054583D01*
X0035266Y0056182D02*
X0032670Y0056182D01*
X0032670Y0057780D02*
X0035682Y0057780D01*
X0036774Y0059379D02*
X0032670Y0059379D01*
X0031845Y0060977D02*
X0078015Y0060977D01*
X0076417Y0059379D02*
X0044325Y0059379D01*
X0045417Y0057780D02*
X0074818Y0057780D01*
X0079614Y0062576D02*
X0019581Y0062576D01*
X0019581Y0064174D02*
X0063918Y0064174D01*
X0063691Y0064402D02*
X0064366Y0063726D01*
X0065248Y0063361D01*
X0073203Y0063361D01*
X0074085Y0063726D01*
X0074760Y0064402D01*
X0075125Y0065284D01*
X0075125Y0073238D01*
X0074760Y0074121D01*
X0074085Y0074796D01*
X0073203Y0075161D01*
X0065248Y0075161D01*
X0064366Y0074796D01*
X0063691Y0074121D01*
X0063325Y0073238D01*
X0063325Y0065284D01*
X0063691Y0064402D01*
X0063325Y0065773D02*
X0019581Y0065773D01*
X0019581Y0067371D02*
X0063325Y0067371D01*
X0063325Y0068970D02*
X0019581Y0068970D01*
X0019581Y0070568D02*
X0045291Y0070568D01*
X0045398Y0070544D02*
X0046326Y0070440D01*
X0046326Y0079915D01*
X0036851Y0079915D01*
X0036956Y0078987D01*
X0037213Y0077859D01*
X0037595Y0076767D01*
X0038097Y0075724D01*
X0038712Y0074745D01*
X0039434Y0073840D01*
X0040252Y0073022D01*
X0041156Y0072301D01*
X0042136Y0071686D01*
X0043178Y0071184D01*
X0044270Y0070802D01*
X0045398Y0070544D01*
X0046326Y0070568D02*
X0047926Y0070568D01*
X0047926Y0070440D02*
X0048854Y0070544D01*
X0049982Y0070802D01*
X0051074Y0071184D01*
X0052116Y0071686D01*
X0053096Y0072301D01*
X0054000Y0073022D01*
X0054818Y0073840D01*
X0055539Y0074745D01*
X0056155Y0075724D01*
X0056657Y0076767D01*
X0057039Y0077859D01*
X0057296Y0078987D01*
X0057401Y0079915D01*
X0047926Y0079915D01*
X0047926Y0081515D01*
X0046326Y0081515D01*
X0046326Y0090990D01*
X0045398Y0090885D01*
X0044270Y0090628D01*
X0043178Y0090246D01*
X0042136Y0089744D01*
X0041156Y0089128D01*
X0040252Y0088407D01*
X0039434Y0087589D01*
X0038712Y0086684D01*
X0038097Y0085705D01*
X0037595Y0084662D01*
X0037213Y0083570D01*
X0036956Y0082443D01*
X0036851Y0081515D01*
X0046326Y0081515D01*
X0046326Y0079915D01*
X0047926Y0079915D01*
X0047926Y0070440D01*
X0048961Y0070568D02*
X0063325Y0070568D01*
X0063325Y0072167D02*
X0052882Y0072167D01*
X0054743Y0073765D02*
X0063544Y0073765D01*
X0056725Y0076962D02*
X0087281Y0076962D01*
X0087281Y0075364D02*
X0055928Y0075364D01*
X0057199Y0078561D02*
X0087281Y0078561D01*
X0087281Y0080159D02*
X0047926Y0080159D01*
X0047926Y0081515D02*
X0057401Y0081515D01*
X0057296Y0082443D01*
X0057039Y0083570D01*
X0056657Y0084662D01*
X0056155Y0085705D01*
X0055539Y0086684D01*
X0054818Y0087589D01*
X0054000Y0088407D01*
X0053096Y0089128D01*
X0052116Y0089744D01*
X0051074Y0090246D01*
X0049982Y0090628D01*
X0048854Y0090885D01*
X0047926Y0090990D01*
X0047926Y0081515D01*
X0047926Y0081758D02*
X0046326Y0081758D01*
X0046326Y0083356D02*
X0047926Y0083356D01*
X0047926Y0084955D02*
X0046326Y0084955D01*
X0046326Y0086554D02*
X0047926Y0086554D01*
X0047926Y0088152D02*
X0046326Y0088152D01*
X0046326Y0089751D02*
X0047926Y0089751D01*
X0049971Y0092948D02*
X0043488Y0092948D01*
X0043728Y0093249D02*
X0044344Y0094228D01*
X0044846Y0095271D01*
X0045228Y0096363D01*
X0045485Y0097490D01*
X0045590Y0098419D01*
X0036115Y0098419D01*
X0036115Y0100018D01*
X0045590Y0100018D01*
X0045485Y0100947D01*
X0045228Y0102074D01*
X0044846Y0103166D01*
X0044344Y0104209D01*
X0043728Y0105188D01*
X0043007Y0106093D01*
X0042189Y0106911D01*
X0041285Y0107632D01*
X0040305Y0108248D01*
X0039263Y0108749D01*
X0038171Y0109132D01*
X0037043Y0109389D01*
X0036115Y0109494D01*
X0036115Y0100019D01*
X0034515Y0100019D01*
X0034515Y0109494D01*
X0033587Y0109389D01*
X0032459Y0109132D01*
X0031367Y0108749D01*
X0030325Y0108248D01*
X0029345Y0107632D01*
X0028441Y0106911D01*
X0027623Y0106093D01*
X0026901Y0105188D01*
X0026286Y0104209D01*
X0025784Y0103166D01*
X0025402Y0102074D01*
X0025144Y0100947D01*
X0025040Y0100018D01*
X0034515Y0100018D01*
X0034515Y0098419D01*
X0025040Y0098419D01*
X0025144Y0097490D01*
X0025402Y0096363D01*
X0025784Y0095271D01*
X0026286Y0094228D01*
X0026901Y0093249D01*
X0027623Y0092344D01*
X0028441Y0091526D01*
X0029345Y0090805D01*
X0030325Y0090189D01*
X0031367Y0089688D01*
X0032459Y0089305D01*
X0033587Y0089048D01*
X0034515Y0088943D01*
X0034515Y0098418D01*
X0036115Y0098418D01*
X0036115Y0088943D01*
X0037043Y0089048D01*
X0038171Y0089305D01*
X0039263Y0089688D01*
X0040305Y0090189D01*
X0041285Y0090805D01*
X0042189Y0091526D01*
X0043007Y0092344D01*
X0043728Y0093249D01*
X0044497Y0094546D02*
X0049048Y0094546D01*
X0048476Y0096145D02*
X0045152Y0096145D01*
X0045514Y0097743D02*
X0048048Y0097743D01*
X0048037Y0099342D02*
X0036115Y0099342D01*
X0036115Y0100940D02*
X0034515Y0100940D01*
X0034515Y0099342D02*
X0019581Y0099342D01*
X0019581Y0100940D02*
X0025144Y0100940D01*
X0025564Y0102539D02*
X0019581Y0102539D01*
X0019581Y0104137D02*
X0026252Y0104137D01*
X0027338Y0105736D02*
X0019581Y0105736D01*
X0019581Y0107334D02*
X0028972Y0107334D01*
X0031891Y0108933D02*
X0019581Y0108933D01*
X0019581Y0110531D02*
X0049525Y0110531D01*
X0049037Y0108933D02*
X0038739Y0108933D01*
X0036115Y0108933D02*
X0034515Y0108933D01*
X0034515Y0107334D02*
X0036115Y0107334D01*
X0036115Y0105736D02*
X0034515Y0105736D01*
X0034515Y0104137D02*
X0036115Y0104137D01*
X0036115Y0102539D02*
X0034515Y0102539D01*
X0034515Y0097743D02*
X0036115Y0097743D01*
X0036115Y0096145D02*
X0034515Y0096145D01*
X0034515Y0094546D02*
X0036115Y0094546D01*
X0036115Y0092948D02*
X0034515Y0092948D01*
X0034515Y0091349D02*
X0036115Y0091349D01*
X0036115Y0089751D02*
X0034515Y0089751D01*
X0031236Y0089751D02*
X0019581Y0089751D01*
X0019581Y0091349D02*
X0028663Y0091349D01*
X0027142Y0092948D02*
X0019581Y0092948D01*
X0019581Y0094546D02*
X0026133Y0094546D01*
X0025478Y0096145D02*
X0019581Y0096145D01*
X0019581Y0097743D02*
X0025116Y0097743D01*
X0019581Y0088152D02*
X0039997Y0088152D01*
X0039394Y0089751D02*
X0042150Y0089751D01*
X0041967Y0091349D02*
X0051392Y0091349D01*
X0052102Y0089751D02*
X0053536Y0089751D01*
X0054255Y0088152D02*
X0094190Y0088152D01*
X0095788Y0089751D02*
X0064338Y0089751D01*
X0066482Y0091349D02*
X0097281Y0091349D01*
X0097281Y0092948D02*
X0067903Y0092948D01*
X0068826Y0094546D02*
X0097281Y0094546D01*
X0096149Y0096145D02*
X0069398Y0096145D01*
X0069826Y0097743D02*
X0094551Y0097743D01*
X0092952Y0099342D02*
X0069837Y0099342D01*
X0069760Y0100940D02*
X0091353Y0100940D01*
X0089755Y0102539D02*
X0069332Y0102539D01*
X0069691Y0104137D02*
X0088156Y0104137D01*
X0086558Y0105736D02*
X0071290Y0105736D01*
X0072888Y0107334D02*
X0084959Y0107334D01*
X0083361Y0108933D02*
X0074487Y0108933D01*
X0076085Y0110531D02*
X0079421Y0110531D01*
X0087998Y0115327D02*
X0091803Y0115327D01*
X0091803Y0116925D02*
X0086399Y0116925D01*
X0084361Y0118524D02*
X0091803Y0118524D01*
X0092244Y0120122D02*
X0085676Y0120122D01*
X0087275Y0121721D02*
X0093390Y0121721D01*
X0088698Y0123319D02*
X0101771Y0123319D01*
X0103370Y0124918D02*
X0089360Y0124918D01*
X0090022Y0126516D02*
X0104968Y0126516D01*
X0106567Y0128115D02*
X0090081Y0128115D01*
X0090081Y0129713D02*
X0108165Y0129713D01*
X0109764Y0131312D02*
X0090081Y0131312D01*
X0090081Y0132910D02*
X0111362Y0132910D01*
X0112961Y0134509D02*
X0090081Y0134509D01*
X0090081Y0136107D02*
X0114559Y0136107D01*
X0116158Y0137706D02*
X0090081Y0137706D01*
X0090081Y0139304D02*
X0094215Y0139304D01*
X0093937Y0139506D02*
X0094497Y0139099D01*
X0095114Y0138785D01*
X0095773Y0138571D01*
X0096457Y0138463D01*
X0096803Y0138463D01*
X0096803Y0145462D01*
X0096803Y0145462D01*
X0096803Y0138463D01*
X0097149Y0138463D01*
X0097833Y0138571D01*
X0098492Y0138785D01*
X0099109Y0139099D01*
X0099670Y0139506D01*
X0100159Y0139996D01*
X0100566Y0140556D01*
X0100881Y0141174D01*
X0101095Y0141832D01*
X0101203Y0142516D01*
X0101203Y0145463D01*
X0101203Y0148409D01*
X0101095Y0149093D01*
X0100881Y0149752D01*
X0100566Y0150369D01*
X0100159Y0150929D01*
X0099670Y0151419D01*
X0099109Y0151826D01*
X0098492Y0152140D01*
X0097833Y0152354D01*
X0097149Y0152463D01*
X0096803Y0152463D01*
X0096457Y0152463D01*
X0095773Y0152354D01*
X0095114Y0152140D01*
X0094497Y0151826D01*
X0093937Y0151419D01*
X0093447Y0150929D01*
X0093040Y0150369D01*
X0092726Y0149752D01*
X0092511Y0149093D01*
X0092403Y0148409D01*
X0092403Y0145463D01*
X0096803Y0145463D01*
X0096803Y0152463D01*
X0096803Y0145463D01*
X0096803Y0145463D01*
X0096803Y0145463D01*
X0101203Y0145463D01*
X0096803Y0145463D01*
X0096803Y0145463D01*
X0092403Y0145463D01*
X0092403Y0142516D01*
X0092511Y0141832D01*
X0092726Y0141174D01*
X0093040Y0140556D01*
X0093447Y0139996D01*
X0093937Y0139506D01*
X0092863Y0140903D02*
X0090081Y0140903D01*
X0090081Y0142501D02*
X0092405Y0142501D01*
X0092403Y0144100D02*
X0090081Y0144100D01*
X0090081Y0145698D02*
X0092403Y0145698D01*
X0092403Y0147297D02*
X0090081Y0147297D01*
X0090081Y0148895D02*
X0092480Y0148895D01*
X0093131Y0150494D02*
X0090081Y0150494D01*
X0090081Y0152092D02*
X0095020Y0152092D01*
X0096803Y0152092D02*
X0096803Y0152092D01*
X0096803Y0150494D02*
X0096803Y0150494D01*
X0096803Y0148895D02*
X0096803Y0148895D01*
X0096803Y0147297D02*
X0096803Y0147297D01*
X0096803Y0145698D02*
X0096803Y0145698D01*
X0096803Y0144100D02*
X0096803Y0144100D01*
X0096803Y0142501D02*
X0096803Y0142501D01*
X0096803Y0140903D02*
X0096803Y0140903D01*
X0096803Y0139304D02*
X0096803Y0139304D01*
X0099391Y0139304D02*
X0103290Y0139304D01*
X0102203Y0140903D02*
X0100743Y0140903D01*
X0101201Y0142501D02*
X0101803Y0142501D01*
X0101803Y0144100D02*
X0101203Y0144100D01*
X0101203Y0145698D02*
X0101803Y0145698D01*
X0101803Y0147297D02*
X0101203Y0147297D01*
X0101126Y0148895D02*
X0101803Y0148895D01*
X0102398Y0150494D02*
X0100475Y0150494D01*
X0098586Y0152092D02*
X0103762Y0152092D01*
X0109844Y0152092D02*
X0113762Y0152092D01*
X0112398Y0150494D02*
X0111208Y0150494D01*
X0111803Y0148895D02*
X0111803Y0148895D01*
X0111803Y0147297D02*
X0111803Y0147297D01*
X0111803Y0145698D02*
X0111803Y0145698D01*
X0111803Y0144100D02*
X0111803Y0144100D01*
X0111803Y0142501D02*
X0111803Y0142501D01*
X0111403Y0140903D02*
X0112203Y0140903D01*
X0113290Y0139304D02*
X0110316Y0139304D01*
X0117966Y0131312D02*
X0119764Y0131312D01*
X0119565Y0132910D02*
X0121362Y0132910D01*
X0121163Y0134509D02*
X0122961Y0134509D01*
X0122382Y0135728D02*
X0124180Y0135728D01*
X0110194Y0121742D01*
X0109635Y0122301D01*
X0109155Y0122500D01*
X0122382Y0135728D01*
X0121944Y0141528D02*
X0121662Y0141528D01*
X0121803Y0141868D01*
X0121803Y0149057D01*
X0121803Y0141868D01*
X0121944Y0141528D01*
X0121803Y0142501D02*
X0121803Y0142501D01*
X0121803Y0144100D02*
X0121803Y0144100D01*
X0121803Y0145698D02*
X0121803Y0145698D01*
X0121803Y0147297D02*
X0121803Y0147297D01*
X0121803Y0148895D02*
X0121803Y0148895D01*
X0121208Y0150494D02*
X0122398Y0150494D01*
X0123762Y0152092D02*
X0119844Y0152092D01*
X0129844Y0152092D02*
X0138019Y0152092D01*
X0138281Y0153691D02*
X0090081Y0153691D01*
X0089892Y0155290D02*
X0138281Y0155290D01*
X0138281Y0156888D02*
X0089230Y0156888D01*
X0088559Y0158487D02*
X0138281Y0158487D01*
X0138281Y0160085D02*
X0086961Y0160085D01*
X0085362Y0161684D02*
X0138281Y0161684D01*
X0138281Y0163282D02*
X0108094Y0163282D01*
X0106365Y0163282D02*
X0105997Y0163282D01*
X0105997Y0164881D02*
X0106365Y0164881D01*
X0106365Y0166479D02*
X0105997Y0166479D01*
X0105997Y0168078D02*
X0106365Y0168078D01*
X0106365Y0169676D02*
X0105997Y0169676D01*
X0101551Y0166479D02*
X0101503Y0166479D01*
X0100841Y0164881D02*
X0102306Y0164881D01*
X0104269Y0163282D02*
X0099396Y0163282D01*
X0092966Y0163282D02*
X0083764Y0163282D01*
X0082018Y0164881D02*
X0091521Y0164881D01*
X0090859Y0166479D02*
X0066381Y0166479D01*
X0067979Y0164881D02*
X0071304Y0164881D01*
X0064782Y0168078D02*
X0090813Y0168078D01*
X0090813Y0169676D02*
X0063184Y0169676D01*
X0061585Y0171275D02*
X0090813Y0171275D01*
X0090813Y0172873D02*
X0059987Y0172873D01*
X0059581Y0174472D02*
X0090813Y0174472D01*
X0091395Y0176070D02*
X0069265Y0176070D01*
X0069064Y0175924D02*
X0069764Y0176433D01*
X0070376Y0177045D01*
X0070885Y0177745D01*
X0071278Y0178517D01*
X0071546Y0179340D01*
X0071681Y0180195D01*
X0071681Y0180542D01*
X0066267Y0180542D01*
X0066267Y0175128D01*
X0066614Y0175128D01*
X0067469Y0175263D01*
X0068292Y0175531D01*
X0069064Y0175924D01*
X0070829Y0177669D02*
X0092661Y0177669D01*
X0099701Y0177669D02*
X0103673Y0177669D01*
X0103441Y0179267D02*
X0071522Y0179267D01*
X0071681Y0180714D02*
X0066267Y0180714D01*
X0066095Y0180714D01*
X0066095Y0180542D01*
X0060681Y0180542D01*
X0060681Y0180195D01*
X0060817Y0179340D01*
X0061084Y0178517D01*
X0061477Y0177745D01*
X0061986Y0177045D01*
X0062598Y0176433D01*
X0063298Y0175924D01*
X0064070Y0175531D01*
X0064893Y0175263D01*
X0065748Y0175128D01*
X0066095Y0175128D01*
X0066095Y0180542D01*
X0066267Y0180542D01*
X0066267Y0180714D01*
X0066267Y0186128D01*
X0066614Y0186128D01*
X0067469Y0185993D01*
X0068292Y0185725D01*
X0069064Y0185332D01*
X0069764Y0184823D01*
X0070376Y0184211D01*
X0070885Y0183511D01*
X0071278Y0182739D01*
X0071546Y0181916D01*
X0071681Y0181061D01*
X0071681Y0180714D01*
X0071681Y0180866D02*
X0101842Y0180866D01*
X0100244Y0182464D02*
X0071367Y0182464D01*
X0070484Y0184063D02*
X0098645Y0184063D01*
X0097047Y0185661D02*
X0068418Y0185661D01*
X0066267Y0185661D02*
X0066095Y0185661D01*
X0066095Y0186128D02*
X0065748Y0186128D01*
X0064893Y0185993D01*
X0064070Y0185725D01*
X0063298Y0185332D01*
X0062598Y0184823D01*
X0061986Y0184211D01*
X0061477Y0183511D01*
X0061084Y0182739D01*
X0060817Y0181916D01*
X0060681Y0181061D01*
X0060681Y0180714D01*
X0066095Y0180714D01*
X0066095Y0186128D01*
X0066095Y0184063D02*
X0066267Y0184063D01*
X0066267Y0182464D02*
X0066095Y0182464D01*
X0066095Y0180866D02*
X0066267Y0180866D01*
X0066267Y0179267D02*
X0066095Y0179267D01*
X0066095Y0177669D02*
X0066267Y0177669D01*
X0066267Y0176070D02*
X0066095Y0176070D01*
X0063097Y0176070D02*
X0059581Y0176070D01*
X0059581Y0177669D02*
X0061533Y0177669D01*
X0060840Y0179267D02*
X0059581Y0179267D01*
X0059214Y0180866D02*
X0060681Y0180866D01*
X0060995Y0182464D02*
X0058475Y0182464D01*
X0056876Y0184063D02*
X0061878Y0184063D01*
X0063945Y0185661D02*
X0055278Y0185661D01*
X0053679Y0187260D02*
X0095448Y0187260D01*
X0093850Y0188858D02*
X0052081Y0188858D01*
X0050482Y0190457D02*
X0092251Y0190457D01*
X0090653Y0192055D02*
X0048883Y0192055D01*
X0047285Y0193654D02*
X0089054Y0193654D01*
X0087456Y0195252D02*
X0046875Y0195252D01*
X0046374Y0196851D02*
X0079887Y0196851D01*
X0078289Y0198449D02*
X0045343Y0198449D01*
X0042949Y0200048D02*
X0077181Y0200048D01*
X0077181Y0201646D02*
X0019581Y0201646D01*
X0019581Y0200048D02*
X0031901Y0200048D01*
X0029508Y0198449D02*
X0019581Y0198449D01*
X0019581Y0196851D02*
X0028476Y0196851D01*
X0027975Y0195252D02*
X0019581Y0195252D01*
X0019581Y0193654D02*
X0027975Y0193654D01*
X0028484Y0192055D02*
X0019581Y0192055D01*
X0019581Y0190457D02*
X0029527Y0190457D01*
X0031948Y0188858D02*
X0019581Y0188858D01*
X0019581Y0187260D02*
X0035577Y0187260D01*
X0037176Y0185661D02*
X0019581Y0185661D01*
X0019581Y0184063D02*
X0038774Y0184063D01*
X0040373Y0182464D02*
X0019581Y0182464D01*
X0019581Y0180866D02*
X0041971Y0180866D01*
X0037800Y0179267D02*
X0037050Y0179267D01*
X0037050Y0177669D02*
X0037800Y0177669D01*
X0037800Y0176070D02*
X0037050Y0176070D01*
X0037050Y0174472D02*
X0019581Y0174472D01*
X0019581Y0176070D02*
X0028721Y0176070D01*
X0029419Y0177669D02*
X0019581Y0177669D01*
X0019581Y0179267D02*
X0031020Y0179267D01*
X0028920Y0172873D02*
X0019581Y0172873D01*
X0019581Y0171275D02*
X0029872Y0171275D01*
X0032369Y0169676D02*
X0019581Y0169676D01*
X0019581Y0168078D02*
X0047310Y0168078D01*
X0046781Y0169676D02*
X0042482Y0169676D01*
X0044978Y0171275D02*
X0046781Y0171275D01*
X0046781Y0172873D02*
X0045930Y0172873D01*
X0046781Y0174472D02*
X0037800Y0174472D01*
X0037800Y0172873D02*
X0037050Y0172873D01*
X0037050Y0171275D02*
X0037800Y0171275D01*
X0037800Y0169676D02*
X0037050Y0169676D01*
X0046129Y0176070D02*
X0046767Y0176070D01*
X0048279Y0166479D02*
X0019581Y0166479D01*
X0019581Y0164881D02*
X0049877Y0164881D01*
X0051476Y0163282D02*
X0019581Y0163282D01*
X0019581Y0161684D02*
X0053075Y0161684D01*
X0054673Y0160085D02*
X0019581Y0160085D01*
X0019581Y0158487D02*
X0056272Y0158487D01*
X0057870Y0156888D02*
X0054607Y0156888D01*
X0056807Y0155290D02*
X0059469Y0155290D01*
X0058405Y0153691D02*
X0061067Y0153691D01*
X0060004Y0152092D02*
X0062666Y0152092D01*
X0061602Y0150494D02*
X0064921Y0150494D01*
X0063201Y0148895D02*
X0070149Y0148895D01*
X0070281Y0147297D02*
X0064799Y0147297D01*
X0066398Y0145698D02*
X0070281Y0145698D01*
X0070281Y0144100D02*
X0067996Y0144100D01*
X0069595Y0142501D02*
X0070281Y0142501D01*
X0059485Y0134509D02*
X0044845Y0134509D01*
X0044618Y0134821D02*
X0044025Y0135414D01*
X0043347Y0135907D01*
X0042601Y0136287D01*
X0041803Y0136546D01*
X0040976Y0136677D01*
X0037406Y0136677D01*
X0037406Y0131727D01*
X0036656Y0131727D01*
X0036656Y0130977D01*
X0028181Y0130977D01*
X0028181Y0130933D01*
X0028313Y0130105D01*
X0028572Y0129308D01*
X0028952Y0128561D01*
X0029445Y0127883D01*
X0030037Y0127291D01*
X0030716Y0126798D01*
X0031462Y0126417D01*
X0032260Y0126158D01*
X0033087Y0126027D01*
X0036656Y0126027D01*
X0036656Y0130977D01*
X0037406Y0130977D01*
X0037406Y0126027D01*
X0040976Y0126027D01*
X0041803Y0126158D01*
X0042601Y0126417D01*
X0043347Y0126798D01*
X0044025Y0127291D01*
X0044618Y0127883D01*
X0045111Y0128561D01*
X0045491Y0129308D01*
X0045750Y0130105D01*
X0045881Y0130933D01*
X0045881Y0130977D01*
X0037407Y0130977D01*
X0037407Y0131727D01*
X0045881Y0131727D01*
X0045881Y0131771D01*
X0045750Y0132599D01*
X0045491Y0133396D01*
X0045111Y0134143D01*
X0044618Y0134821D01*
X0042954Y0136107D02*
X0057887Y0136107D01*
X0056288Y0137706D02*
X0019581Y0137706D01*
X0019581Y0139304D02*
X0054690Y0139304D01*
X0053091Y0140903D02*
X0019581Y0140903D01*
X0019581Y0142501D02*
X0051493Y0142501D01*
X0049894Y0144100D02*
X0019581Y0144100D01*
X0019581Y0145698D02*
X0030913Y0145698D01*
X0028868Y0147297D02*
X0019581Y0147297D01*
X0019581Y0148895D02*
X0027981Y0148895D01*
X0027581Y0150494D02*
X0019581Y0150494D01*
X0019581Y0152092D02*
X0027581Y0152092D01*
X0028192Y0153691D02*
X0019581Y0153691D01*
X0019581Y0155290D02*
X0029379Y0155290D01*
X0032148Y0156888D02*
X0019581Y0156888D01*
X0019581Y0136107D02*
X0031109Y0136107D01*
X0031462Y0136287D02*
X0030716Y0135907D01*
X0030037Y0135414D01*
X0029445Y0134821D01*
X0028952Y0134143D01*
X0028572Y0133396D01*
X0028313Y0132599D01*
X0028181Y0131771D01*
X0028181Y0131727D01*
X0036656Y0131727D01*
X0036656Y0136677D01*
X0033087Y0136677D01*
X0032260Y0136546D01*
X0031462Y0136287D01*
X0029218Y0134509D02*
X0019581Y0134509D01*
X0019581Y0132910D02*
X0028414Y0132910D01*
X0028440Y0129713D02*
X0019581Y0129713D01*
X0019581Y0128115D02*
X0029277Y0128115D01*
X0031268Y0126516D02*
X0019581Y0126516D01*
X0019581Y0124918D02*
X0062470Y0124918D01*
X0060872Y0123319D02*
X0019581Y0123319D01*
X0019581Y0121721D02*
X0059273Y0121721D01*
X0057675Y0120122D02*
X0019581Y0120122D01*
X0019581Y0118524D02*
X0056076Y0118524D01*
X0054478Y0116925D02*
X0019581Y0116925D01*
X0019581Y0115327D02*
X0052879Y0115327D01*
X0051281Y0113728D02*
X0019581Y0113728D01*
X0019581Y0112130D02*
X0050187Y0112130D01*
X0049037Y0107334D02*
X0041658Y0107334D01*
X0043292Y0105736D02*
X0049037Y0105736D01*
X0049037Y0104137D02*
X0044378Y0104137D01*
X0045066Y0102539D02*
X0048542Y0102539D01*
X0048114Y0100940D02*
X0045486Y0100940D01*
X0038630Y0086554D02*
X0019581Y0086554D01*
X0019581Y0084955D02*
X0037736Y0084955D01*
X0037164Y0083356D02*
X0019581Y0083356D01*
X0019581Y0081758D02*
X0036878Y0081758D01*
X0037053Y0078561D02*
X0019581Y0078561D01*
X0019581Y0080159D02*
X0046326Y0080159D01*
X0046326Y0078561D02*
X0047926Y0078561D01*
X0047926Y0076962D02*
X0046326Y0076962D01*
X0046326Y0075364D02*
X0047926Y0075364D01*
X0047926Y0073765D02*
X0046326Y0073765D01*
X0046326Y0072167D02*
X0047926Y0072167D01*
X0041370Y0072167D02*
X0019581Y0072167D01*
X0019581Y0073765D02*
X0039509Y0073765D01*
X0038323Y0075364D02*
X0019581Y0075364D01*
X0019581Y0076962D02*
X0037527Y0076962D01*
X0057374Y0081758D02*
X0087842Y0081758D01*
X0089394Y0083356D02*
X0057088Y0083356D01*
X0056516Y0084955D02*
X0090993Y0084955D01*
X0092591Y0086554D02*
X0055622Y0086554D01*
X0074907Y0073765D02*
X0080188Y0073765D01*
X0078565Y0072167D02*
X0075125Y0072167D01*
X0075125Y0070568D02*
X0077857Y0070568D01*
X0077705Y0068970D02*
X0075125Y0068970D01*
X0075125Y0067371D02*
X0078046Y0067371D01*
X0078998Y0065773D02*
X0075125Y0065773D01*
X0074533Y0064174D02*
X0081212Y0064174D01*
X0082919Y0070568D02*
X0083091Y0070568D01*
X0083091Y0072167D02*
X0082919Y0072167D01*
X0082919Y0073765D02*
X0083091Y0073765D01*
X0085822Y0073765D02*
X0087281Y0073765D01*
X0095081Y0072167D02*
X0095514Y0072167D01*
X0104303Y0072167D02*
X0121114Y0072167D01*
X0118541Y0073765D02*
X0106877Y0073765D01*
X0106222Y0081758D02*
X0119196Y0081758D01*
X0114684Y0086554D02*
X0127525Y0086554D01*
X0125632Y0088152D02*
X0115906Y0088152D01*
X0116568Y0089751D02*
X0124779Y0089751D01*
X0124377Y0091349D02*
X0116568Y0091349D01*
X0116250Y0092948D02*
X0124377Y0092948D01*
X0124957Y0094546D02*
X0115514Y0094546D01*
X0114275Y0096145D02*
X0126062Y0096145D01*
X0126041Y0097743D02*
X0115737Y0097743D01*
X0116399Y0099342D02*
X0124948Y0099342D01*
X0124377Y0100940D02*
X0116568Y0100940D01*
X0116419Y0102539D02*
X0124377Y0102539D01*
X0124787Y0104137D02*
X0115757Y0104137D01*
X0114324Y0105736D02*
X0125653Y0105736D01*
X0127576Y0107334D02*
X0095990Y0107334D01*
X0097589Y0105736D02*
X0106612Y0105736D01*
X0105180Y0104137D02*
X0099187Y0104137D01*
X0100786Y0102539D02*
X0104518Y0102539D01*
X0104369Y0100940D02*
X0102384Y0100940D01*
X0103983Y0099342D02*
X0104538Y0099342D01*
X0104941Y0097743D02*
X0105200Y0097743D01*
X0105081Y0096145D02*
X0106662Y0096145D01*
X0105423Y0094546D02*
X0105081Y0094546D01*
X0106253Y0086554D02*
X0103622Y0086554D01*
X0103662Y0108933D02*
X0099944Y0108933D01*
X0101249Y0110531D02*
X0102357Y0110531D01*
X0101803Y0112130D02*
X0101803Y0112130D01*
X0101803Y0113728D02*
X0101803Y0113728D01*
X0101803Y0115149D02*
X0101803Y0115149D01*
X0111803Y0115149D02*
X0111803Y0115149D01*
X0111803Y0113728D02*
X0111803Y0113728D01*
X0111803Y0112130D02*
X0111803Y0112130D01*
X0111249Y0110531D02*
X0112357Y0110531D01*
X0113662Y0108933D02*
X0109944Y0108933D01*
X0119944Y0108933D02*
X0123662Y0108933D01*
X0122357Y0110531D02*
X0121249Y0110531D01*
X0121803Y0112130D02*
X0121803Y0112130D01*
X0121803Y0113728D02*
X0121803Y0113728D01*
X0121803Y0115327D02*
X0121803Y0115327D01*
X0121803Y0116925D02*
X0121803Y0116925D01*
X0121803Y0118524D02*
X0121803Y0118524D01*
X0121803Y0119057D02*
X0122564Y0120895D01*
X0123971Y0122301D01*
X0125809Y0123063D01*
X0127798Y0123063D01*
X0129635Y0122301D01*
X0131042Y0120895D01*
X0131608Y0119528D01*
X0138528Y0119528D01*
X0138528Y0119723D01*
X0140006Y0121201D01*
X0137538Y0123669D01*
X0136723Y0124485D01*
X0136281Y0125551D01*
X0136281Y0129705D01*
X0136723Y0130771D01*
X0139680Y0133728D01*
X0130382Y0133728D01*
X0119155Y0122500D01*
X0119635Y0122301D01*
X0121042Y0120895D01*
X0121803Y0119057D01*
X0121362Y0120122D02*
X0122244Y0120122D01*
X0123390Y0121721D02*
X0120216Y0121721D01*
X0119974Y0123319D02*
X0137889Y0123319D01*
X0136543Y0124918D02*
X0121572Y0124918D01*
X0123171Y0126516D02*
X0136281Y0126516D01*
X0136281Y0128115D02*
X0124769Y0128115D01*
X0126368Y0129713D02*
X0136285Y0129713D01*
X0137264Y0131312D02*
X0127966Y0131312D01*
X0129565Y0132910D02*
X0138862Y0132910D01*
X0143528Y0127652D02*
X0147928Y0127652D01*
X0143528Y0127652D01*
X0143528Y0127652D01*
X0147928Y0128115D02*
X0187067Y0128115D01*
X0188665Y0129713D02*
X0147688Y0129713D01*
X0147928Y0126516D02*
X0185468Y0126516D01*
X0183870Y0124918D02*
X0147016Y0124918D01*
X0148091Y0123319D02*
X0182271Y0123319D01*
X0180673Y0121721D02*
X0149689Y0121721D01*
X0150581Y0120122D02*
X0179074Y0120122D01*
X0177476Y0118524D02*
X0150581Y0118524D01*
X0150581Y0116925D02*
X0175877Y0116925D01*
X0174279Y0115327D02*
X0150581Y0115327D01*
X0144781Y0112130D02*
X0142927Y0112130D01*
X0144781Y0110531D02*
X0140581Y0110531D01*
X0140581Y0108933D02*
X0145037Y0108933D01*
X0146374Y0107334D02*
X0140581Y0107334D01*
X0140581Y0105736D02*
X0147972Y0105736D01*
X0148336Y0096145D02*
X0152027Y0096145D01*
X0150729Y0094546D02*
X0149633Y0094546D01*
X0150181Y0093223D02*
X0150181Y0086033D01*
X0149420Y0084196D01*
X0149252Y0084028D01*
X0151110Y0084028D01*
X0150942Y0084196D01*
X0150181Y0086033D01*
X0150181Y0093223D01*
X0150181Y0092948D02*
X0150181Y0092948D01*
X0150181Y0091349D02*
X0150181Y0091349D01*
X0150181Y0089751D02*
X0150181Y0089751D01*
X0150181Y0088152D02*
X0150181Y0088152D01*
X0150181Y0086554D02*
X0150181Y0086554D01*
X0149734Y0084955D02*
X0150628Y0084955D01*
X0159252Y0084028D02*
X0159420Y0084196D01*
X0160181Y0086033D01*
X0160181Y0093223D01*
X0160181Y0086033D01*
X0160942Y0084196D01*
X0161110Y0084028D01*
X0159252Y0084028D01*
X0159734Y0084955D02*
X0160628Y0084955D01*
X0160181Y0086554D02*
X0160181Y0086554D01*
X0160181Y0088152D02*
X0160181Y0088152D01*
X0160181Y0089751D02*
X0160181Y0089751D01*
X0160181Y0091349D02*
X0160181Y0091349D01*
X0160181Y0092948D02*
X0160181Y0092948D01*
X0160181Y0093223D02*
X0160270Y0093438D01*
X0159966Y0093742D01*
X0160181Y0093223D01*
X0164503Y0104137D02*
X0165045Y0104137D01*
X0173317Y0104137D02*
X0175045Y0104137D01*
X0180420Y0102539D02*
X0183669Y0102539D01*
X0184181Y0112255D02*
X0182636Y0113799D01*
X0181447Y0114292D01*
X0192382Y0125228D01*
X0196655Y0125228D01*
X0196081Y0123841D01*
X0196081Y0121415D01*
X0197010Y0119173D01*
X0198726Y0117457D01*
X0200968Y0116528D01*
X0203394Y0116528D01*
X0204894Y0117149D01*
X0199773Y0112028D01*
X0194375Y0112028D01*
X0194352Y0112083D01*
X0192636Y0113799D01*
X0190394Y0114728D01*
X0187968Y0114728D01*
X0185726Y0113799D01*
X0184181Y0112255D01*
X0182708Y0113728D02*
X0185655Y0113728D01*
X0182481Y0115327D02*
X0203072Y0115327D01*
X0204354Y0116925D02*
X0204670Y0116925D01*
X0200009Y0116925D02*
X0184080Y0116925D01*
X0185678Y0118524D02*
X0197659Y0118524D01*
X0196616Y0120122D02*
X0187277Y0120122D01*
X0188875Y0121721D02*
X0196081Y0121721D01*
X0196081Y0123319D02*
X0190474Y0123319D01*
X0192072Y0124918D02*
X0196527Y0124918D01*
X0192708Y0113728D02*
X0201473Y0113728D01*
X0199875Y0112130D02*
X0194306Y0112130D01*
X0198336Y0096145D02*
X0199097Y0096145D01*
X0205181Y0089628D02*
X0205181Y0089628D01*
X0205181Y0082628D01*
X0205527Y0082628D01*
X0206211Y0082736D01*
X0206870Y0082950D01*
X0207487Y0083265D01*
X0208048Y0083672D01*
X0208537Y0084162D01*
X0208944Y0084722D01*
X0209259Y0085339D01*
X0209473Y0085998D01*
X0209581Y0086682D01*
X0209581Y0089628D01*
X0205181Y0089628D01*
X0205181Y0088152D02*
X0205181Y0088152D01*
X0205181Y0086554D02*
X0205181Y0086554D01*
X0205181Y0084955D02*
X0205181Y0084955D01*
X0205181Y0083356D02*
X0205181Y0083356D01*
X0202749Y0083356D02*
X0198581Y0083356D01*
X0199734Y0084955D02*
X0201299Y0084955D01*
X0200801Y0086554D02*
X0200181Y0086554D01*
X0200181Y0088152D02*
X0200781Y0088152D01*
X0207613Y0083356D02*
X0211781Y0083356D01*
X0210628Y0084955D02*
X0209063Y0084955D01*
X0209561Y0086554D02*
X0210181Y0086554D01*
X0210181Y0088152D02*
X0209581Y0088152D01*
X0209581Y0089751D02*
X0210181Y0089751D01*
X0210181Y0091349D02*
X0209581Y0091349D01*
X0209522Y0092948D02*
X0210181Y0092948D01*
X0210729Y0094546D02*
X0208936Y0094546D01*
X0219252Y0095228D02*
X0221110Y0095228D01*
X0220942Y0095060D01*
X0220181Y0093223D01*
X0219420Y0095060D01*
X0219252Y0095228D01*
X0219633Y0094546D02*
X0220729Y0094546D01*
X0220181Y0092948D02*
X0220181Y0092948D01*
X0220181Y0091349D02*
X0220181Y0091349D01*
X0220181Y0089751D02*
X0220181Y0089751D01*
X0220181Y0088152D02*
X0220181Y0088152D01*
X0220181Y0086554D02*
X0220181Y0086554D01*
X0219734Y0084955D02*
X0220628Y0084955D01*
X0221781Y0083356D02*
X0218581Y0083356D01*
X0228581Y0083356D02*
X0231781Y0083356D01*
X0230628Y0084955D02*
X0229734Y0084955D01*
X0230181Y0086554D02*
X0230181Y0086554D01*
X0230181Y0088152D02*
X0230181Y0088152D01*
X0230181Y0089751D02*
X0230181Y0089751D01*
X0230181Y0091349D02*
X0230181Y0091349D01*
X0230181Y0092948D02*
X0230181Y0092948D01*
X0230181Y0093223D02*
X0230942Y0095060D01*
X0231110Y0095228D01*
X0229252Y0095228D01*
X0229420Y0095060D01*
X0230181Y0093223D01*
X0229633Y0094546D02*
X0230729Y0094546D01*
X0229081Y0102539D02*
X0223163Y0102539D01*
X0223352Y0110528D02*
X0222652Y0111228D01*
X0225266Y0111228D01*
X0224566Y0110528D01*
X0223352Y0110528D01*
X0223349Y0110531D02*
X0224569Y0110531D01*
X0227980Y0117028D02*
X0220434Y0117028D01*
X0220815Y0117186D01*
X0222123Y0118494D01*
X0222831Y0120203D01*
X0222831Y0122053D01*
X0222123Y0123762D01*
X0220815Y0125070D01*
X0220434Y0125228D01*
X0236180Y0125228D01*
X0227980Y0117028D01*
X0229476Y0118524D02*
X0222136Y0118524D01*
X0222798Y0120122D02*
X0231074Y0120122D01*
X0232673Y0121721D02*
X0222831Y0121721D01*
X0222307Y0123319D02*
X0234271Y0123319D01*
X0235870Y0124918D02*
X0220967Y0124918D01*
X0212104Y0136028D02*
X0156182Y0136028D01*
X0159029Y0138874D01*
X0159504Y0138678D01*
X0161931Y0138678D01*
X0164173Y0139606D01*
X0165889Y0141322D01*
X0166817Y0143564D01*
X0166817Y0145991D01*
X0165889Y0148233D01*
X0165638Y0148484D01*
X0179682Y0162528D01*
X0180394Y0162528D01*
X0182636Y0163457D01*
X0184181Y0165001D01*
X0185726Y0163457D01*
X0187968Y0162528D01*
X0190394Y0162528D01*
X0192636Y0163457D01*
X0193908Y0164728D01*
X0208957Y0164728D01*
X0210390Y0165322D01*
X0211697Y0166628D01*
X0213252Y0166628D01*
X0216181Y0169557D01*
X0216181Y0173699D01*
X0213252Y0176628D01*
X0209110Y0176628D01*
X0206181Y0173699D01*
X0206181Y0172528D01*
X0193908Y0172528D01*
X0192636Y0173799D01*
X0190394Y0174728D01*
X0187968Y0174728D01*
X0187705Y0174619D01*
X0184987Y0177337D01*
X0183890Y0178434D01*
X0182457Y0179028D01*
X0173182Y0179028D01*
X0177646Y0183492D01*
X0178349Y0182789D01*
X0180187Y0182028D01*
X0182176Y0182028D01*
X0184013Y0182789D01*
X0185420Y0184196D01*
X0186181Y0186033D01*
X0186181Y0193223D01*
X0186942Y0195060D01*
X0188349Y0196467D01*
X0190187Y0197228D01*
X0192176Y0197228D01*
X0194013Y0196467D01*
X0195420Y0195060D01*
X0196181Y0193223D01*
X0196942Y0195060D01*
X0198349Y0196467D01*
X0200187Y0197228D01*
X0202176Y0197228D01*
X0204013Y0196467D01*
X0205420Y0195060D01*
X0206181Y0193223D01*
X0206181Y0186033D01*
X0205420Y0184196D01*
X0204013Y0182789D01*
X0202176Y0182028D01*
X0200187Y0182028D01*
X0198349Y0182789D01*
X0196942Y0184196D01*
X0196181Y0186033D01*
X0196181Y0193223D01*
X0196181Y0186033D01*
X0195420Y0184196D01*
X0194013Y0182789D01*
X0192176Y0182028D01*
X0190187Y0182028D01*
X0188349Y0182789D01*
X0186942Y0184196D01*
X0186181Y0186033D01*
X0186181Y0193223D01*
X0185420Y0195060D01*
X0184013Y0196467D01*
X0183736Y0196582D01*
X0196382Y0209228D01*
X0201278Y0209228D01*
X0201557Y0208949D01*
X0202935Y0208378D01*
X0204427Y0208378D01*
X0205805Y0208949D01*
X0206860Y0210004D01*
X0207431Y0211382D01*
X0207431Y0212874D01*
X0206860Y0214252D01*
X0205805Y0215307D01*
X0205314Y0215510D01*
X0205473Y0215998D01*
X0205581Y0216682D01*
X0205581Y0219628D01*
X0205581Y0222574D01*
X0205473Y0223258D01*
X0205259Y0223917D01*
X0204944Y0224534D01*
X0204537Y0225094D01*
X0204048Y0225584D01*
X0203849Y0225728D01*
X0207610Y0225728D01*
X0206942Y0225060D01*
X0206181Y0223223D01*
X0206181Y0216033D01*
X0205478Y0216033D01*
X0206181Y0216033D02*
X0206942Y0214196D01*
X0208349Y0212789D01*
X0210187Y0212028D01*
X0212176Y0212028D01*
X0214013Y0212789D01*
X0215420Y0214196D01*
X0216181Y0216033D01*
X0216181Y0216033D01*
X0216181Y0223223D01*
X0216181Y0216033D01*
X0216942Y0214196D01*
X0218349Y0212789D01*
X0220187Y0212028D01*
X0222176Y0212028D01*
X0224013Y0212789D01*
X0225420Y0214196D01*
X0226181Y0216033D01*
X0226181Y0216033D01*
X0226181Y0223223D01*
X0226942Y0225060D01*
X0228349Y0226467D01*
X0230187Y0227228D01*
X0232176Y0227228D01*
X0234013Y0226467D01*
X0235420Y0225060D01*
X0236181Y0223223D01*
X0236942Y0225060D01*
X0238349Y0226467D01*
X0240187Y0227228D01*
X0242176Y0227228D01*
X0244013Y0226467D01*
X0245420Y0225060D01*
X0246181Y0223223D01*
X0246942Y0225060D01*
X0248349Y0226467D01*
X0250187Y0227228D01*
X0252176Y0227228D01*
X0254013Y0226467D01*
X0255420Y0225060D01*
X0256181Y0223223D01*
X0256181Y0216033D01*
X0256181Y0216033D01*
X0255420Y0214196D01*
X0254013Y0212789D01*
X0252176Y0212028D01*
X0250187Y0212028D01*
X0248349Y0212789D01*
X0246942Y0214196D01*
X0246181Y0216033D01*
X0246181Y0216033D01*
X0246181Y0223223D01*
X0246181Y0216033D01*
X0245420Y0214196D01*
X0244013Y0212789D01*
X0242176Y0212028D01*
X0240187Y0212028D01*
X0238349Y0212789D01*
X0236942Y0214196D01*
X0236181Y0216033D01*
X0236181Y0216033D01*
X0236181Y0223223D01*
X0236181Y0216033D01*
X0235420Y0214196D01*
X0234013Y0212789D01*
X0232176Y0212028D01*
X0230187Y0212028D01*
X0228349Y0212789D01*
X0226942Y0214196D01*
X0226181Y0216033D01*
X0226181Y0223223D01*
X0225420Y0225060D01*
X0224013Y0226467D01*
X0222176Y0227228D01*
X0220882Y0227228D01*
X0226849Y0233195D01*
X0227179Y0232397D01*
X0228684Y0230892D01*
X0230651Y0230077D01*
X0232779Y0230077D01*
X0234745Y0230892D01*
X0236250Y0232397D01*
X0237065Y0234363D01*
X0237065Y0236491D01*
X0236553Y0237728D01*
X0240758Y0237728D01*
X0241824Y0238169D01*
X0246681Y0243027D01*
X0246681Y0240451D01*
X0247046Y0239568D01*
X0247722Y0238893D01*
X0248604Y0238528D01*
X0254473Y0238528D01*
X0262781Y0230220D01*
X0262781Y0226977D01*
X0262176Y0227228D01*
X0260187Y0227228D01*
X0258349Y0226467D01*
X0256942Y0225060D01*
X0256181Y0223223D01*
X0256181Y0216033D01*
X0256942Y0214196D01*
X0258349Y0212789D01*
X0260187Y0212028D01*
X0262176Y0212028D01*
X0262738Y0212261D01*
X0261739Y0211262D01*
X0261031Y0209553D01*
X0261031Y0207703D01*
X0261739Y0205994D01*
X0262781Y0204952D01*
X0262781Y0196977D01*
X0262176Y0197228D01*
X0260187Y0197228D01*
X0258349Y0196467D01*
X0256942Y0195060D01*
X0256181Y0193223D01*
X0255420Y0195060D01*
X0254013Y0196467D01*
X0252176Y0197228D01*
X0250187Y0197228D01*
X0248349Y0196467D01*
X0246942Y0195060D01*
X0246181Y0193223D01*
X0245420Y0195060D01*
X0244013Y0196467D01*
X0242176Y0197228D01*
X0240187Y0197228D01*
X0238349Y0196467D01*
X0236942Y0195060D01*
X0236181Y0193223D01*
X0235420Y0195060D01*
X0234013Y0196467D01*
X0232176Y0197228D01*
X0230187Y0197228D01*
X0228349Y0196467D01*
X0226942Y0195060D01*
X0226181Y0193223D01*
X0225420Y0195060D01*
X0224013Y0196467D01*
X0222176Y0197228D01*
X0220187Y0197228D01*
X0218349Y0196467D01*
X0216942Y0195060D01*
X0216181Y0193223D01*
X0216181Y0186033D01*
X0216942Y0184196D01*
X0218349Y0182789D01*
X0220187Y0182028D01*
X0222176Y0182028D01*
X0224013Y0182789D01*
X0225420Y0184196D01*
X0226181Y0186033D01*
X0226181Y0193223D01*
X0226181Y0186033D01*
X0226942Y0184196D01*
X0228349Y0182789D01*
X0230187Y0182028D01*
X0230480Y0182028D01*
X0223742Y0175290D01*
X0223004Y0176028D01*
X0221181Y0176028D01*
X0219359Y0176028D01*
X0216781Y0173450D01*
X0216781Y0171628D01*
X0221181Y0171628D01*
X0221181Y0171628D01*
X0221181Y0176028D01*
X0221181Y0171628D01*
X0221181Y0171628D01*
X0216781Y0171628D01*
X0216781Y0169805D01*
X0219359Y0167228D01*
X0221181Y0167228D01*
X0221181Y0171628D01*
X0221181Y0171628D01*
X0221181Y0167228D01*
X0221680Y0167228D01*
X0212950Y0158498D01*
X0212394Y0158728D01*
X0209968Y0158728D01*
X0207726Y0157799D01*
X0206681Y0156755D01*
X0205636Y0157799D01*
X0203394Y0158728D01*
X0200968Y0158728D01*
X0198726Y0157799D01*
X0197010Y0156083D01*
X0196305Y0154381D01*
X0196305Y0155841D01*
X0195376Y0158083D01*
X0193660Y0159799D01*
X0191418Y0160728D01*
X0188991Y0160728D01*
X0186749Y0159799D01*
X0185033Y0158083D01*
X0184105Y0155841D01*
X0184105Y0153415D01*
X0185033Y0151173D01*
X0186749Y0149457D01*
X0186764Y0149451D01*
X0185546Y0148233D01*
X0184617Y0145991D01*
X0184617Y0143564D01*
X0185546Y0141322D01*
X0187262Y0139606D01*
X0189504Y0138678D01*
X0191931Y0138678D01*
X0194173Y0139606D01*
X0195889Y0141322D01*
X0196817Y0143564D01*
X0196817Y0145991D01*
X0195889Y0148233D01*
X0194173Y0149949D01*
X0194158Y0149955D01*
X0195376Y0151173D01*
X0196081Y0152875D01*
X0196081Y0151415D01*
X0197010Y0149173D01*
X0198726Y0147457D01*
X0200968Y0146528D01*
X0203394Y0146528D01*
X0205636Y0147457D01*
X0206681Y0148501D01*
X0207726Y0147457D01*
X0209968Y0146528D01*
X0212394Y0146528D01*
X0214636Y0147457D01*
X0216352Y0149173D01*
X0217281Y0151415D01*
X0217281Y0153841D01*
X0217051Y0154397D01*
X0228140Y0165485D01*
X0228581Y0166551D01*
X0228581Y0167157D01*
X0229110Y0166628D01*
X0233252Y0166628D01*
X0236181Y0169557D01*
X0236181Y0173699D01*
X0233267Y0176613D01*
X0239123Y0182469D01*
X0240187Y0182028D01*
X0242176Y0182028D01*
X0244013Y0182789D01*
X0245420Y0184196D01*
X0246181Y0186033D01*
X0246181Y0193223D01*
X0246181Y0186033D01*
X0246942Y0184196D01*
X0248349Y0182789D01*
X0250187Y0182028D01*
X0252176Y0182028D01*
X0254013Y0182789D01*
X0255420Y0184196D01*
X0256181Y0186033D01*
X0256181Y0193223D01*
X0256181Y0186033D01*
X0256942Y0184196D01*
X0258349Y0182789D01*
X0260187Y0182028D01*
X0262176Y0182028D01*
X0262781Y0182279D01*
X0262781Y0177028D01*
X0261181Y0177028D01*
X0259359Y0177028D01*
X0256781Y0174450D01*
X0256781Y0172628D01*
X0261181Y0172628D01*
X0261181Y0172628D01*
X0261181Y0177028D01*
X0261181Y0172628D01*
X0261181Y0172628D01*
X0256781Y0172628D01*
X0256781Y0170805D01*
X0259359Y0168228D01*
X0261181Y0168228D01*
X0261181Y0172628D01*
X0261181Y0172628D01*
X0261181Y0168228D01*
X0262781Y0168228D01*
X0262781Y0160536D01*
X0255587Y0153342D01*
X0254971Y0154828D01*
X0254081Y0155718D01*
X0254081Y0168457D01*
X0256181Y0170557D01*
X0256181Y0174699D01*
X0253252Y0177628D01*
X0249110Y0177628D01*
X0246181Y0174699D01*
X0246181Y0170557D01*
X0248281Y0168457D01*
X0248281Y0156956D01*
X0246981Y0156418D01*
X0245391Y0154828D01*
X0244531Y0152752D01*
X0244531Y0150504D01*
X0245143Y0149028D01*
X0238005Y0149028D01*
X0236755Y0148510D01*
X0235799Y0147554D01*
X0228773Y0140528D01*
X0219857Y0140528D01*
X0219315Y0141070D01*
X0217606Y0141778D01*
X0215756Y0141778D01*
X0214047Y0141070D01*
X0212739Y0139762D01*
X0212031Y0138053D01*
X0212031Y0136203D01*
X0212104Y0136028D01*
X0212071Y0136107D02*
X0156262Y0136107D01*
X0157860Y0137706D02*
X0212031Y0137706D01*
X0212549Y0139304D02*
X0193444Y0139304D01*
X0195469Y0140903D02*
X0213880Y0140903D01*
X0219482Y0140903D02*
X0229148Y0140903D01*
X0230746Y0142501D02*
X0196377Y0142501D01*
X0196817Y0144100D02*
X0232345Y0144100D01*
X0231305Y0145978D02*
X0233382Y0146838D01*
X0234971Y0148427D01*
X0235831Y0150504D01*
X0235831Y0152752D01*
X0234971Y0154828D01*
X0233382Y0156418D01*
X0231305Y0157278D01*
X0229057Y0157278D01*
X0226981Y0156418D01*
X0225391Y0154828D01*
X0224531Y0152752D01*
X0224531Y0150504D01*
X0225391Y0148427D01*
X0226981Y0146838D01*
X0229057Y0145978D01*
X0231305Y0145978D01*
X0233943Y0145698D02*
X0196817Y0145698D01*
X0196276Y0147297D02*
X0199111Y0147297D01*
X0197287Y0148895D02*
X0195226Y0148895D01*
X0194697Y0150494D02*
X0196462Y0150494D01*
X0196081Y0152092D02*
X0195757Y0152092D01*
X0196305Y0155290D02*
X0196681Y0155290D01*
X0195871Y0156888D02*
X0197814Y0156888D01*
X0200385Y0158487D02*
X0194973Y0158487D01*
X0192970Y0160085D02*
X0214537Y0160085D01*
X0216135Y0161684D02*
X0178838Y0161684D01*
X0177239Y0160085D02*
X0187439Y0160085D01*
X0185437Y0158487D02*
X0175641Y0158487D01*
X0174042Y0156888D02*
X0184538Y0156888D01*
X0184105Y0155290D02*
X0172444Y0155290D01*
X0170845Y0153691D02*
X0184105Y0153691D01*
X0184652Y0152092D02*
X0169247Y0152092D01*
X0167648Y0150494D02*
X0185712Y0150494D01*
X0186209Y0148895D02*
X0166050Y0148895D01*
X0166276Y0147297D02*
X0185158Y0147297D01*
X0184617Y0145698D02*
X0166817Y0145698D01*
X0166817Y0144100D02*
X0184617Y0144100D01*
X0185058Y0142501D02*
X0166377Y0142501D01*
X0165469Y0140903D02*
X0185965Y0140903D01*
X0187991Y0139304D02*
X0163444Y0139304D01*
X0154881Y0142929D02*
X0151480Y0139528D01*
X0145682Y0139528D01*
X0156180Y0150026D01*
X0156749Y0149457D01*
X0156764Y0149451D01*
X0155546Y0148233D01*
X0154617Y0145991D01*
X0154617Y0143564D01*
X0154881Y0142929D01*
X0154453Y0142501D02*
X0148656Y0142501D01*
X0147057Y0140903D02*
X0152855Y0140903D01*
X0154617Y0144100D02*
X0150254Y0144100D01*
X0151853Y0145698D02*
X0154617Y0145698D01*
X0155158Y0147297D02*
X0153451Y0147297D01*
X0155050Y0148895D02*
X0156209Y0148895D01*
X0151643Y0153691D02*
X0146081Y0153691D01*
X0146081Y0152355D02*
X0146081Y0161013D01*
X0153081Y0168013D01*
X0153081Y0164451D01*
X0153446Y0163568D01*
X0154122Y0162893D01*
X0155004Y0162528D01*
X0156480Y0162528D01*
X0152223Y0158271D01*
X0151781Y0157205D01*
X0151781Y0153829D01*
X0147845Y0149893D01*
X0147352Y0151083D01*
X0146081Y0152355D01*
X0146343Y0152092D02*
X0150044Y0152092D01*
X0148446Y0150494D02*
X0147597Y0150494D01*
X0146081Y0155290D02*
X0151781Y0155290D01*
X0151781Y0156888D02*
X0146081Y0156888D01*
X0146081Y0158487D02*
X0152438Y0158487D01*
X0154037Y0160085D02*
X0146081Y0160085D01*
X0146752Y0161684D02*
X0155635Y0161684D01*
X0153733Y0163282D02*
X0148351Y0163282D01*
X0149949Y0164881D02*
X0153081Y0164881D01*
X0153081Y0166479D02*
X0151548Y0166479D01*
X0142115Y0168078D02*
X0110950Y0168078D01*
X0110950Y0169676D02*
X0113032Y0169676D01*
X0111433Y0171275D02*
X0110950Y0171275D01*
X0110811Y0166479D02*
X0140517Y0166479D01*
X0138918Y0164881D02*
X0110056Y0164881D01*
X0115882Y0175028D02*
X0099767Y0191143D01*
X0100666Y0192042D01*
X0104723Y0187985D01*
X0105538Y0187169D01*
X0106604Y0186728D01*
X0136181Y0186728D01*
X0136181Y0186033D01*
X0136942Y0184196D01*
X0138349Y0182789D01*
X0138608Y0182682D01*
X0137010Y0181083D01*
X0136081Y0178841D01*
X0136081Y0176415D01*
X0136655Y0175028D01*
X0115882Y0175028D01*
X0114840Y0176070D02*
X0136224Y0176070D01*
X0136081Y0177669D02*
X0113242Y0177669D01*
X0111643Y0179267D02*
X0136258Y0179267D01*
X0136920Y0180866D02*
X0110045Y0180866D01*
X0108446Y0182464D02*
X0138391Y0182464D01*
X0137075Y0184063D02*
X0106848Y0184063D01*
X0105249Y0185661D02*
X0136335Y0185661D01*
X0136181Y0192528D02*
X0111152Y0192528D01*
X0112181Y0193557D01*
X0112181Y0197699D01*
X0109252Y0200628D01*
X0105110Y0200628D01*
X0102643Y0198161D01*
X0101758Y0198528D01*
X0101352Y0198528D01*
X0099252Y0200628D01*
X0096282Y0200628D01*
X0095581Y0201329D01*
X0095581Y0207653D01*
X0096910Y0207103D01*
X0099337Y0207103D01*
X0101579Y0208031D01*
X0103295Y0209747D01*
X0104224Y0211989D01*
X0104224Y0214416D01*
X0103295Y0216658D01*
X0101579Y0218374D01*
X0099337Y0219303D01*
X0096910Y0219303D01*
X0095581Y0218752D01*
X0095581Y0225205D01*
X0095140Y0226271D01*
X0094324Y0227086D01*
X0082581Y0238829D01*
X0082581Y0240490D01*
X0083740Y0240490D01*
X0085725Y0241312D01*
X0087244Y0242831D01*
X0088066Y0244816D01*
X0088066Y0246964D01*
X0087244Y0248949D01*
X0086965Y0249228D01*
X0124205Y0249228D01*
X0123278Y0246991D01*
X0123278Y0244564D01*
X0124207Y0242322D01*
X0125923Y0240606D01*
X0128165Y0239678D01*
X0128451Y0239678D01*
X0127557Y0239307D01*
X0127330Y0239080D01*
X0118640Y0247771D01*
X0117824Y0248586D01*
X0116758Y0249028D01*
X0111104Y0249028D01*
X0110038Y0248586D01*
X0107411Y0245959D01*
X0107222Y0246148D01*
X0105249Y0246965D01*
X0103113Y0246965D01*
X0101140Y0246148D01*
X0099630Y0244637D01*
X0099181Y0243554D01*
X0098732Y0244637D01*
X0097222Y0246148D01*
X0095249Y0246965D01*
X0093113Y0246965D01*
X0091140Y0246148D01*
X0089630Y0244637D01*
X0088813Y0242664D01*
X0088813Y0234592D01*
X0089630Y0232618D01*
X0091140Y0231108D01*
X0093113Y0230291D01*
X0095249Y0230291D01*
X0097222Y0231108D01*
X0097411Y0231297D01*
X0100038Y0228669D01*
X0101104Y0228228D01*
X0116480Y0228228D01*
X0125846Y0218862D01*
X0124668Y0218374D01*
X0122952Y0216658D01*
X0122024Y0214416D01*
X0122024Y0211989D01*
X0122952Y0209747D01*
X0124668Y0208031D01*
X0126910Y0207103D01*
X0129337Y0207103D01*
X0129880Y0207328D01*
X0131038Y0206169D01*
X0132104Y0205728D01*
X0139480Y0205728D01*
X0148626Y0196582D01*
X0148349Y0196467D01*
X0146942Y0195060D01*
X0146181Y0193223D01*
X0145420Y0195060D01*
X0144013Y0196467D01*
X0142176Y0197228D01*
X0140187Y0197228D01*
X0138349Y0196467D01*
X0136942Y0195060D01*
X0136181Y0193223D01*
X0136181Y0192528D01*
X0136360Y0193654D02*
X0112181Y0193654D01*
X0112181Y0195252D02*
X0137134Y0195252D01*
X0139276Y0196851D02*
X0112181Y0196851D01*
X0111431Y0198449D02*
X0146759Y0198449D01*
X0148357Y0196851D02*
X0143086Y0196851D01*
X0145228Y0195252D02*
X0147134Y0195252D01*
X0146360Y0193654D02*
X0146002Y0193654D01*
X0146181Y0193223D02*
X0146181Y0186033D01*
X0145420Y0184196D01*
X0144496Y0183272D01*
X0145636Y0182799D01*
X0147352Y0181083D01*
X0148281Y0178841D01*
X0148281Y0177329D01*
X0153223Y0182271D01*
X0153549Y0182597D01*
X0152176Y0182028D01*
X0150187Y0182028D01*
X0148349Y0182789D01*
X0146942Y0184196D01*
X0146181Y0186033D01*
X0146181Y0193223D01*
X0146181Y0192055D02*
X0146181Y0192055D01*
X0146181Y0190457D02*
X0146181Y0190457D01*
X0146181Y0188858D02*
X0146181Y0188858D01*
X0146181Y0187260D02*
X0146181Y0187260D01*
X0146027Y0185661D02*
X0146335Y0185661D01*
X0147075Y0184063D02*
X0145287Y0184063D01*
X0145972Y0182464D02*
X0149133Y0182464D01*
X0147443Y0180866D02*
X0151818Y0180866D01*
X0153229Y0182464D02*
X0153416Y0182464D01*
X0154503Y0183279D02*
X0154716Y0183492D01*
X0154804Y0183404D01*
X0154503Y0183279D01*
X0150219Y0179267D02*
X0148105Y0179267D01*
X0148281Y0177669D02*
X0148621Y0177669D01*
X0165324Y0160669D02*
X0167412Y0162758D01*
X0167968Y0162528D01*
X0170394Y0162528D01*
X0172247Y0163295D01*
X0165862Y0156910D01*
X0165376Y0158083D01*
X0163660Y0159799D01*
X0162625Y0160228D01*
X0164258Y0160228D01*
X0165324Y0160669D01*
X0166338Y0161684D02*
X0170635Y0161684D01*
X0172215Y0163282D02*
X0172234Y0163282D01*
X0169037Y0160085D02*
X0162970Y0160085D01*
X0164973Y0158487D02*
X0167438Y0158487D01*
X0182215Y0163282D02*
X0186147Y0163282D01*
X0184302Y0164881D02*
X0184060Y0164881D01*
X0192215Y0163282D02*
X0217734Y0163282D01*
X0219333Y0164881D02*
X0209325Y0164881D01*
X0211548Y0166479D02*
X0220931Y0166479D01*
X0221181Y0168078D02*
X0221181Y0168078D01*
X0221181Y0169676D02*
X0221181Y0169676D01*
X0221181Y0171275D02*
X0221181Y0171275D01*
X0221181Y0172873D02*
X0221181Y0172873D01*
X0221181Y0174472D02*
X0221181Y0174472D01*
X0217802Y0174472D02*
X0215408Y0174472D01*
X0216181Y0172873D02*
X0216781Y0172873D01*
X0216781Y0171275D02*
X0216181Y0171275D01*
X0216181Y0169676D02*
X0216910Y0169676D01*
X0218509Y0168078D02*
X0214702Y0168078D01*
X0206181Y0172873D02*
X0193563Y0172873D01*
X0191013Y0174472D02*
X0206954Y0174472D01*
X0208552Y0176070D02*
X0186254Y0176070D01*
X0184656Y0177669D02*
X0226121Y0177669D01*
X0227719Y0179267D02*
X0173422Y0179267D01*
X0175020Y0180866D02*
X0229318Y0180866D01*
X0229133Y0182464D02*
X0223229Y0182464D01*
X0225287Y0184063D02*
X0227075Y0184063D01*
X0226335Y0185661D02*
X0226027Y0185661D01*
X0226181Y0187260D02*
X0226181Y0187260D01*
X0226181Y0188858D02*
X0226181Y0188858D01*
X0226181Y0190457D02*
X0226181Y0190457D01*
X0226181Y0192055D02*
X0226181Y0192055D01*
X0226002Y0193654D02*
X0226360Y0193654D01*
X0227134Y0195252D02*
X0225228Y0195252D01*
X0223086Y0196851D02*
X0229276Y0196851D01*
X0233086Y0196851D02*
X0239276Y0196851D01*
X0237134Y0195252D02*
X0235228Y0195252D01*
X0236002Y0193654D02*
X0236360Y0193654D01*
X0236181Y0193223D02*
X0236181Y0187729D01*
X0236181Y0193223D01*
X0236181Y0192055D02*
X0236181Y0192055D01*
X0236181Y0190457D02*
X0236181Y0190457D01*
X0236181Y0188858D02*
X0236181Y0188858D01*
X0236181Y0187729D02*
X0236181Y0187729D01*
X0239119Y0182464D02*
X0239133Y0182464D01*
X0237520Y0180866D02*
X0262781Y0180866D01*
X0262781Y0179267D02*
X0235922Y0179267D01*
X0234323Y0177669D02*
X0262781Y0177669D01*
X0261181Y0176070D02*
X0261181Y0176070D01*
X0261181Y0174472D02*
X0261181Y0174472D01*
X0261181Y0172873D02*
X0261181Y0172873D01*
X0261181Y0171275D02*
X0261181Y0171275D01*
X0261181Y0169676D02*
X0261181Y0169676D01*
X0262781Y0168078D02*
X0254081Y0168078D01*
X0254081Y0166479D02*
X0262781Y0166479D01*
X0262781Y0164881D02*
X0254081Y0164881D01*
X0254081Y0163282D02*
X0262781Y0163282D01*
X0262781Y0161684D02*
X0254081Y0161684D01*
X0254081Y0160085D02*
X0262330Y0160085D01*
X0260731Y0158487D02*
X0254081Y0158487D01*
X0254081Y0156888D02*
X0259133Y0156888D01*
X0257534Y0155290D02*
X0254510Y0155290D01*
X0255442Y0153691D02*
X0255936Y0153691D01*
X0260757Y0148895D02*
X0266347Y0148895D01*
X0264749Y0147297D02*
X0259158Y0147297D01*
X0257560Y0145698D02*
X0263150Y0145698D01*
X0261552Y0144100D02*
X0255961Y0144100D01*
X0254607Y0142746D02*
X0268107Y0156246D01*
X0269063Y0157202D01*
X0269581Y0158452D01*
X0269581Y0182279D01*
X0270187Y0182028D01*
X0272176Y0182028D01*
X0272781Y0182279D01*
X0272781Y0155329D01*
X0256950Y0139498D01*
X0256394Y0139728D01*
X0253968Y0139728D01*
X0251726Y0138799D01*
X0250181Y0137255D01*
X0248636Y0138799D01*
X0246394Y0139728D01*
X0243968Y0139728D01*
X0241726Y0138799D01*
X0240181Y0137255D01*
X0238636Y0138799D01*
X0237239Y0139378D01*
X0240089Y0142228D01*
X0253357Y0142228D01*
X0254607Y0142746D01*
X0254018Y0142501D02*
X0259953Y0142501D01*
X0258355Y0140903D02*
X0238764Y0140903D01*
X0237417Y0139304D02*
X0242945Y0139304D01*
X0240632Y0137706D02*
X0239730Y0137706D01*
X0247417Y0139304D02*
X0252945Y0139304D01*
X0250632Y0137706D02*
X0249730Y0137706D01*
X0237685Y0148895D02*
X0235165Y0148895D01*
X0235542Y0147297D02*
X0233840Y0147297D01*
X0235827Y0150494D02*
X0244535Y0150494D01*
X0244531Y0152092D02*
X0235831Y0152092D01*
X0235442Y0153691D02*
X0244920Y0153691D01*
X0245852Y0155290D02*
X0234510Y0155290D01*
X0232246Y0156888D02*
X0248116Y0156888D01*
X0248281Y0158487D02*
X0221141Y0158487D01*
X0222739Y0160085D02*
X0248281Y0160085D01*
X0248281Y0161684D02*
X0224338Y0161684D01*
X0225936Y0163282D02*
X0248281Y0163282D01*
X0248281Y0164881D02*
X0227535Y0164881D01*
X0228551Y0166479D02*
X0248281Y0166479D01*
X0248281Y0168078D02*
X0243853Y0168078D01*
X0243004Y0167228D02*
X0241181Y0167228D01*
X0241181Y0171628D01*
X0241181Y0171628D01*
X0236781Y0171628D01*
X0236781Y0173450D01*
X0239359Y0176028D01*
X0241181Y0176028D01*
X0241181Y0171628D01*
X0241181Y0171628D01*
X0236781Y0171628D01*
X0236781Y0169805D01*
X0239359Y0167228D01*
X0241181Y0167228D01*
X0241181Y0171628D01*
X0241181Y0176028D01*
X0243004Y0176028D01*
X0245581Y0173450D01*
X0245581Y0171628D01*
X0241181Y0171628D01*
X0241181Y0171628D01*
X0241181Y0171628D01*
X0245581Y0171628D01*
X0245581Y0169805D01*
X0243004Y0167228D01*
X0241181Y0168078D02*
X0241181Y0168078D01*
X0241181Y0169676D02*
X0241181Y0169676D01*
X0241181Y0171275D02*
X0241181Y0171275D01*
X0241181Y0172873D02*
X0241181Y0172873D01*
X0241181Y0174472D02*
X0241181Y0174472D01*
X0237802Y0174472D02*
X0235408Y0174472D01*
X0236181Y0172873D02*
X0236781Y0172873D01*
X0236781Y0171275D02*
X0236181Y0171275D01*
X0236181Y0169676D02*
X0236910Y0169676D01*
X0238509Y0168078D02*
X0234702Y0168078D01*
X0233810Y0176070D02*
X0247552Y0176070D01*
X0246181Y0174472D02*
X0244560Y0174472D01*
X0245581Y0172873D02*
X0246181Y0172873D01*
X0246181Y0171275D02*
X0245581Y0171275D01*
X0245452Y0169676D02*
X0247062Y0169676D01*
X0255300Y0169676D02*
X0257910Y0169676D01*
X0256781Y0171275D02*
X0256181Y0171275D01*
X0256181Y0172873D02*
X0256781Y0172873D01*
X0256802Y0174472D02*
X0256181Y0174472D01*
X0254810Y0176070D02*
X0258401Y0176070D01*
X0259133Y0182464D02*
X0253229Y0182464D01*
X0255287Y0184063D02*
X0257075Y0184063D01*
X0256335Y0185661D02*
X0256027Y0185661D01*
X0256181Y0187260D02*
X0256181Y0187260D01*
X0256181Y0188858D02*
X0256181Y0188858D01*
X0256181Y0190457D02*
X0256181Y0190457D01*
X0256181Y0192055D02*
X0256181Y0192055D01*
X0256002Y0193654D02*
X0256360Y0193654D01*
X0257134Y0195252D02*
X0255228Y0195252D01*
X0253086Y0196851D02*
X0259276Y0196851D01*
X0262781Y0198449D02*
X0185604Y0198449D01*
X0187202Y0200048D02*
X0262781Y0200048D01*
X0262781Y0201646D02*
X0188801Y0201646D01*
X0190399Y0203245D02*
X0262781Y0203245D01*
X0262781Y0204843D02*
X0191998Y0204843D01*
X0193596Y0206442D02*
X0261553Y0206442D01*
X0261031Y0208040D02*
X0195195Y0208040D01*
X0186181Y0217229D02*
X0186181Y0223223D01*
X0185420Y0225060D01*
X0184013Y0226467D01*
X0182176Y0227228D01*
X0180187Y0227228D01*
X0178349Y0226467D01*
X0176942Y0225060D01*
X0176181Y0223223D01*
X0176181Y0216033D01*
X0176181Y0216033D01*
X0176181Y0223223D01*
X0175420Y0225060D01*
X0174013Y0226467D01*
X0172176Y0227228D01*
X0170187Y0227228D01*
X0168349Y0226467D01*
X0167646Y0225764D01*
X0164640Y0228771D01*
X0163824Y0229586D01*
X0162758Y0230028D01*
X0141084Y0230028D01*
X0140805Y0230307D01*
X0139427Y0230878D01*
X0138581Y0230878D01*
X0138581Y0239678D01*
X0140591Y0239678D01*
X0142833Y0240606D01*
X0144378Y0242151D01*
X0145923Y0240606D01*
X0148165Y0239678D01*
X0150591Y0239678D01*
X0152833Y0240606D01*
X0154378Y0242151D01*
X0155923Y0240606D01*
X0158165Y0239678D01*
X0160591Y0239678D01*
X0162833Y0240606D01*
X0164549Y0242322D01*
X0164746Y0242796D01*
X0165183Y0242195D01*
X0165795Y0241582D01*
X0166495Y0241074D01*
X0167267Y0240681D01*
X0168090Y0240413D01*
X0168945Y0240278D01*
X0169178Y0240278D01*
X0169178Y0245577D01*
X0169578Y0245577D01*
X0169578Y0240278D01*
X0169811Y0240278D01*
X0170666Y0240413D01*
X0171489Y0240681D01*
X0172261Y0241074D01*
X0172961Y0241582D01*
X0173573Y0242195D01*
X0174082Y0242895D01*
X0174378Y0243476D01*
X0174674Y0242895D01*
X0175183Y0242195D01*
X0175795Y0241582D01*
X0176495Y0241074D01*
X0177267Y0240681D01*
X0178090Y0240413D01*
X0178945Y0240278D01*
X0179178Y0240278D01*
X0179178Y0245577D01*
X0179578Y0245577D01*
X0179578Y0240278D01*
X0179811Y0240278D01*
X0180666Y0240413D01*
X0181489Y0240681D01*
X0182261Y0241074D01*
X0182961Y0241582D01*
X0183573Y0242195D01*
X0184082Y0242895D01*
X0184475Y0243666D01*
X0184743Y0244490D01*
X0184878Y0245345D01*
X0184878Y0245578D01*
X0179578Y0245578D01*
X0179578Y0245978D01*
X0184878Y0245978D01*
X0184878Y0246210D01*
X0184743Y0247065D01*
X0184475Y0247889D01*
X0184082Y0248660D01*
X0183669Y0249228D01*
X0187691Y0249228D01*
X0187587Y0249085D01*
X0187194Y0248313D01*
X0186927Y0247490D01*
X0186791Y0246635D01*
X0186791Y0246288D01*
X0192205Y0246288D01*
X0192205Y0246116D01*
X0186791Y0246116D01*
X0186791Y0245769D01*
X0186927Y0244914D01*
X0187194Y0244091D01*
X0187587Y0243319D01*
X0188096Y0242619D01*
X0188708Y0242007D01*
X0189409Y0241498D01*
X0190180Y0241105D01*
X0191003Y0240837D01*
X0191858Y0240702D01*
X0192205Y0240702D01*
X0192205Y0246116D01*
X0192377Y0246116D01*
X0192377Y0240702D01*
X0192724Y0240702D01*
X0193579Y0240837D01*
X0194403Y0241105D01*
X0195174Y0241498D01*
X0195874Y0242007D01*
X0196486Y0242619D01*
X0196995Y0243319D01*
X0197388Y0244091D01*
X0197656Y0244914D01*
X0197791Y0245769D01*
X0197791Y0246116D01*
X0192377Y0246116D01*
X0192377Y0246288D01*
X0197791Y0246288D01*
X0197791Y0246635D01*
X0197656Y0247490D01*
X0197388Y0248313D01*
X0196995Y0249085D01*
X0196891Y0249228D01*
X0206627Y0249228D01*
X0205876Y0247415D01*
X0205876Y0246132D01*
X0196023Y0236278D01*
X0195256Y0236278D01*
X0193547Y0235570D01*
X0192239Y0234262D01*
X0191531Y0232553D01*
X0191531Y0230703D01*
X0192239Y0228994D01*
X0193547Y0227686D01*
X0195256Y0226978D01*
X0195930Y0226978D01*
X0194716Y0225764D01*
X0194013Y0226467D01*
X0192176Y0227228D01*
X0190187Y0227228D01*
X0188349Y0226467D01*
X0186942Y0225060D01*
X0186181Y0223223D01*
X0186181Y0217229D01*
X0186181Y0217229D01*
X0186181Y0217631D02*
X0186181Y0217631D01*
X0186181Y0219230D02*
X0186181Y0219230D01*
X0186181Y0220828D02*
X0186181Y0220828D01*
X0186181Y0222427D02*
X0186181Y0222427D01*
X0185848Y0224025D02*
X0186514Y0224025D01*
X0187506Y0225624D02*
X0184856Y0225624D01*
X0182189Y0227223D02*
X0190173Y0227223D01*
X0192189Y0227223D02*
X0194666Y0227223D01*
X0192412Y0228821D02*
X0164589Y0228821D01*
X0166188Y0227223D02*
X0170173Y0227223D01*
X0172189Y0227223D02*
X0180173Y0227223D01*
X0177506Y0225624D02*
X0174856Y0225624D01*
X0175848Y0224025D02*
X0176514Y0224025D01*
X0176181Y0222427D02*
X0176181Y0222427D01*
X0176181Y0220828D02*
X0176181Y0220828D01*
X0176181Y0219230D02*
X0176181Y0219230D01*
X0176181Y0217631D02*
X0176181Y0217631D01*
X0176181Y0216033D02*
X0176942Y0214196D01*
X0178349Y0212789D01*
X0180187Y0212028D01*
X0180980Y0212028D01*
X0164716Y0195764D01*
X0164081Y0196399D01*
X0164081Y0201705D01*
X0163640Y0202771D01*
X0153736Y0212674D01*
X0154013Y0212789D01*
X0155420Y0214196D01*
X0156181Y0216033D01*
X0156181Y0216033D01*
X0156181Y0223223D01*
X0156181Y0216033D01*
X0156942Y0214196D01*
X0158349Y0212789D01*
X0160187Y0212028D01*
X0162176Y0212028D01*
X0164013Y0212789D01*
X0165420Y0214196D01*
X0166181Y0216033D01*
X0166181Y0216033D01*
X0166181Y0219027D01*
X0166181Y0219027D01*
X0166181Y0216033D01*
X0166942Y0214196D01*
X0168349Y0212789D01*
X0170187Y0212028D01*
X0172176Y0212028D01*
X0174013Y0212789D01*
X0175420Y0214196D01*
X0176181Y0216033D01*
X0175519Y0214434D02*
X0176843Y0214434D01*
X0178302Y0212836D02*
X0174060Y0212836D01*
X0178591Y0209639D02*
X0156771Y0209639D01*
X0155173Y0211237D02*
X0180189Y0211237D01*
X0176992Y0208040D02*
X0158370Y0208040D01*
X0159968Y0206442D02*
X0175394Y0206442D01*
X0173795Y0204843D02*
X0161567Y0204843D01*
X0163165Y0203245D02*
X0172197Y0203245D01*
X0170598Y0201646D02*
X0164081Y0201646D01*
X0164081Y0200048D02*
X0169000Y0200048D01*
X0167401Y0198449D02*
X0164081Y0198449D01*
X0164081Y0196851D02*
X0165803Y0196851D01*
X0158281Y0196851D02*
X0156559Y0196851D01*
X0156927Y0197878D02*
X0155532Y0197878D01*
X0157646Y0195764D01*
X0158281Y0196399D01*
X0158281Y0198439D01*
X0156927Y0197878D01*
X0153680Y0204528D02*
X0151882Y0204528D01*
X0146682Y0209728D01*
X0148480Y0209728D01*
X0153680Y0204528D01*
X0153364Y0204843D02*
X0151567Y0204843D01*
X0151766Y0206442D02*
X0149968Y0206442D01*
X0150167Y0208040D02*
X0148370Y0208040D01*
X0148569Y0209639D02*
X0146771Y0209639D01*
X0154060Y0212836D02*
X0158302Y0212836D01*
X0156843Y0214434D02*
X0155519Y0214434D01*
X0156181Y0217631D02*
X0156181Y0217631D01*
X0156181Y0219230D02*
X0156181Y0219230D01*
X0156181Y0220828D02*
X0156181Y0220828D01*
X0156181Y0222427D02*
X0156181Y0222427D01*
X0156181Y0223223D02*
X0156598Y0224228D01*
X0155765Y0224228D01*
X0156181Y0223223D01*
X0155848Y0224025D02*
X0156514Y0224025D01*
X0166181Y0217631D02*
X0166181Y0217631D01*
X0165519Y0214434D02*
X0166843Y0214434D01*
X0168302Y0212836D02*
X0164060Y0212836D01*
X0146390Y0215528D02*
X0145972Y0215528D01*
X0146181Y0216033D01*
X0146181Y0216033D01*
X0146181Y0223223D01*
X0146598Y0224228D01*
X0145765Y0224228D01*
X0146181Y0223223D01*
X0146181Y0216033D01*
X0146390Y0215528D01*
X0146181Y0217631D02*
X0146181Y0217631D01*
X0146181Y0219230D02*
X0146181Y0219230D01*
X0146181Y0220828D02*
X0146181Y0220828D01*
X0146181Y0222427D02*
X0146181Y0222427D01*
X0145848Y0224025D02*
X0146514Y0224025D01*
X0140534Y0230420D02*
X0191649Y0230420D01*
X0191531Y0232018D02*
X0138581Y0232018D01*
X0138581Y0233617D02*
X0191972Y0233617D01*
X0193192Y0235215D02*
X0138581Y0235215D01*
X0138581Y0236814D02*
X0196558Y0236814D01*
X0198157Y0238412D02*
X0138581Y0238412D01*
X0141395Y0240011D02*
X0147361Y0240011D01*
X0144920Y0241609D02*
X0143836Y0241609D01*
X0151395Y0240011D02*
X0157361Y0240011D01*
X0154920Y0241609D02*
X0153836Y0241609D01*
X0161395Y0240011D02*
X0199755Y0240011D01*
X0201354Y0241609D02*
X0195327Y0241609D01*
X0196914Y0243208D02*
X0202952Y0243208D01*
X0204551Y0244806D02*
X0197621Y0244806D01*
X0197791Y0246405D02*
X0205876Y0246405D01*
X0206120Y0248003D02*
X0197489Y0248003D01*
X0192377Y0244806D02*
X0192205Y0244806D01*
X0192205Y0243208D02*
X0192377Y0243208D01*
X0192377Y0241609D02*
X0192205Y0241609D01*
X0189256Y0241609D02*
X0182988Y0241609D01*
X0184241Y0243208D02*
X0187668Y0243208D01*
X0186962Y0244806D02*
X0184793Y0244806D01*
X0184847Y0246405D02*
X0186791Y0246405D01*
X0187094Y0248003D02*
X0184417Y0248003D01*
X0179578Y0244806D02*
X0179178Y0244806D01*
X0179178Y0245578D02*
X0173878Y0245578D01*
X0169578Y0245578D01*
X0169578Y0245978D01*
X0179178Y0245978D01*
X0179178Y0245578D01*
X0179178Y0243208D02*
X0179578Y0243208D01*
X0179578Y0241609D02*
X0179178Y0241609D01*
X0175768Y0241609D02*
X0172988Y0241609D01*
X0174241Y0243208D02*
X0174515Y0243208D01*
X0169578Y0243208D02*
X0169178Y0243208D01*
X0169178Y0244806D02*
X0169578Y0244806D01*
X0169578Y0241609D02*
X0169178Y0241609D01*
X0165768Y0241609D02*
X0163836Y0241609D01*
X0164746Y0248759D02*
X0164551Y0249228D01*
X0165086Y0249228D01*
X0164746Y0248759D01*
X0173669Y0249228D02*
X0175086Y0249228D01*
X0174674Y0248660D01*
X0174378Y0248079D01*
X0174082Y0248660D01*
X0173669Y0249228D01*
X0204881Y0233128D02*
X0209281Y0233128D01*
X0209281Y0234950D01*
X0206797Y0237435D01*
X0209844Y0240483D01*
X0210763Y0240102D01*
X0213190Y0240102D01*
X0215432Y0241031D01*
X0217148Y0242747D01*
X0218076Y0244989D01*
X0218076Y0247415D01*
X0217326Y0249228D01*
X0222950Y0249228D01*
X0222179Y0248458D01*
X0221365Y0246491D01*
X0221365Y0244363D01*
X0222179Y0242397D01*
X0223684Y0240892D01*
X0225565Y0240113D01*
X0219881Y0234429D01*
X0219881Y0235199D01*
X0216952Y0238128D01*
X0212810Y0238128D01*
X0209881Y0235199D01*
X0209881Y0231528D01*
X0209281Y0231528D01*
X0209281Y0233128D01*
X0204881Y0233128D01*
X0204881Y0233128D01*
X0209281Y0233617D02*
X0209881Y0233617D01*
X0209897Y0235215D02*
X0209016Y0235215D01*
X0207418Y0236814D02*
X0211496Y0236814D01*
X0209372Y0240011D02*
X0225463Y0240011D01*
X0223864Y0238412D02*
X0207774Y0238412D01*
X0209281Y0232018D02*
X0209881Y0232018D01*
X0207506Y0225624D02*
X0203993Y0225624D01*
X0205203Y0224025D02*
X0206514Y0224025D01*
X0206181Y0222427D02*
X0205581Y0222427D01*
X0205581Y0220828D02*
X0206181Y0220828D01*
X0205581Y0219628D02*
X0201181Y0219628D01*
X0201181Y0219628D01*
X0205581Y0219628D01*
X0205581Y0219230D02*
X0206181Y0219230D01*
X0206181Y0217631D02*
X0205581Y0217631D01*
X0206678Y0214434D02*
X0206843Y0214434D01*
X0207431Y0212836D02*
X0208302Y0212836D01*
X0207371Y0211237D02*
X0261729Y0211237D01*
X0261067Y0209639D02*
X0206495Y0209639D01*
X0214060Y0212836D02*
X0218302Y0212836D01*
X0216843Y0214434D02*
X0215519Y0214434D01*
X0216181Y0217631D02*
X0216181Y0217631D01*
X0216181Y0219230D02*
X0216181Y0219230D01*
X0216181Y0220828D02*
X0216181Y0220828D01*
X0216181Y0222427D02*
X0216181Y0222427D01*
X0216181Y0223223D02*
X0216942Y0225060D01*
X0217610Y0225728D01*
X0214752Y0225728D01*
X0215420Y0225060D01*
X0216181Y0223223D01*
X0215848Y0224025D02*
X0216514Y0224025D01*
X0217506Y0225624D02*
X0214856Y0225624D01*
X0222189Y0227223D02*
X0230173Y0227223D01*
X0232189Y0227223D02*
X0240173Y0227223D01*
X0242189Y0227223D02*
X0250173Y0227223D01*
X0252189Y0227223D02*
X0260173Y0227223D01*
X0262189Y0227223D02*
X0262781Y0227223D01*
X0262781Y0228821D02*
X0222475Y0228821D01*
X0224074Y0230420D02*
X0229824Y0230420D01*
X0227558Y0232018D02*
X0225672Y0232018D01*
X0222266Y0236814D02*
X0218267Y0236814D01*
X0219865Y0235215D02*
X0220667Y0235215D01*
X0222967Y0241609D02*
X0216010Y0241609D01*
X0217339Y0243208D02*
X0221844Y0243208D01*
X0221365Y0244806D02*
X0218001Y0244806D01*
X0218076Y0246405D02*
X0221365Y0246405D01*
X0221991Y0248003D02*
X0217833Y0248003D01*
X0230480Y0249228D02*
X0232178Y0249228D01*
X0232088Y0249072D01*
X0231965Y0248614D01*
X0231965Y0246733D01*
X0231250Y0248458D01*
X0230480Y0249228D01*
X0231439Y0248003D02*
X0231965Y0248003D01*
X0231965Y0244122D02*
X0231719Y0243528D01*
X0231965Y0243528D01*
X0231965Y0244122D01*
X0241252Y0249228D02*
X0244291Y0249228D01*
X0244281Y0249205D01*
X0244281Y0248829D01*
X0241465Y0246013D01*
X0241465Y0248614D01*
X0241342Y0249072D01*
X0241252Y0249228D01*
X0241465Y0248003D02*
X0243455Y0248003D01*
X0241857Y0246405D02*
X0241465Y0246405D01*
X0245263Y0241609D02*
X0246681Y0241609D01*
X0246863Y0240011D02*
X0243665Y0240011D01*
X0242066Y0238412D02*
X0254589Y0238412D01*
X0256187Y0236814D02*
X0236931Y0236814D01*
X0237065Y0235215D02*
X0257786Y0235215D01*
X0259384Y0233617D02*
X0236756Y0233617D01*
X0235872Y0232018D02*
X0260983Y0232018D01*
X0262581Y0230420D02*
X0233606Y0230420D01*
X0234856Y0225624D02*
X0237506Y0225624D01*
X0236514Y0224025D02*
X0235848Y0224025D01*
X0236181Y0222427D02*
X0236181Y0222427D01*
X0236181Y0220828D02*
X0236181Y0220828D01*
X0236181Y0219230D02*
X0236181Y0219230D01*
X0236181Y0217631D02*
X0236181Y0217631D01*
X0235519Y0214434D02*
X0236843Y0214434D01*
X0238302Y0212836D02*
X0234060Y0212836D01*
X0228302Y0212836D02*
X0224060Y0212836D01*
X0225519Y0214434D02*
X0226843Y0214434D01*
X0226181Y0217631D02*
X0226181Y0217631D01*
X0226181Y0219230D02*
X0226181Y0219230D01*
X0226181Y0220828D02*
X0226181Y0220828D01*
X0226181Y0222427D02*
X0226181Y0222427D01*
X0225848Y0224025D02*
X0226514Y0224025D01*
X0227506Y0225624D02*
X0224856Y0225624D01*
X0244060Y0212836D02*
X0248302Y0212836D01*
X0246843Y0214434D02*
X0245519Y0214434D01*
X0246181Y0217631D02*
X0246181Y0217631D01*
X0246181Y0219230D02*
X0246181Y0219230D01*
X0246181Y0220828D02*
X0246181Y0220828D01*
X0246181Y0222427D02*
X0246181Y0222427D01*
X0245848Y0224025D02*
X0246514Y0224025D01*
X0247506Y0225624D02*
X0244856Y0225624D01*
X0254856Y0225624D02*
X0257506Y0225624D01*
X0256514Y0224025D02*
X0255848Y0224025D01*
X0256181Y0222427D02*
X0256181Y0222427D01*
X0256181Y0220828D02*
X0256181Y0220828D01*
X0256181Y0219230D02*
X0256181Y0219230D01*
X0256181Y0217631D02*
X0256181Y0217631D01*
X0255519Y0214434D02*
X0256843Y0214434D01*
X0258302Y0212836D02*
X0254060Y0212836D01*
X0249276Y0196851D02*
X0243086Y0196851D01*
X0245228Y0195252D02*
X0247134Y0195252D01*
X0246360Y0193654D02*
X0246002Y0193654D01*
X0246181Y0192055D02*
X0246181Y0192055D01*
X0246181Y0190457D02*
X0246181Y0190457D01*
X0246181Y0188858D02*
X0246181Y0188858D01*
X0246181Y0187260D02*
X0246181Y0187260D01*
X0246027Y0185661D02*
X0246335Y0185661D01*
X0247075Y0184063D02*
X0245287Y0184063D01*
X0243229Y0182464D02*
X0249133Y0182464D01*
X0269581Y0180866D02*
X0272781Y0180866D01*
X0272781Y0179267D02*
X0269581Y0179267D01*
X0269581Y0177669D02*
X0272781Y0177669D01*
X0272781Y0176070D02*
X0269581Y0176070D01*
X0269581Y0174472D02*
X0272781Y0174472D01*
X0272781Y0172873D02*
X0269581Y0172873D01*
X0269581Y0171275D02*
X0272781Y0171275D01*
X0272781Y0169676D02*
X0269581Y0169676D01*
X0269581Y0168078D02*
X0272781Y0168078D01*
X0272781Y0166479D02*
X0269581Y0166479D01*
X0269581Y0164881D02*
X0272781Y0164881D01*
X0272781Y0163282D02*
X0269581Y0163282D01*
X0269581Y0161684D02*
X0272781Y0161684D01*
X0272781Y0160085D02*
X0269581Y0160085D01*
X0269581Y0158487D02*
X0272781Y0158487D01*
X0272781Y0156888D02*
X0268749Y0156888D01*
X0267151Y0155290D02*
X0272741Y0155290D01*
X0271143Y0153691D02*
X0265552Y0153691D01*
X0263954Y0152092D02*
X0269544Y0152092D01*
X0267946Y0150494D02*
X0262355Y0150494D01*
X0269754Y0144100D02*
X0274781Y0144100D01*
X0274781Y0145698D02*
X0271353Y0145698D01*
X0272951Y0147297D02*
X0274781Y0147297D01*
X0274781Y0148895D02*
X0274550Y0148895D01*
X0274781Y0149127D02*
X0274781Y0139829D01*
X0270845Y0135893D01*
X0270352Y0137083D01*
X0268636Y0138799D01*
X0266394Y0139728D01*
X0265382Y0139728D01*
X0274781Y0149127D01*
X0274781Y0142501D02*
X0268156Y0142501D01*
X0266557Y0140903D02*
X0274781Y0140903D01*
X0274256Y0139304D02*
X0267417Y0139304D01*
X0269730Y0137706D02*
X0272658Y0137706D01*
X0271059Y0136107D02*
X0270757Y0136107D01*
X0281072Y0124918D02*
X0289632Y0124918D01*
X0289557Y0124949D02*
X0290935Y0124378D01*
X0292427Y0124378D01*
X0293805Y0124949D01*
X0294084Y0125228D01*
X0296993Y0125228D01*
X0295381Y0123616D01*
X0295381Y0121828D01*
X0299981Y0121828D01*
X0299981Y0121428D01*
X0295381Y0121428D01*
X0295381Y0119640D01*
X0297993Y0117028D01*
X0297944Y0117028D01*
X0294781Y0113865D01*
X0294781Y0109391D01*
X0296062Y0108110D01*
X0288980Y0101028D01*
X0270707Y0101028D01*
X0271281Y0102415D01*
X0271281Y0104841D01*
X0270352Y0107083D01*
X0268636Y0108799D01*
X0266394Y0109728D01*
X0263968Y0109728D01*
X0261726Y0108799D01*
X0260181Y0107255D01*
X0258636Y0108799D01*
X0256394Y0109728D01*
X0253968Y0109728D01*
X0251726Y0108799D01*
X0250181Y0107255D01*
X0248636Y0108799D01*
X0246394Y0109728D01*
X0243968Y0109728D01*
X0241726Y0108799D01*
X0240181Y0107255D01*
X0238636Y0108799D01*
X0236394Y0109728D01*
X0234797Y0109728D01*
X0240297Y0115228D01*
X0262578Y0115228D01*
X0262431Y0114874D01*
X0262431Y0113382D01*
X0263002Y0112004D01*
X0264057Y0110949D01*
X0265435Y0110378D01*
X0266927Y0110378D01*
X0268305Y0110949D01*
X0269360Y0112004D01*
X0269931Y0113382D01*
X0269931Y0113777D01*
X0295588Y0139433D01*
X0297993Y0137028D01*
X0297944Y0137028D01*
X0294781Y0133865D01*
X0294781Y0131028D01*
X0294084Y0131028D01*
X0293805Y0131307D01*
X0292427Y0131878D01*
X0290935Y0131878D01*
X0289557Y0131307D01*
X0288502Y0130252D01*
X0287931Y0128874D01*
X0287931Y0127382D01*
X0288502Y0126004D01*
X0289557Y0124949D01*
X0288290Y0126516D02*
X0282671Y0126516D01*
X0284269Y0128115D02*
X0287931Y0128115D01*
X0288279Y0129713D02*
X0285868Y0129713D01*
X0287466Y0131312D02*
X0289568Y0131312D01*
X0289065Y0132910D02*
X0294781Y0132910D01*
X0294781Y0131312D02*
X0293794Y0131312D01*
X0295425Y0134509D02*
X0290663Y0134509D01*
X0292262Y0136107D02*
X0297024Y0136107D01*
X0297315Y0137706D02*
X0293860Y0137706D01*
X0295459Y0139304D02*
X0295716Y0139304D01*
X0292052Y0144100D02*
X0289581Y0144100D01*
X0289581Y0145698D02*
X0293650Y0145698D01*
X0295249Y0147297D02*
X0289581Y0147297D01*
X0289581Y0148513D02*
X0289581Y0141629D01*
X0295723Y0147771D01*
X0296538Y0148586D01*
X0297604Y0149028D01*
X0312758Y0149028D01*
X0313824Y0148586D01*
X0320781Y0141629D01*
X0320781Y0179713D01*
X0300916Y0159847D01*
X0301292Y0159725D01*
X0302064Y0159332D01*
X0302764Y0158823D01*
X0303376Y0158211D01*
X0303885Y0157511D01*
X0304278Y0156739D01*
X0304546Y0155916D01*
X0304681Y0155061D01*
X0304681Y0154714D01*
X0310095Y0154714D01*
X0310095Y0154542D01*
X0304681Y0154542D01*
X0299267Y0154542D01*
X0299267Y0149128D01*
X0299614Y0149128D01*
X0300469Y0149263D01*
X0301292Y0149531D01*
X0302064Y0149924D01*
X0302764Y0150433D01*
X0303376Y0151045D01*
X0303885Y0151745D01*
X0304278Y0152517D01*
X0304546Y0153340D01*
X0304681Y0154195D01*
X0304681Y0154542D01*
X0304681Y0154195D01*
X0304817Y0153340D01*
X0305084Y0152517D01*
X0305477Y0151745D01*
X0305986Y0151045D01*
X0306598Y0150433D01*
X0307298Y0149924D01*
X0308070Y0149531D01*
X0308893Y0149263D01*
X0309748Y0149128D01*
X0310095Y0149128D01*
X0310095Y0154542D01*
X0310267Y0154542D01*
X0310267Y0149128D01*
X0310614Y0149128D01*
X0311469Y0149263D01*
X0312292Y0149531D01*
X0313064Y0149924D01*
X0313764Y0150433D01*
X0314376Y0151045D01*
X0314885Y0151745D01*
X0315278Y0152517D01*
X0315546Y0153340D01*
X0315681Y0154195D01*
X0315681Y0154542D01*
X0310267Y0154542D01*
X0310267Y0154714D01*
X0310095Y0154714D01*
X0310095Y0160128D01*
X0309748Y0160128D01*
X0308893Y0159993D01*
X0308070Y0159725D01*
X0307298Y0159332D01*
X0306598Y0158823D01*
X0305986Y0158211D01*
X0305477Y0157511D01*
X0305084Y0156739D01*
X0304817Y0155916D01*
X0304681Y0155061D01*
X0304681Y0154714D01*
X0299267Y0154714D01*
X0299267Y0154542D01*
X0299095Y0154542D01*
X0299095Y0149128D01*
X0298748Y0149128D01*
X0297893Y0149263D01*
X0297070Y0149531D01*
X0296298Y0149924D01*
X0295598Y0150433D01*
X0294986Y0151045D01*
X0294477Y0151745D01*
X0294084Y0152517D01*
X0293962Y0152893D01*
X0289581Y0148513D01*
X0289964Y0148895D02*
X0297284Y0148895D01*
X0295537Y0150494D02*
X0291563Y0150494D01*
X0293161Y0152092D02*
X0294300Y0152092D01*
X0299095Y0152092D02*
X0299267Y0152092D01*
X0299267Y0150494D02*
X0299095Y0150494D01*
X0299095Y0153691D02*
X0299267Y0153691D01*
X0302825Y0150494D02*
X0306537Y0150494D01*
X0305300Y0152092D02*
X0304062Y0152092D01*
X0304601Y0153691D02*
X0304761Y0153691D01*
X0304717Y0155290D02*
X0304645Y0155290D01*
X0304202Y0156888D02*
X0305160Y0156888D01*
X0306262Y0158487D02*
X0303101Y0158487D01*
X0301154Y0160085D02*
X0309477Y0160085D01*
X0310095Y0160085D02*
X0310267Y0160085D01*
X0310267Y0160128D02*
X0310267Y0154714D01*
X0315681Y0154714D01*
X0315681Y0155061D01*
X0315546Y0155916D01*
X0315278Y0156739D01*
X0314885Y0157511D01*
X0314376Y0158211D01*
X0313764Y0158823D01*
X0313064Y0159332D01*
X0312292Y0159725D01*
X0311469Y0159993D01*
X0310614Y0160128D01*
X0310267Y0160128D01*
X0310885Y0160085D02*
X0320781Y0160085D01*
X0320781Y0158487D02*
X0314101Y0158487D01*
X0315202Y0156888D02*
X0320781Y0156888D01*
X0320781Y0155290D02*
X0315645Y0155290D01*
X0315601Y0153691D02*
X0320781Y0153691D01*
X0320781Y0152092D02*
X0315062Y0152092D01*
X0313825Y0150494D02*
X0320781Y0150494D01*
X0320781Y0148895D02*
X0313078Y0148895D01*
X0315113Y0147297D02*
X0320781Y0147297D01*
X0320781Y0145698D02*
X0316712Y0145698D01*
X0318310Y0144100D02*
X0320781Y0144100D01*
X0320781Y0142501D02*
X0319909Y0142501D01*
X0315199Y0139009D02*
X0317781Y0136427D01*
X0317781Y0134629D01*
X0314640Y0137771D01*
X0314300Y0138110D01*
X0315199Y0139009D01*
X0314704Y0137706D02*
X0316502Y0137706D01*
X0316303Y0136107D02*
X0317781Y0136107D01*
X0306062Y0138110D02*
X0304038Y0136086D01*
X0303699Y0135747D01*
X0302418Y0137028D01*
X0302369Y0137028D01*
X0304781Y0139440D01*
X0304781Y0139391D01*
X0306062Y0138110D01*
X0305658Y0137706D02*
X0303047Y0137706D01*
X0303338Y0136107D02*
X0304059Y0136107D01*
X0304646Y0139304D02*
X0304868Y0139304D01*
X0290453Y0142501D02*
X0289581Y0142501D01*
X0285581Y0155543D02*
X0285581Y0239185D01*
X0286236Y0239457D01*
X0287952Y0241173D01*
X0288881Y0243415D01*
X0288881Y0245841D01*
X0288307Y0247228D01*
X0291980Y0247228D01*
X0293791Y0245417D01*
X0293140Y0245148D01*
X0291630Y0243637D01*
X0290813Y0241664D01*
X0290813Y0233592D01*
X0291630Y0231618D01*
X0293140Y0230108D01*
X0294781Y0229429D01*
X0294781Y0202551D01*
X0295223Y0201485D01*
X0296038Y0200669D01*
X0306855Y0189853D01*
X0306726Y0189799D01*
X0305010Y0188083D01*
X0304681Y0187290D01*
X0304352Y0188083D01*
X0302636Y0189799D01*
X0300394Y0190728D01*
X0297968Y0190728D01*
X0295726Y0189799D01*
X0294010Y0188083D01*
X0293081Y0185841D01*
X0293081Y0183415D01*
X0294010Y0181173D01*
X0295726Y0179457D01*
X0297968Y0178528D01*
X0300394Y0178528D01*
X0302636Y0179457D01*
X0304352Y0181173D01*
X0304681Y0181966D01*
X0305010Y0181173D01*
X0306726Y0179457D01*
X0308683Y0178646D01*
X0285581Y0155543D01*
X0285581Y0156888D02*
X0286926Y0156888D01*
X0285581Y0158487D02*
X0288524Y0158487D01*
X0290123Y0160085D02*
X0285581Y0160085D01*
X0285581Y0161684D02*
X0291721Y0161684D01*
X0293320Y0163282D02*
X0285581Y0163282D01*
X0285581Y0164881D02*
X0294918Y0164881D01*
X0296517Y0166479D02*
X0285581Y0166479D01*
X0285581Y0168078D02*
X0298115Y0168078D01*
X0299714Y0169676D02*
X0285581Y0169676D01*
X0285581Y0171275D02*
X0301312Y0171275D01*
X0302911Y0172873D02*
X0285581Y0172873D01*
X0285581Y0174472D02*
X0304509Y0174472D01*
X0306108Y0176070D02*
X0285581Y0176070D01*
X0285581Y0177669D02*
X0307706Y0177669D01*
X0307183Y0179267D02*
X0302179Y0179267D01*
X0304046Y0180866D02*
X0305317Y0180866D01*
X0305785Y0188858D02*
X0303577Y0188858D01*
X0301049Y0190457D02*
X0306251Y0190457D01*
X0304653Y0192055D02*
X0285581Y0192055D01*
X0285581Y0190457D02*
X0297313Y0190457D01*
X0294785Y0188858D02*
X0285581Y0188858D01*
X0285581Y0187260D02*
X0293669Y0187260D01*
X0293081Y0185661D02*
X0285581Y0185661D01*
X0285581Y0184063D02*
X0293081Y0184063D01*
X0293475Y0182464D02*
X0285581Y0182464D01*
X0285581Y0180866D02*
X0294317Y0180866D01*
X0296183Y0179267D02*
X0285581Y0179267D01*
X0285581Y0193654D02*
X0303054Y0193654D01*
X0301456Y0195252D02*
X0285581Y0195252D01*
X0285581Y0196851D02*
X0299857Y0196851D01*
X0298259Y0198449D02*
X0285581Y0198449D01*
X0285581Y0200048D02*
X0296660Y0200048D01*
X0295156Y0201646D02*
X0285581Y0201646D01*
X0285581Y0203245D02*
X0294781Y0203245D01*
X0294781Y0204843D02*
X0285581Y0204843D01*
X0285581Y0206442D02*
X0294781Y0206442D01*
X0294781Y0208040D02*
X0285581Y0208040D01*
X0285581Y0209639D02*
X0294781Y0209639D01*
X0294781Y0211237D02*
X0285581Y0211237D01*
X0285581Y0212836D02*
X0294781Y0212836D01*
X0294781Y0214434D02*
X0285581Y0214434D01*
X0285581Y0216033D02*
X0294781Y0216033D01*
X0294781Y0217631D02*
X0285581Y0217631D01*
X0285581Y0219230D02*
X0294781Y0219230D01*
X0294781Y0220828D02*
X0285581Y0220828D01*
X0285581Y0222427D02*
X0294781Y0222427D01*
X0294781Y0224025D02*
X0285581Y0224025D01*
X0285581Y0225624D02*
X0294781Y0225624D01*
X0294781Y0227223D02*
X0285581Y0227223D01*
X0285581Y0228821D02*
X0294781Y0228821D01*
X0292829Y0230420D02*
X0285581Y0230420D01*
X0285581Y0232018D02*
X0291464Y0232018D01*
X0290813Y0233617D02*
X0285581Y0233617D01*
X0285581Y0235215D02*
X0290813Y0235215D01*
X0290813Y0236814D02*
X0285581Y0236814D01*
X0285581Y0238412D02*
X0290813Y0238412D01*
X0290813Y0240011D02*
X0286790Y0240011D01*
X0288133Y0241609D02*
X0290813Y0241609D01*
X0291452Y0243208D02*
X0288795Y0243208D01*
X0288881Y0244806D02*
X0292799Y0244806D01*
X0292803Y0246405D02*
X0288648Y0246405D01*
X0298182Y0249228D02*
X0320781Y0249228D01*
X0320781Y0243520D01*
X0320732Y0243637D01*
X0319222Y0245148D01*
X0317249Y0245965D01*
X0315113Y0245965D01*
X0313140Y0245148D01*
X0311630Y0243637D01*
X0311181Y0242554D01*
X0310732Y0243637D01*
X0309222Y0245148D01*
X0307249Y0245965D01*
X0305113Y0245965D01*
X0303140Y0245148D01*
X0302701Y0244709D01*
X0298182Y0249228D01*
X0299407Y0248003D02*
X0320781Y0248003D01*
X0320781Y0246405D02*
X0301006Y0246405D01*
X0302604Y0244806D02*
X0302799Y0244806D01*
X0309564Y0244806D02*
X0312799Y0244806D01*
X0311452Y0243208D02*
X0310910Y0243208D01*
X0319564Y0244806D02*
X0320781Y0244806D01*
X0320781Y0231736D02*
X0320781Y0217043D01*
X0320081Y0217743D01*
X0320081Y0230967D01*
X0320732Y0231618D01*
X0320781Y0231736D01*
X0320781Y0230420D02*
X0320081Y0230420D01*
X0320081Y0228821D02*
X0320781Y0228821D01*
X0320781Y0227223D02*
X0320081Y0227223D01*
X0320081Y0225624D02*
X0320781Y0225624D01*
X0320781Y0224025D02*
X0320081Y0224025D01*
X0320081Y0222427D02*
X0320781Y0222427D01*
X0320781Y0220828D02*
X0320081Y0220828D01*
X0320081Y0219230D02*
X0320781Y0219230D01*
X0320781Y0217631D02*
X0320193Y0217631D01*
X0313958Y0212836D02*
X0300581Y0212836D01*
X0300581Y0214434D02*
X0312661Y0214434D01*
X0312875Y0213919D02*
X0316281Y0210513D01*
X0316281Y0186243D01*
X0316163Y0186126D01*
X0315352Y0188083D01*
X0313636Y0189799D01*
X0313081Y0190029D01*
X0313081Y0191205D01*
X0312640Y0192271D01*
X0300581Y0204329D01*
X0300581Y0227927D01*
X0302951Y0230297D01*
X0303140Y0230108D01*
X0305113Y0229291D01*
X0307249Y0229291D01*
X0309222Y0230108D01*
X0310732Y0231618D01*
X0311181Y0232702D01*
X0311630Y0231618D01*
X0312281Y0230967D01*
X0312281Y0215352D01*
X0312875Y0213919D01*
X0312281Y0216033D02*
X0300581Y0216033D01*
X0300581Y0217631D02*
X0312281Y0217631D01*
X0312281Y0219230D02*
X0300581Y0219230D01*
X0300581Y0220828D02*
X0312281Y0220828D01*
X0312281Y0222427D02*
X0300581Y0222427D01*
X0300581Y0224025D02*
X0312281Y0224025D01*
X0312281Y0225624D02*
X0300581Y0225624D01*
X0300581Y0227223D02*
X0312281Y0227223D01*
X0312281Y0228821D02*
X0301475Y0228821D01*
X0309533Y0230420D02*
X0312281Y0230420D01*
X0311464Y0232018D02*
X0310898Y0232018D01*
X0315556Y0211237D02*
X0300581Y0211237D01*
X0300581Y0209639D02*
X0316281Y0209639D01*
X0316281Y0208040D02*
X0300581Y0208040D01*
X0300581Y0206442D02*
X0316281Y0206442D01*
X0316281Y0204843D02*
X0300581Y0204843D01*
X0301665Y0203245D02*
X0316281Y0203245D01*
X0316281Y0201646D02*
X0303264Y0201646D01*
X0304862Y0200048D02*
X0316281Y0200048D01*
X0316281Y0198449D02*
X0306461Y0198449D01*
X0308059Y0196851D02*
X0316281Y0196851D01*
X0316281Y0195252D02*
X0309658Y0195252D01*
X0311256Y0193654D02*
X0316281Y0193654D01*
X0316281Y0192055D02*
X0312729Y0192055D01*
X0313081Y0190457D02*
X0316281Y0190457D01*
X0316281Y0188858D02*
X0314577Y0188858D01*
X0315694Y0187260D02*
X0316281Y0187260D01*
X0320336Y0179267D02*
X0320781Y0179267D01*
X0320781Y0177669D02*
X0318737Y0177669D01*
X0317139Y0176070D02*
X0320781Y0176070D01*
X0320781Y0174472D02*
X0315540Y0174472D01*
X0313942Y0172873D02*
X0320781Y0172873D01*
X0320781Y0171275D02*
X0312343Y0171275D01*
X0310745Y0169676D02*
X0320781Y0169676D01*
X0320781Y0168078D02*
X0309146Y0168078D01*
X0307548Y0166479D02*
X0320781Y0166479D01*
X0320781Y0164881D02*
X0305949Y0164881D01*
X0304351Y0163282D02*
X0320781Y0163282D01*
X0320781Y0161684D02*
X0302752Y0161684D01*
X0310095Y0158487D02*
X0310267Y0158487D01*
X0310267Y0156888D02*
X0310095Y0156888D01*
X0310095Y0155290D02*
X0310267Y0155290D01*
X0310267Y0153691D02*
X0310095Y0153691D01*
X0310095Y0152092D02*
X0310267Y0152092D01*
X0310267Y0150494D02*
X0310095Y0150494D01*
X0302781Y0126591D02*
X0302781Y0125816D01*
X0302369Y0126228D01*
X0302418Y0126228D01*
X0302781Y0126591D01*
X0302781Y0126516D02*
X0302706Y0126516D01*
X0299981Y0121721D02*
X0277875Y0121721D01*
X0279474Y0123319D02*
X0295381Y0123319D01*
X0296683Y0124918D02*
X0293730Y0124918D01*
X0295381Y0120122D02*
X0276277Y0120122D01*
X0274678Y0118524D02*
X0296497Y0118524D01*
X0297842Y0116925D02*
X0273080Y0116925D01*
X0271481Y0115327D02*
X0296243Y0115327D01*
X0294781Y0113728D02*
X0269931Y0113728D01*
X0269412Y0112130D02*
X0294781Y0112130D01*
X0294781Y0110531D02*
X0267297Y0110531D01*
X0268314Y0108933D02*
X0295240Y0108933D01*
X0295286Y0107334D02*
X0270102Y0107334D01*
X0270911Y0105736D02*
X0293688Y0105736D01*
X0292089Y0104137D02*
X0271281Y0104137D01*
X0271281Y0102539D02*
X0290491Y0102539D01*
X0295496Y0099342D02*
X0295679Y0099342D01*
X0295695Y0097743D02*
X0293897Y0097743D01*
X0294097Y0096145D02*
X0292299Y0096145D01*
X0292498Y0094546D02*
X0279633Y0094546D01*
X0280181Y0092948D02*
X0290900Y0092948D01*
X0289301Y0091349D02*
X0280181Y0091349D01*
X0280181Y0089751D02*
X0287702Y0089751D01*
X0278111Y0080159D02*
X0190165Y0080159D01*
X0191764Y0078561D02*
X0276513Y0078561D01*
X0274914Y0076962D02*
X0193362Y0076962D01*
X0194961Y0075364D02*
X0273316Y0075364D01*
X0271717Y0073765D02*
X0196559Y0073765D01*
X0198158Y0072167D02*
X0270119Y0072167D01*
X0268520Y0070568D02*
X0199756Y0070568D01*
X0201355Y0068970D02*
X0251922Y0068970D01*
X0250323Y0067371D02*
X0202953Y0067371D01*
X0208707Y0065773D02*
X0212575Y0065773D01*
X0211235Y0064174D02*
X0209787Y0064174D01*
X0210181Y0062576D02*
X0210781Y0062576D01*
X0210781Y0060977D02*
X0210181Y0060977D01*
X0210181Y0059379D02*
X0210781Y0059379D01*
X0210781Y0057780D02*
X0210181Y0057780D01*
X0210181Y0056182D02*
X0210860Y0056182D01*
X0215181Y0059628D02*
X0215181Y0059628D01*
X0219581Y0059628D01*
X0215181Y0059628D01*
X0215181Y0060977D02*
X0215181Y0060977D01*
X0215181Y0062576D02*
X0215181Y0062576D01*
X0215181Y0064174D02*
X0215181Y0064174D01*
X0215181Y0065773D02*
X0215181Y0065773D01*
X0217788Y0065773D02*
X0221655Y0065773D01*
X0220575Y0064174D02*
X0219128Y0064174D01*
X0219581Y0062576D02*
X0220181Y0062576D01*
X0220181Y0060977D02*
X0219581Y0060977D01*
X0219581Y0059379D02*
X0220181Y0059379D01*
X0220181Y0057780D02*
X0219581Y0057780D01*
X0219502Y0056182D02*
X0220181Y0056182D01*
X0229765Y0055028D02*
X0230181Y0056033D01*
X0230181Y0063223D01*
X0230181Y0056033D01*
X0230598Y0055028D01*
X0229765Y0055028D01*
X0230181Y0056182D02*
X0230181Y0056182D01*
X0230181Y0057780D02*
X0230181Y0057780D01*
X0230181Y0059379D02*
X0230181Y0059379D01*
X0230181Y0060977D02*
X0230181Y0060977D01*
X0230181Y0062576D02*
X0230181Y0062576D01*
X0229787Y0064174D02*
X0230575Y0064174D01*
X0231655Y0065773D02*
X0228707Y0065773D01*
X0238707Y0065773D02*
X0241655Y0065773D01*
X0240575Y0064174D02*
X0239787Y0064174D01*
X0240181Y0063223D02*
X0240181Y0056033D01*
X0239765Y0055028D01*
X0240598Y0055028D01*
X0240181Y0056033D01*
X0240181Y0063223D01*
X0240181Y0062576D02*
X0240181Y0062576D01*
X0240181Y0060977D02*
X0240181Y0060977D01*
X0240181Y0059379D02*
X0240181Y0059379D01*
X0240181Y0057780D02*
X0240181Y0057780D01*
X0240181Y0056182D02*
X0240181Y0056182D01*
X0248707Y0065773D02*
X0248725Y0065773D01*
X0258440Y0068970D02*
X0266922Y0068970D01*
X0265323Y0067371D02*
X0260039Y0067371D01*
X0261637Y0065773D02*
X0261655Y0065773D01*
X0261781Y0083356D02*
X0258581Y0083356D01*
X0259734Y0084955D02*
X0260628Y0084955D01*
X0260181Y0086554D02*
X0260181Y0086554D01*
X0260181Y0088152D02*
X0260181Y0088152D01*
X0260181Y0089751D02*
X0260181Y0089751D01*
X0260181Y0091349D02*
X0260181Y0091349D01*
X0260181Y0092948D02*
X0260181Y0092948D01*
X0260181Y0093223D02*
X0260942Y0095060D01*
X0261110Y0095228D01*
X0259252Y0095228D01*
X0259420Y0095060D01*
X0260181Y0093223D01*
X0259633Y0094546D02*
X0260729Y0094546D01*
X0251110Y0095228D02*
X0250942Y0095060D01*
X0250181Y0093223D01*
X0249420Y0095060D01*
X0249252Y0095228D01*
X0251110Y0095228D01*
X0250729Y0094546D02*
X0249633Y0094546D01*
X0250181Y0092948D02*
X0250181Y0092948D01*
X0250181Y0091349D02*
X0250181Y0091349D01*
X0250181Y0089751D02*
X0250181Y0089751D01*
X0250181Y0088152D02*
X0250181Y0088152D01*
X0250181Y0086554D02*
X0250181Y0086554D01*
X0249734Y0084955D02*
X0250628Y0084955D01*
X0251781Y0083356D02*
X0248581Y0083356D01*
X0241781Y0083356D02*
X0238581Y0083356D01*
X0239734Y0084955D02*
X0240628Y0084955D01*
X0240181Y0086554D02*
X0240181Y0086554D01*
X0240181Y0088152D02*
X0240181Y0088152D01*
X0240181Y0089751D02*
X0240181Y0089751D01*
X0240181Y0091349D02*
X0240181Y0091349D01*
X0240181Y0092948D02*
X0240181Y0092948D01*
X0240181Y0093223D02*
X0240942Y0095060D01*
X0241110Y0095228D01*
X0239252Y0095228D01*
X0239420Y0095060D01*
X0240181Y0093223D01*
X0239633Y0094546D02*
X0240729Y0094546D01*
X0240261Y0107334D02*
X0240102Y0107334D01*
X0238314Y0108933D02*
X0242048Y0108933D01*
X0238797Y0113728D02*
X0262431Y0113728D01*
X0262950Y0112130D02*
X0237198Y0112130D01*
X0235600Y0110531D02*
X0265065Y0110531D01*
X0262048Y0108933D02*
X0258314Y0108933D01*
X0260102Y0107334D02*
X0260261Y0107334D01*
X0252048Y0108933D02*
X0248314Y0108933D01*
X0250102Y0107334D02*
X0250261Y0107334D01*
X0242182Y0123028D02*
X0242382Y0123228D01*
X0264266Y0123228D01*
X0264066Y0123028D01*
X0242182Y0123028D01*
X0226522Y0147297D02*
X0214251Y0147297D01*
X0216075Y0148895D02*
X0225197Y0148895D01*
X0224535Y0150494D02*
X0216900Y0150494D01*
X0217281Y0152092D02*
X0224531Y0152092D01*
X0224920Y0153691D02*
X0217281Y0153691D01*
X0217944Y0155290D02*
X0225852Y0155290D01*
X0228116Y0156888D02*
X0219542Y0156888D01*
X0209385Y0158487D02*
X0203977Y0158487D01*
X0206548Y0156888D02*
X0206814Y0156888D01*
X0208111Y0147297D02*
X0205251Y0147297D01*
X0213810Y0176070D02*
X0224522Y0176070D01*
X0219133Y0182464D02*
X0203229Y0182464D01*
X0205287Y0184063D02*
X0207924Y0184063D01*
X0207825Y0184162D02*
X0208315Y0183672D01*
X0208875Y0183265D01*
X0209492Y0182950D01*
X0210151Y0182736D01*
X0210835Y0182628D01*
X0211181Y0182628D01*
X0211181Y0189628D01*
X0211181Y0189628D01*
X0206781Y0189628D01*
X0206781Y0192574D01*
X0206889Y0193258D01*
X0207103Y0193917D01*
X0207418Y0194534D01*
X0207825Y0195094D01*
X0208315Y0195584D01*
X0208875Y0195991D01*
X0209492Y0196306D01*
X0210151Y0196520D01*
X0210835Y0196628D01*
X0211181Y0196628D01*
X0211181Y0189628D01*
X0211181Y0189628D01*
X0206781Y0189628D01*
X0206781Y0186682D01*
X0206889Y0185998D01*
X0207103Y0185339D01*
X0207418Y0184722D01*
X0207825Y0184162D01*
X0206999Y0185661D02*
X0206027Y0185661D01*
X0206181Y0187260D02*
X0206781Y0187260D01*
X0206781Y0188858D02*
X0206181Y0188858D01*
X0206181Y0190457D02*
X0206781Y0190457D01*
X0206781Y0192055D02*
X0206181Y0192055D01*
X0206002Y0193654D02*
X0207018Y0193654D01*
X0207983Y0195252D02*
X0205228Y0195252D01*
X0203086Y0196851D02*
X0219276Y0196851D01*
X0217134Y0195252D02*
X0214379Y0195252D01*
X0214537Y0195094D02*
X0214048Y0195584D01*
X0213487Y0195991D01*
X0212870Y0196306D01*
X0212211Y0196520D01*
X0211527Y0196628D01*
X0211181Y0196628D01*
X0211181Y0189628D01*
X0211181Y0189628D01*
X0215581Y0189628D01*
X0215581Y0192574D01*
X0215473Y0193258D01*
X0215259Y0193917D01*
X0214944Y0194534D01*
X0214537Y0195094D01*
X0215344Y0193654D02*
X0216360Y0193654D01*
X0216181Y0192055D02*
X0215581Y0192055D01*
X0215581Y0190457D02*
X0216181Y0190457D01*
X0215581Y0189628D02*
X0211181Y0189628D01*
X0211181Y0189628D01*
X0211181Y0182628D01*
X0211527Y0182628D01*
X0212211Y0182736D01*
X0212870Y0182950D01*
X0213487Y0183265D01*
X0214048Y0183672D01*
X0214537Y0184162D01*
X0214944Y0184722D01*
X0215259Y0185339D01*
X0215473Y0185998D01*
X0215581Y0186682D01*
X0215581Y0189628D01*
X0215581Y0188858D02*
X0216181Y0188858D01*
X0216181Y0187260D02*
X0215581Y0187260D01*
X0215363Y0185661D02*
X0216335Y0185661D01*
X0217075Y0184063D02*
X0214438Y0184063D01*
X0211181Y0184063D02*
X0211181Y0184063D01*
X0211181Y0185661D02*
X0211181Y0185661D01*
X0211181Y0187260D02*
X0211181Y0187260D01*
X0211181Y0188858D02*
X0211181Y0188858D01*
X0211181Y0190457D02*
X0211181Y0190457D01*
X0211181Y0192055D02*
X0211181Y0192055D01*
X0211181Y0193654D02*
X0211181Y0193654D01*
X0211181Y0195252D02*
X0211181Y0195252D01*
X0199276Y0196851D02*
X0193086Y0196851D01*
X0195228Y0195252D02*
X0197134Y0195252D01*
X0196360Y0193654D02*
X0196002Y0193654D01*
X0196181Y0192055D02*
X0196181Y0192055D01*
X0196181Y0190457D02*
X0196181Y0190457D01*
X0196181Y0188858D02*
X0196181Y0188858D01*
X0196181Y0187260D02*
X0196181Y0187260D01*
X0196027Y0185661D02*
X0196335Y0185661D01*
X0197075Y0184063D02*
X0195287Y0184063D01*
X0193229Y0182464D02*
X0199133Y0182464D01*
X0189133Y0182464D02*
X0183229Y0182464D01*
X0185287Y0184063D02*
X0187075Y0184063D01*
X0186335Y0185661D02*
X0186027Y0185661D01*
X0186181Y0187260D02*
X0186181Y0187260D01*
X0186181Y0188858D02*
X0186181Y0188858D01*
X0186181Y0190457D02*
X0186181Y0190457D01*
X0186181Y0192055D02*
X0186181Y0192055D01*
X0186002Y0193654D02*
X0186360Y0193654D01*
X0187134Y0195252D02*
X0185228Y0195252D01*
X0184005Y0196851D02*
X0189276Y0196851D01*
X0179133Y0182464D02*
X0176619Y0182464D01*
X0145160Y0200048D02*
X0109832Y0200048D01*
X0104530Y0200048D02*
X0099832Y0200048D01*
X0101948Y0198449D02*
X0102931Y0198449D01*
X0095581Y0201646D02*
X0143561Y0201646D01*
X0141963Y0203245D02*
X0095581Y0203245D01*
X0095581Y0204843D02*
X0140364Y0204843D01*
X0130766Y0206442D02*
X0095581Y0206442D01*
X0089781Y0206442D02*
X0084438Y0206442D01*
X0084004Y0207228D02*
X0086581Y0209805D01*
X0086581Y0211628D01*
X0086581Y0213450D01*
X0084004Y0216028D01*
X0082181Y0216028D01*
X0080359Y0216028D01*
X0077781Y0213450D01*
X0077781Y0211628D01*
X0082181Y0211628D01*
X0082181Y0211628D01*
X0082181Y0216028D01*
X0082181Y0211628D01*
X0082181Y0211628D01*
X0077781Y0211628D01*
X0077781Y0209805D01*
X0080359Y0207228D01*
X0082181Y0207228D01*
X0082181Y0211628D01*
X0082181Y0211628D01*
X0086581Y0211628D01*
X0082181Y0211628D01*
X0082181Y0211628D01*
X0082181Y0207228D01*
X0084004Y0207228D01*
X0084816Y0208040D02*
X0089781Y0208040D01*
X0089781Y0209639D02*
X0086415Y0209639D01*
X0086581Y0211237D02*
X0089781Y0211237D01*
X0089781Y0212836D02*
X0086581Y0212836D01*
X0085597Y0214434D02*
X0089781Y0214434D01*
X0089781Y0216033D02*
X0069072Y0216033D01*
X0069636Y0215799D02*
X0067394Y0216728D01*
X0064968Y0216728D01*
X0062726Y0215799D01*
X0061010Y0214083D01*
X0060281Y0212324D01*
X0060281Y0212841D01*
X0059352Y0215083D01*
X0057636Y0216799D01*
X0055394Y0217728D01*
X0052968Y0217728D01*
X0050726Y0216799D01*
X0049010Y0215083D01*
X0048081Y0212841D01*
X0048081Y0210415D01*
X0049010Y0208173D01*
X0050726Y0206457D01*
X0052968Y0205528D01*
X0055394Y0205528D01*
X0057636Y0206457D01*
X0059352Y0208173D01*
X0060081Y0209932D01*
X0060081Y0209415D01*
X0061010Y0207173D01*
X0062726Y0205457D01*
X0064968Y0204528D01*
X0067394Y0204528D01*
X0069636Y0205457D01*
X0071352Y0207173D01*
X0072281Y0209415D01*
X0072281Y0211841D01*
X0071352Y0214083D01*
X0069636Y0215799D01*
X0071001Y0214434D02*
X0078765Y0214434D01*
X0077781Y0212836D02*
X0071869Y0212836D01*
X0072281Y0211237D02*
X0077781Y0211237D01*
X0077948Y0209639D02*
X0072281Y0209639D01*
X0071712Y0208040D02*
X0079546Y0208040D01*
X0079924Y0206442D02*
X0070622Y0206442D01*
X0068156Y0204843D02*
X0078325Y0204843D01*
X0077181Y0203245D02*
X0019581Y0203245D01*
X0019581Y0204843D02*
X0064206Y0204843D01*
X0061740Y0206442D02*
X0057601Y0206442D01*
X0059220Y0208040D02*
X0060650Y0208040D01*
X0060081Y0209639D02*
X0059960Y0209639D01*
X0060281Y0212836D02*
X0060493Y0212836D01*
X0061361Y0214434D02*
X0059621Y0214434D01*
X0058403Y0216033D02*
X0063290Y0216033D01*
X0055627Y0217631D02*
X0089781Y0217631D01*
X0089781Y0219230D02*
X0019581Y0219230D01*
X0019581Y0220828D02*
X0089781Y0220828D01*
X0089781Y0222427D02*
X0019581Y0222427D01*
X0019581Y0224025D02*
X0048494Y0224025D01*
X0048550Y0223985D02*
X0049224Y0223642D01*
X0049942Y0223408D01*
X0050688Y0223290D01*
X0053866Y0223290D01*
X0053866Y0227890D01*
X0054266Y0227890D01*
X0054266Y0223290D01*
X0057444Y0223290D01*
X0058190Y0223408D01*
X0058909Y0223642D01*
X0059582Y0223985D01*
X0060193Y0224429D01*
X0060727Y0224963D01*
X0061171Y0225574D01*
X0061514Y0226248D01*
X0061748Y0226966D01*
X0061866Y0227712D01*
X0061866Y0227890D01*
X0054266Y0227890D01*
X0054266Y0228290D01*
X0053866Y0228290D01*
X0053866Y0227890D01*
X0046266Y0227890D01*
X0046266Y0227712D01*
X0046384Y0226966D01*
X0046618Y0226248D01*
X0046961Y0225574D01*
X0047405Y0224963D01*
X0047939Y0224429D01*
X0048550Y0223985D01*
X0046936Y0225624D02*
X0019581Y0225624D01*
X0019581Y0227223D02*
X0046344Y0227223D01*
X0046266Y0228290D02*
X0053866Y0228290D01*
X0053866Y0232890D01*
X0050688Y0232890D01*
X0049942Y0232772D01*
X0049224Y0232538D01*
X0048550Y0232195D01*
X0047939Y0231751D01*
X0047405Y0231217D01*
X0046961Y0230606D01*
X0046618Y0229933D01*
X0046384Y0229214D01*
X0046266Y0228468D01*
X0046266Y0228290D01*
X0046322Y0228821D02*
X0019581Y0228821D01*
X0019581Y0230420D02*
X0046866Y0230420D01*
X0048306Y0232018D02*
X0019581Y0232018D01*
X0019581Y0233617D02*
X0079591Y0233617D01*
X0079466Y0232890D02*
X0076288Y0232890D01*
X0075542Y0232772D01*
X0074824Y0232538D01*
X0074150Y0232195D01*
X0073539Y0231751D01*
X0073005Y0231217D01*
X0072561Y0230606D01*
X0072218Y0229933D01*
X0071984Y0229214D01*
X0071866Y0228468D01*
X0071866Y0228290D01*
X0079466Y0228290D01*
X0079466Y0232890D01*
X0079466Y0232018D02*
X0079866Y0232018D01*
X0079866Y0230420D02*
X0079466Y0230420D01*
X0079466Y0228821D02*
X0079866Y0228821D01*
X0079466Y0227890D02*
X0071866Y0227890D01*
X0071866Y0227712D01*
X0071984Y0226966D01*
X0072218Y0226248D01*
X0072561Y0225574D01*
X0073005Y0224963D01*
X0073539Y0224429D01*
X0074150Y0223985D01*
X0074824Y0223642D01*
X0075542Y0223408D01*
X0076288Y0223290D01*
X0079466Y0223290D01*
X0079466Y0227890D01*
X0079466Y0227223D02*
X0079866Y0227223D01*
X0079866Y0225624D02*
X0079466Y0225624D01*
X0079466Y0224025D02*
X0079866Y0224025D01*
X0085238Y0224025D02*
X0089182Y0224025D01*
X0087584Y0225624D02*
X0086797Y0225624D01*
X0090991Y0230420D02*
X0092803Y0230420D01*
X0092589Y0228821D02*
X0099887Y0228821D01*
X0098288Y0230420D02*
X0095559Y0230420D01*
X0094188Y0227223D02*
X0117485Y0227223D01*
X0119084Y0225624D02*
X0095407Y0225624D01*
X0095581Y0224025D02*
X0120682Y0224025D01*
X0122281Y0222427D02*
X0095581Y0222427D01*
X0095581Y0220828D02*
X0123879Y0220828D01*
X0125478Y0219230D02*
X0099513Y0219230D01*
X0096735Y0219230D02*
X0095581Y0219230D01*
X0102322Y0217631D02*
X0123926Y0217631D01*
X0122693Y0216033D02*
X0103554Y0216033D01*
X0104216Y0214434D02*
X0122031Y0214434D01*
X0122024Y0212836D02*
X0104224Y0212836D01*
X0103912Y0211237D02*
X0122335Y0211237D01*
X0123061Y0209639D02*
X0103186Y0209639D01*
X0101588Y0208040D02*
X0124659Y0208040D01*
X0132781Y0220129D02*
X0132781Y0233925D01*
X0131805Y0232949D01*
X0130427Y0232378D01*
X0128935Y0232378D01*
X0127557Y0232949D01*
X0127278Y0233228D01*
X0125604Y0233228D01*
X0124538Y0233669D01*
X0119550Y0238658D01*
X0119550Y0234592D01*
X0119161Y0233654D01*
X0119324Y0233586D01*
X0120140Y0232771D01*
X0132781Y0220129D01*
X0132781Y0220828D02*
X0132082Y0220828D01*
X0132781Y0222427D02*
X0130483Y0222427D01*
X0128885Y0224025D02*
X0132781Y0224025D01*
X0132781Y0225624D02*
X0127286Y0225624D01*
X0125688Y0227223D02*
X0132781Y0227223D01*
X0132781Y0228821D02*
X0124089Y0228821D01*
X0122491Y0230420D02*
X0132781Y0230420D01*
X0132781Y0232018D02*
X0120892Y0232018D01*
X0119251Y0233617D02*
X0124666Y0233617D01*
X0122993Y0235215D02*
X0119550Y0235215D01*
X0119550Y0236814D02*
X0121394Y0236814D01*
X0119796Y0238412D02*
X0119550Y0238412D01*
X0123203Y0243208D02*
X0123840Y0243208D01*
X0123278Y0244806D02*
X0121604Y0244806D01*
X0120006Y0246405D02*
X0123278Y0246405D01*
X0123697Y0248003D02*
X0118407Y0248003D01*
X0124801Y0241609D02*
X0124920Y0241609D01*
X0126400Y0240011D02*
X0127361Y0240011D01*
X0130751Y0239744D02*
X0132781Y0240585D01*
X0132781Y0238331D01*
X0131805Y0239307D01*
X0130751Y0239744D01*
X0131395Y0240011D02*
X0132781Y0240011D01*
X0132781Y0238412D02*
X0132700Y0238412D01*
X0132781Y0233617D02*
X0132473Y0233617D01*
X0109455Y0248003D02*
X0087636Y0248003D01*
X0088066Y0246405D02*
X0091761Y0246405D01*
X0089799Y0244806D02*
X0088062Y0244806D01*
X0087400Y0243208D02*
X0089038Y0243208D01*
X0088813Y0241609D02*
X0086022Y0241609D01*
X0088813Y0240011D02*
X0082581Y0240011D01*
X0082998Y0238412D02*
X0088813Y0238412D01*
X0088813Y0236814D02*
X0084597Y0236814D01*
X0086195Y0235215D02*
X0088813Y0235215D01*
X0089216Y0233617D02*
X0087794Y0233617D01*
X0089392Y0232018D02*
X0090230Y0232018D01*
X0077993Y0235215D02*
X0019581Y0235215D01*
X0019581Y0236814D02*
X0076879Y0236814D01*
X0076781Y0238412D02*
X0019581Y0238412D01*
X0019581Y0240011D02*
X0076781Y0240011D01*
X0073310Y0241609D02*
X0060422Y0241609D01*
X0061800Y0243208D02*
X0071932Y0243208D01*
X0071270Y0244806D02*
X0062462Y0244806D01*
X0062466Y0246405D02*
X0071266Y0246405D01*
X0071696Y0248003D02*
X0062036Y0248003D01*
X0047710Y0241609D02*
X0019581Y0241609D01*
X0019581Y0243208D02*
X0046332Y0243208D01*
X0045670Y0244806D02*
X0019581Y0244806D01*
X0019581Y0246405D02*
X0045666Y0246405D01*
X0046096Y0248003D02*
X0019581Y0248003D01*
X0053866Y0232018D02*
X0054266Y0232018D01*
X0054266Y0232890D02*
X0054266Y0228290D01*
X0061866Y0228290D01*
X0061866Y0228468D01*
X0061748Y0229214D01*
X0061514Y0229933D01*
X0061171Y0230606D01*
X0060727Y0231217D01*
X0060193Y0231751D01*
X0059582Y0232195D01*
X0058909Y0232538D01*
X0058190Y0232772D01*
X0057444Y0232890D01*
X0054266Y0232890D01*
X0054266Y0230420D02*
X0053866Y0230420D01*
X0053866Y0228821D02*
X0054266Y0228821D01*
X0054266Y0227223D02*
X0053866Y0227223D01*
X0053866Y0225624D02*
X0054266Y0225624D01*
X0054266Y0224025D02*
X0053866Y0224025D01*
X0059638Y0224025D02*
X0074094Y0224025D01*
X0072536Y0225624D02*
X0061197Y0225624D01*
X0061789Y0227223D02*
X0071944Y0227223D01*
X0071922Y0228821D02*
X0061810Y0228821D01*
X0061266Y0230420D02*
X0072466Y0230420D01*
X0073906Y0232018D02*
X0059826Y0232018D01*
X0052735Y0217631D02*
X0019581Y0217631D01*
X0019581Y0216033D02*
X0020887Y0216033D01*
X0024095Y0216033D02*
X0024267Y0216033D01*
X0024267Y0217128D02*
X0024267Y0211714D01*
X0029681Y0211714D01*
X0029681Y0212061D01*
X0029546Y0212916D01*
X0029278Y0213739D01*
X0028885Y0214511D01*
X0028376Y0215211D01*
X0027764Y0215823D01*
X0027064Y0216332D01*
X0026292Y0216725D01*
X0025469Y0216993D01*
X0024614Y0217128D01*
X0024267Y0217128D01*
X0024267Y0214434D02*
X0024095Y0214434D01*
X0024095Y0212836D02*
X0024267Y0212836D01*
X0024267Y0211237D02*
X0024095Y0211237D01*
X0024095Y0209639D02*
X0024267Y0209639D01*
X0024267Y0208040D02*
X0024095Y0208040D01*
X0024095Y0206442D02*
X0024267Y0206442D01*
X0026018Y0206442D02*
X0050761Y0206442D01*
X0049142Y0208040D02*
X0028372Y0208040D01*
X0029318Y0209639D02*
X0048402Y0209639D01*
X0048081Y0211237D02*
X0029681Y0211237D01*
X0029558Y0212836D02*
X0048081Y0212836D01*
X0048741Y0214434D02*
X0028924Y0214434D01*
X0027475Y0216033D02*
X0049959Y0216033D01*
X0022344Y0206442D02*
X0019581Y0206442D01*
X0019581Y0208040D02*
X0019991Y0208040D01*
X0082181Y0208040D02*
X0082181Y0208040D01*
X0082181Y0209639D02*
X0082181Y0209639D01*
X0082181Y0211237D02*
X0082181Y0211237D01*
X0082181Y0212836D02*
X0082181Y0212836D01*
X0082181Y0214434D02*
X0082181Y0214434D01*
X0086037Y0204843D02*
X0089781Y0204843D01*
X0089781Y0203245D02*
X0087665Y0203245D01*
X0089264Y0201646D02*
X0089781Y0201646D01*
X0085857Y0196851D02*
X0084475Y0196851D01*
X0100454Y0190457D02*
X0102251Y0190457D01*
X0102052Y0188858D02*
X0103850Y0188858D01*
X0103651Y0187260D02*
X0105448Y0187260D01*
X0102090Y0176070D02*
X0100967Y0176070D01*
X0131208Y0150494D02*
X0136766Y0150494D01*
X0136104Y0148895D02*
X0131803Y0148895D01*
X0131803Y0147297D02*
X0136081Y0147297D01*
X0136378Y0145698D02*
X0131803Y0145698D01*
X0131803Y0144100D02*
X0137082Y0144100D01*
X0138681Y0142501D02*
X0131803Y0142501D01*
X0118165Y0129713D02*
X0116368Y0129713D01*
X0116567Y0128115D02*
X0114769Y0128115D01*
X0114968Y0126516D02*
X0113171Y0126516D01*
X0113370Y0124918D02*
X0111572Y0124918D01*
X0111771Y0123319D02*
X0109974Y0123319D01*
X0091803Y0113728D02*
X0089596Y0113728D01*
X0091195Y0112130D02*
X0091803Y0112130D01*
X0067266Y0129713D02*
X0045623Y0129713D01*
X0044786Y0128115D02*
X0065667Y0128115D01*
X0064069Y0126516D02*
X0042795Y0126516D01*
X0037406Y0126516D02*
X0036656Y0126516D01*
X0036656Y0128115D02*
X0037406Y0128115D01*
X0037406Y0129713D02*
X0036656Y0129713D01*
X0036656Y0131312D02*
X0019581Y0131312D01*
X0036656Y0132910D02*
X0037406Y0132910D01*
X0037407Y0131312D02*
X0062682Y0131312D01*
X0061084Y0132910D02*
X0045649Y0132910D01*
X0037406Y0134509D02*
X0036656Y0134509D01*
X0036656Y0136107D02*
X0037406Y0136107D01*
X0092243Y0064174D02*
X0095349Y0064174D01*
X0093113Y0062576D02*
X0090644Y0062576D01*
X0089046Y0060977D02*
X0092298Y0060977D01*
X0092109Y0059434D02*
X0092109Y0059256D01*
X0092227Y0058510D01*
X0092460Y0057792D01*
X0092803Y0057119D01*
X0093247Y0056507D01*
X0093782Y0055973D01*
X0094393Y0055529D01*
X0095066Y0055186D01*
X0095785Y0054952D01*
X0096531Y0054834D01*
X0099709Y0054834D01*
X0099709Y0059434D01*
X0092109Y0059434D01*
X0092109Y0059379D02*
X0087447Y0059379D01*
X0085849Y0057780D02*
X0092466Y0057780D01*
X0093573Y0056182D02*
X0084250Y0056182D01*
X0099709Y0056182D02*
X0100109Y0056182D01*
X0100109Y0057780D02*
X0099709Y0057780D01*
X0099709Y0059379D02*
X0100109Y0059379D01*
X0100109Y0060977D02*
X0099709Y0060977D01*
X0099709Y0062576D02*
X0100109Y0062576D01*
X0100109Y0064174D02*
X0099709Y0064174D01*
X0122741Y0046591D02*
X0066742Y0046591D01*
X0052232Y0046591D02*
X0019581Y0046591D01*
X0019581Y0048189D02*
X0050633Y0048189D01*
X0040635Y0051386D02*
X0040464Y0051386D01*
X0040464Y0052985D02*
X0040635Y0052985D01*
X0040635Y0054583D02*
X0040464Y0054583D01*
X0040464Y0056182D02*
X0040635Y0056182D01*
X0040635Y0057780D02*
X0040464Y0057780D01*
X0040464Y0059379D02*
X0040635Y0059379D01*
X0021695Y0060977D02*
X0019581Y0060977D01*
X0019581Y0059379D02*
X0020870Y0059379D01*
X0020870Y0057780D02*
X0019581Y0057780D01*
X0019581Y0056182D02*
X0020870Y0056182D01*
X0020870Y0054583D02*
X0019581Y0054583D01*
X0019581Y0052985D02*
X0020870Y0052985D01*
X0020992Y0051386D02*
X0019581Y0051386D01*
X0019581Y0049788D02*
X0022722Y0049788D01*
X0019581Y0044992D02*
X0123403Y0044992D01*
X0124734Y0043394D02*
X0019581Y0043394D01*
X0019581Y0041795D02*
X0124698Y0041795D01*
X0123361Y0040197D02*
X0019581Y0040197D01*
X0019581Y0038598D02*
X0122698Y0038598D01*
X0122617Y0037000D02*
X0019581Y0037000D01*
X0019581Y0035401D02*
X0122854Y0035401D01*
X0123516Y0033803D02*
X0019581Y0033803D01*
X0019581Y0032204D02*
X0125073Y0032204D01*
X0132360Y0032204D02*
X0155073Y0032204D01*
X0153516Y0033803D02*
X0133917Y0033803D01*
X0134579Y0035401D02*
X0152854Y0035401D01*
X0152617Y0037000D02*
X0134817Y0037000D01*
X0134735Y0038598D02*
X0152698Y0038598D01*
X0153361Y0040197D02*
X0134072Y0040197D01*
X0132735Y0041795D02*
X0154698Y0041795D01*
X0154734Y0043394D02*
X0132794Y0043394D01*
X0134125Y0044992D02*
X0153403Y0044992D01*
X0152741Y0046591D02*
X0134787Y0046591D01*
X0134864Y0048189D02*
X0152664Y0048189D01*
X0152906Y0049788D02*
X0134622Y0049788D01*
X0133960Y0051386D02*
X0153568Y0051386D01*
X0152153Y0052985D02*
X0148209Y0052985D01*
X0149580Y0054583D02*
X0150782Y0054583D01*
X0150181Y0056182D02*
X0150181Y0056182D01*
X0150181Y0057780D02*
X0150181Y0057780D01*
X0150181Y0059379D02*
X0150181Y0059379D01*
X0150181Y0060977D02*
X0150181Y0060977D01*
X0150181Y0062576D02*
X0150181Y0062576D01*
X0149787Y0064174D02*
X0150575Y0064174D01*
X0151655Y0065773D02*
X0148707Y0065773D01*
X0158707Y0065773D02*
X0161655Y0065773D01*
X0160575Y0064174D02*
X0159787Y0064174D01*
X0160181Y0063223D02*
X0160181Y0056033D01*
X0159420Y0054196D01*
X0159314Y0054090D01*
X0159977Y0054090D01*
X0161805Y0053333D01*
X0160942Y0054196D01*
X0160181Y0056033D01*
X0160181Y0063223D01*
X0160181Y0062576D02*
X0160181Y0062576D01*
X0160181Y0060977D02*
X0160181Y0060977D01*
X0160181Y0059379D02*
X0160181Y0059379D01*
X0160181Y0057780D02*
X0160181Y0057780D01*
X0160181Y0056182D02*
X0160181Y0056182D01*
X0159580Y0054583D02*
X0160782Y0054583D01*
X0162763Y0052618D02*
X0164187Y0052028D01*
X0166176Y0052028D01*
X0168013Y0052789D01*
X0168716Y0053492D01*
X0177269Y0044939D01*
X0175781Y0043450D01*
X0175781Y0041628D01*
X0180181Y0041628D01*
X0180181Y0041628D01*
X0175781Y0041628D01*
X0175781Y0039805D01*
X0178359Y0037228D01*
X0180181Y0037228D01*
X0180181Y0041628D01*
X0180181Y0041628D01*
X0180181Y0037228D01*
X0182004Y0037228D01*
X0184242Y0039466D01*
X0184369Y0039339D01*
X0184723Y0038485D01*
X0195223Y0027985D01*
X0196038Y0027169D01*
X0197104Y0026728D01*
X0200918Y0026728D01*
X0200269Y0025161D01*
X0200269Y0022734D01*
X0201198Y0020492D01*
X0202743Y0018948D01*
X0201198Y0017403D01*
X0200835Y0016528D01*
X0196604Y0016528D01*
X0195787Y0016189D01*
X0195255Y0017475D01*
X0193710Y0019019D01*
X0195255Y0020564D01*
X0196183Y0022806D01*
X0196183Y0025233D01*
X0195255Y0027475D01*
X0193539Y0029191D01*
X0191297Y0030119D01*
X0188870Y0030119D01*
X0186628Y0029191D01*
X0184912Y0027475D01*
X0184727Y0027028D01*
X0182882Y0027028D01*
X0172767Y0037143D01*
X0175181Y0039557D01*
X0175181Y0043699D01*
X0172252Y0046628D01*
X0168110Y0046628D01*
X0165696Y0044214D01*
X0164357Y0045553D01*
X0164864Y0046777D01*
X0164864Y0049204D01*
X0163935Y0051446D01*
X0162763Y0052618D01*
X0163960Y0051386D02*
X0170822Y0051386D01*
X0172420Y0049788D02*
X0164622Y0049788D01*
X0164864Y0048189D02*
X0174019Y0048189D01*
X0175617Y0046591D02*
X0172289Y0046591D01*
X0173888Y0044992D02*
X0177216Y0044992D01*
X0175781Y0043394D02*
X0175181Y0043394D01*
X0175181Y0041795D02*
X0175781Y0041795D01*
X0175781Y0040197D02*
X0175181Y0040197D01*
X0174222Y0038598D02*
X0176988Y0038598D01*
X0180181Y0038598D02*
X0180181Y0038598D01*
X0180181Y0040197D02*
X0180181Y0040197D01*
X0183374Y0038598D02*
X0184676Y0038598D01*
X0186208Y0037000D02*
X0172911Y0037000D01*
X0174509Y0035401D02*
X0187807Y0035401D01*
X0189405Y0033803D02*
X0176108Y0033803D01*
X0177706Y0032204D02*
X0191004Y0032204D01*
X0192602Y0030606D02*
X0179305Y0030606D01*
X0180903Y0029007D02*
X0186445Y0029007D01*
X0184885Y0027409D02*
X0182502Y0027409D01*
X0177496Y0024212D02*
X0176199Y0024212D01*
X0175581Y0024829D02*
X0175581Y0026127D01*
X0179223Y0022485D01*
X0180038Y0021669D01*
X0181104Y0021228D01*
X0184637Y0021228D01*
X0184912Y0020564D01*
X0186457Y0019019D01*
X0184912Y0017475D01*
X0184333Y0016077D01*
X0175581Y0024829D01*
X0175581Y0025810D02*
X0175898Y0025810D01*
X0177797Y0022613D02*
X0179095Y0022613D01*
X0179396Y0021015D02*
X0184725Y0021015D01*
X0186060Y0019416D02*
X0180994Y0019416D01*
X0182593Y0017818D02*
X0185255Y0017818D01*
X0184392Y0016219D02*
X0184191Y0016219D01*
X0180784Y0011423D02*
X0172641Y0011423D01*
X0173100Y0012533D02*
X0172171Y0010291D01*
X0170909Y0009028D01*
X0183180Y0009028D01*
X0171553Y0020655D01*
X0171195Y0020163D01*
X0170583Y0019551D01*
X0169981Y0019114D01*
X0170455Y0018917D01*
X0172171Y0017201D01*
X0173100Y0014959D01*
X0173100Y0012533D01*
X0173100Y0013022D02*
X0179186Y0013022D01*
X0177587Y0014621D02*
X0173100Y0014621D01*
X0172578Y0016219D02*
X0175989Y0016219D01*
X0174390Y0017818D02*
X0171555Y0017818D01*
X0170397Y0019416D02*
X0172792Y0019416D01*
X0167000Y0023746D02*
X0161500Y0023746D01*
X0167000Y0023746D01*
X0167000Y0023746D01*
X0163603Y0019416D02*
X0138716Y0019416D01*
X0139949Y0017818D02*
X0162445Y0017818D01*
X0161422Y0016219D02*
X0140954Y0016219D01*
X0141462Y0014621D02*
X0160900Y0014621D01*
X0160900Y0013022D02*
X0141462Y0013022D01*
X0140990Y0011423D02*
X0161359Y0011423D01*
X0162294Y0009825D02*
X0140036Y0009825D01*
X0130688Y0009825D02*
X0019581Y0009825D01*
X0019581Y0011423D02*
X0129735Y0011423D01*
X0129262Y0013022D02*
X0019581Y0013022D01*
X0019581Y0014621D02*
X0129262Y0014621D01*
X0129771Y0016219D02*
X0019581Y0016219D01*
X0019581Y0017818D02*
X0130775Y0017818D01*
X0132008Y0019416D02*
X0019581Y0019416D01*
X0019581Y0021015D02*
X0130597Y0021015D01*
X0129978Y0022613D02*
X0019581Y0022613D01*
X0019581Y0024212D02*
X0129862Y0024212D01*
X0129862Y0024210D02*
X0129862Y0023778D01*
X0135362Y0023778D01*
X0135362Y0029278D01*
X0134929Y0029278D01*
X0134074Y0029142D01*
X0133251Y0028875D01*
X0132480Y0028482D01*
X0131779Y0027973D01*
X0131167Y0027361D01*
X0130658Y0026660D01*
X0130265Y0025889D01*
X0129998Y0025065D01*
X0129862Y0024210D01*
X0130240Y0025810D02*
X0019581Y0025810D01*
X0019581Y0027409D02*
X0131215Y0027409D01*
X0133659Y0029007D02*
X0019581Y0029007D01*
X0019581Y0030606D02*
X0163602Y0030606D01*
X0165201Y0029007D02*
X0137066Y0029007D01*
X0137473Y0028875D02*
X0136650Y0029142D01*
X0135795Y0029278D01*
X0135362Y0029278D01*
X0135362Y0023778D01*
X0135362Y0023778D01*
X0135362Y0023777D01*
X0135362Y0023778D01*
X0140862Y0023778D01*
X0140862Y0024210D01*
X0140727Y0025065D01*
X0140459Y0025889D01*
X0140066Y0026660D01*
X0139557Y0027361D01*
X0138945Y0027973D01*
X0138245Y0028482D01*
X0137473Y0028875D01*
X0135362Y0029007D02*
X0135362Y0029007D01*
X0135362Y0027409D02*
X0135362Y0027409D01*
X0135362Y0025810D02*
X0135362Y0025810D01*
X0135362Y0024212D02*
X0135362Y0024212D01*
X0139509Y0027409D02*
X0162884Y0027409D01*
X0161888Y0025810D02*
X0140485Y0025810D01*
X0140862Y0024212D02*
X0161505Y0024212D01*
X0161611Y0022613D02*
X0140746Y0022613D01*
X0140127Y0021015D02*
X0162219Y0021015D01*
X0171706Y0009825D02*
X0182383Y0009825D01*
X0194912Y0017818D02*
X0201612Y0017818D01*
X0202274Y0019416D02*
X0194107Y0019416D01*
X0195441Y0021015D02*
X0200982Y0021015D01*
X0200319Y0022613D02*
X0196104Y0022613D01*
X0196183Y0024212D02*
X0200269Y0024212D01*
X0200538Y0025810D02*
X0195944Y0025810D01*
X0195799Y0027409D02*
X0195282Y0027409D01*
X0194201Y0029007D02*
X0193722Y0029007D01*
X0195775Y0016219D02*
X0195858Y0016219D01*
X0198382Y0010728D02*
X0201100Y0010728D01*
X0201198Y0010492D01*
X0202662Y0009028D01*
X0196682Y0009028D01*
X0198382Y0010728D01*
X0197479Y0009825D02*
X0201865Y0009825D01*
X0210076Y0009028D02*
X0211541Y0010492D01*
X0212469Y0012734D01*
X0212469Y0015161D01*
X0211541Y0017403D01*
X0209996Y0018948D01*
X0211541Y0020492D01*
X0212469Y0022734D01*
X0212469Y0025161D01*
X0211820Y0026728D01*
X0252980Y0026728D01*
X0262723Y0016985D01*
X0263241Y0016466D01*
X0262986Y0016211D01*
X0262477Y0015511D01*
X0262084Y0014739D01*
X0261817Y0013916D01*
X0261681Y0013061D01*
X0261681Y0012828D01*
X0266981Y0012828D01*
X0266981Y0012428D01*
X0261681Y0012428D01*
X0261681Y0012195D01*
X0261817Y0011340D01*
X0262084Y0010517D01*
X0262477Y0009745D01*
X0262986Y0009045D01*
X0263003Y0009028D01*
X0210076Y0009028D01*
X0210873Y0009825D02*
X0262436Y0009825D01*
X0261803Y0011423D02*
X0211926Y0011423D01*
X0212469Y0013022D02*
X0261681Y0013022D01*
X0262045Y0014621D02*
X0248673Y0014621D01*
X0249682Y0015038D02*
X0251271Y0016627D01*
X0252131Y0018704D01*
X0252131Y0020952D01*
X0251271Y0023028D01*
X0249682Y0024618D01*
X0247605Y0025478D01*
X0245357Y0025478D01*
X0243281Y0024618D01*
X0241691Y0023028D01*
X0240831Y0020952D01*
X0240831Y0018704D01*
X0241691Y0016627D01*
X0243281Y0015038D01*
X0245357Y0014178D01*
X0247605Y0014178D01*
X0249682Y0015038D01*
X0250862Y0016219D02*
X0262994Y0016219D01*
X0261890Y0017818D02*
X0251764Y0017818D01*
X0252131Y0019416D02*
X0260292Y0019416D01*
X0258693Y0021015D02*
X0252105Y0021015D01*
X0251443Y0022613D02*
X0257095Y0022613D01*
X0255496Y0024212D02*
X0250088Y0024212D01*
X0253898Y0025810D02*
X0212200Y0025810D01*
X0212469Y0024212D02*
X0222874Y0024212D01*
X0223281Y0024618D02*
X0221691Y0023028D01*
X0220831Y0020952D01*
X0220831Y0018704D01*
X0221691Y0016627D01*
X0223281Y0015038D01*
X0225357Y0014178D01*
X0227605Y0014178D01*
X0229682Y0015038D01*
X0231271Y0016627D01*
X0232131Y0018704D01*
X0232131Y0020952D01*
X0231271Y0023028D01*
X0229682Y0024618D01*
X0227605Y0025478D01*
X0225357Y0025478D01*
X0223281Y0024618D01*
X0221519Y0022613D02*
X0212419Y0022613D01*
X0211757Y0021015D02*
X0220857Y0021015D01*
X0220831Y0019416D02*
X0210464Y0019416D01*
X0211126Y0017818D02*
X0221198Y0017818D01*
X0222100Y0016219D02*
X0212031Y0016219D01*
X0212469Y0014621D02*
X0224289Y0014621D01*
X0228673Y0014621D02*
X0244289Y0014621D01*
X0242100Y0016219D02*
X0230862Y0016219D01*
X0231764Y0017818D02*
X0241198Y0017818D01*
X0240831Y0019416D02*
X0232131Y0019416D01*
X0232105Y0021015D02*
X0240857Y0021015D01*
X0241519Y0022613D02*
X0231443Y0022613D01*
X0230088Y0024212D02*
X0242874Y0024212D01*
X0243981Y0038828D02*
X0245804Y0038828D01*
X0248381Y0041405D01*
X0248381Y0043228D01*
X0243981Y0043228D01*
X0243981Y0043228D01*
X0243981Y0038828D01*
X0243981Y0040197D02*
X0243981Y0040197D01*
X0243981Y0041795D02*
X0243981Y0041795D01*
X0240790Y0040197D02*
X0238021Y0040197D01*
X0238981Y0041795D02*
X0239581Y0041795D01*
X0239581Y0043394D02*
X0238981Y0043394D01*
X0238981Y0044992D02*
X0239581Y0044992D01*
X0247172Y0040197D02*
X0251511Y0040197D01*
X0249913Y0041795D02*
X0248381Y0041795D01*
X0278981Y0017826D02*
X0284614Y0023459D01*
X0284031Y0022053D01*
X0284031Y0020203D01*
X0284739Y0018494D01*
X0284933Y0018300D01*
X0283726Y0017799D01*
X0282010Y0016083D01*
X0281813Y0015609D01*
X0281376Y0016211D01*
X0280764Y0016823D01*
X0280064Y0017332D01*
X0279292Y0017725D01*
X0278981Y0017826D01*
X0279008Y0017818D02*
X0283770Y0017818D01*
X0284357Y0019416D02*
X0280570Y0019416D01*
X0282169Y0021015D02*
X0284031Y0021015D01*
X0284263Y0022613D02*
X0283767Y0022613D01*
X0282145Y0016219D02*
X0281368Y0016219D01*
X0276981Y0012828D02*
X0276981Y0012428D01*
X0267381Y0012428D01*
X0267381Y0012828D01*
X0272681Y0012828D01*
X0276981Y0012828D01*
X0272635Y0015728D02*
X0272477Y0015511D01*
X0272181Y0014930D01*
X0271885Y0015511D01*
X0271727Y0015728D01*
X0272635Y0015728D01*
X0272181Y0010326D02*
X0272477Y0009745D01*
X0272986Y0009045D01*
X0273003Y0009028D01*
X0271359Y0009028D01*
X0271376Y0009045D01*
X0271885Y0009745D01*
X0272181Y0010326D01*
X0271926Y0009825D02*
X0272436Y0009825D01*
X0281359Y0009028D02*
X0281376Y0009045D01*
X0281813Y0009647D01*
X0282010Y0009173D01*
X0282154Y0009028D01*
X0281359Y0009028D01*
X0291947Y0017818D02*
X0293770Y0017818D01*
X0293005Y0019416D02*
X0309868Y0019416D01*
X0311466Y0021015D02*
X0294083Y0021015D01*
X0295682Y0022613D02*
X0313065Y0022613D01*
X0314664Y0024212D02*
X0297280Y0024212D01*
X0298879Y0025810D02*
X0316262Y0025810D01*
X0317781Y0027409D02*
X0300477Y0027409D01*
X0302076Y0029007D02*
X0317781Y0029007D01*
X0317781Y0030606D02*
X0304735Y0030606D01*
X0305917Y0032204D02*
X0317781Y0032204D01*
X0317781Y0033803D02*
X0306331Y0033803D01*
X0306187Y0035401D02*
X0317781Y0035401D01*
X0317781Y0037000D02*
X0305385Y0037000D01*
X0303040Y0038598D02*
X0317781Y0038598D01*
X0320781Y0022127D02*
X0320781Y0017655D01*
X0320636Y0017799D01*
X0318394Y0018728D01*
X0317382Y0018728D01*
X0320781Y0022127D01*
X0320781Y0021015D02*
X0319669Y0021015D01*
X0320781Y0019416D02*
X0318070Y0019416D01*
X0320592Y0017818D02*
X0320781Y0017818D01*
X0303770Y0017818D02*
X0300592Y0017818D01*
X0291550Y0038598D02*
X0289682Y0038598D01*
X0288083Y0040197D02*
X0293149Y0040197D01*
X0294747Y0041795D02*
X0289070Y0041795D01*
X0291070Y0043394D02*
X0294781Y0043394D01*
X0294781Y0044992D02*
X0291967Y0044992D01*
X0292399Y0046591D02*
X0294781Y0046591D01*
X0294781Y0048189D02*
X0292399Y0048189D01*
X0291851Y0049788D02*
X0294781Y0049788D01*
X0294781Y0051386D02*
X0290790Y0051386D01*
X0288639Y0052985D02*
X0294781Y0052985D01*
X0295535Y0054583D02*
X0290238Y0054583D01*
X0291836Y0056182D02*
X0297134Y0056182D01*
X0298732Y0057780D02*
X0293435Y0057780D01*
X0295033Y0059379D02*
X0300331Y0059379D01*
X0301929Y0060977D02*
X0296632Y0060977D01*
X0298230Y0062576D02*
X0303528Y0062576D01*
X0305126Y0064174D02*
X0299829Y0064174D01*
X0271781Y0083356D02*
X0268581Y0083356D01*
X0269734Y0084955D02*
X0270628Y0084955D01*
X0270181Y0086554D02*
X0270181Y0086554D01*
X0270181Y0088152D02*
X0270181Y0088152D01*
X0270181Y0089751D02*
X0270181Y0089751D01*
X0270181Y0091349D02*
X0270181Y0091349D01*
X0270181Y0092948D02*
X0270181Y0092948D01*
X0270181Y0093223D02*
X0270942Y0095060D01*
X0271110Y0095228D01*
X0269252Y0095228D01*
X0269420Y0095060D01*
X0270181Y0093223D01*
X0269633Y0094546D02*
X0270729Y0094546D01*
X0302369Y0117028D02*
X0304781Y0119440D01*
X0304781Y0119391D01*
X0307544Y0116628D01*
X0305181Y0114265D01*
X0302418Y0117028D01*
X0302369Y0117028D01*
X0302521Y0116925D02*
X0307247Y0116925D01*
X0306243Y0115327D02*
X0304119Y0115327D01*
X0303865Y0118524D02*
X0305649Y0118524D01*
X0312818Y0116628D02*
X0313781Y0115665D01*
X0313781Y0117591D01*
X0312818Y0116628D01*
X0313115Y0116925D02*
X0313781Y0116925D01*
X0313781Y0107591D02*
X0312818Y0106628D01*
X0313781Y0105665D01*
X0313781Y0107591D01*
X0313781Y0107334D02*
X0313524Y0107334D01*
X0313710Y0105736D02*
X0313781Y0105736D01*
X0305144Y0104228D02*
X0304781Y0103865D01*
X0304781Y0103816D01*
X0304369Y0104228D01*
X0305144Y0104228D01*
X0305054Y0104137D02*
X0304460Y0104137D01*
X0199180Y0053028D02*
X0198252Y0053028D01*
X0198716Y0053492D01*
X0199180Y0053028D01*
X0191180Y0051028D02*
X0186882Y0051028D01*
X0185882Y0052028D01*
X0186176Y0052028D01*
X0188013Y0052789D01*
X0188716Y0053492D01*
X0191180Y0051028D01*
X0190822Y0051386D02*
X0186524Y0051386D01*
X0188209Y0052985D02*
X0189223Y0052985D01*
X0190181Y0060229D02*
X0190181Y0060229D01*
X0190181Y0063223D01*
X0189420Y0065060D01*
X0188013Y0066467D01*
X0186176Y0067228D01*
X0184187Y0067228D01*
X0182349Y0066467D01*
X0180942Y0065060D01*
X0180181Y0063223D01*
X0179420Y0065060D01*
X0178013Y0066467D01*
X0177688Y0066602D01*
X0178081Y0067551D01*
X0178081Y0072225D01*
X0178360Y0072504D01*
X0178931Y0073882D01*
X0178931Y0075374D01*
X0178577Y0076228D01*
X0183066Y0076228D01*
X0192687Y0066607D01*
X0192349Y0066467D01*
X0190942Y0065060D01*
X0190181Y0063223D01*
X0190181Y0060229D01*
X0190181Y0060977D02*
X0190181Y0060977D01*
X0190181Y0062576D02*
X0190181Y0062576D01*
X0189787Y0064174D02*
X0190575Y0064174D01*
X0191655Y0065773D02*
X0188707Y0065773D01*
X0191922Y0067371D02*
X0178007Y0067371D01*
X0178081Y0068970D02*
X0190324Y0068970D01*
X0188725Y0070568D02*
X0178081Y0070568D01*
X0178081Y0072167D02*
X0187127Y0072167D01*
X0185528Y0073765D02*
X0178883Y0073765D01*
X0178931Y0075364D02*
X0183930Y0075364D01*
X0181655Y0065773D02*
X0178707Y0065773D01*
X0179787Y0064174D02*
X0180575Y0064174D01*
X0180181Y0063223D02*
X0180181Y0057729D01*
X0180181Y0057729D01*
X0180181Y0063223D01*
X0180181Y0062576D02*
X0180181Y0062576D01*
X0180181Y0060977D02*
X0180181Y0060977D01*
X0180181Y0059379D02*
X0180181Y0059379D01*
X0180181Y0057780D02*
X0180181Y0057780D01*
X0169223Y0052985D02*
X0168209Y0052985D01*
X0168073Y0046591D02*
X0164787Y0046591D01*
X0164918Y0044992D02*
X0166474Y0044992D01*
X0186682Y0045228D02*
X0187510Y0045228D01*
X0187096Y0044814D01*
X0186682Y0045228D01*
X0186918Y0044992D02*
X0187274Y0044992D01*
X0142153Y0052985D02*
X0132396Y0052985D01*
X0132781Y0108933D02*
X0129944Y0108933D01*
X0131249Y0110531D02*
X0132781Y0110531D01*
X0131362Y0120122D02*
X0138927Y0120122D01*
X0139487Y0121721D02*
X0130216Y0121721D01*
X0164026Y0113728D02*
X0165655Y0113728D01*
X0274081Y0199329D02*
X0274781Y0198629D01*
X0274781Y0213557D01*
X0274081Y0212857D01*
X0274081Y0199329D01*
X0274081Y0200048D02*
X0274781Y0200048D01*
X0274781Y0201646D02*
X0274081Y0201646D01*
X0274081Y0203245D02*
X0274781Y0203245D01*
X0274781Y0204843D02*
X0274081Y0204843D01*
X0274081Y0206442D02*
X0274781Y0206442D01*
X0274781Y0208040D02*
X0274081Y0208040D01*
X0274081Y0209639D02*
X0274781Y0209639D01*
X0274781Y0211237D02*
X0274081Y0211237D01*
X0274081Y0212836D02*
X0274781Y0212836D01*
X0274781Y0225699D02*
X0274013Y0226467D01*
X0272176Y0227228D01*
X0270187Y0227228D01*
X0269581Y0226977D01*
X0269581Y0232304D01*
X0269063Y0233554D01*
X0263452Y0239166D01*
X0264069Y0239263D01*
X0264892Y0239531D01*
X0265664Y0239924D01*
X0266364Y0240433D01*
X0266976Y0241045D01*
X0267413Y0241647D01*
X0267610Y0241173D01*
X0269326Y0239457D01*
X0271568Y0238528D01*
X0273994Y0238528D01*
X0274781Y0238854D01*
X0274781Y0225699D01*
X0274781Y0227223D02*
X0272189Y0227223D01*
X0270173Y0227223D02*
X0269581Y0227223D01*
X0269581Y0228821D02*
X0274781Y0228821D01*
X0274781Y0230420D02*
X0269581Y0230420D01*
X0269581Y0232018D02*
X0274781Y0232018D01*
X0274781Y0233617D02*
X0269001Y0233617D01*
X0267402Y0235215D02*
X0274781Y0235215D01*
X0274781Y0236814D02*
X0265804Y0236814D01*
X0264205Y0238412D02*
X0274781Y0238412D01*
X0268772Y0240011D02*
X0265783Y0240011D01*
X0267386Y0241609D02*
X0267429Y0241609D01*
X0107857Y0246405D02*
X0106602Y0246405D01*
X0101761Y0246405D02*
X0096602Y0246405D01*
X0098564Y0244806D02*
X0099799Y0244806D01*
D31*
X0104181Y0238628D02*
X0111681Y0246128D01*
X0116181Y0246128D01*
X0126181Y0236128D01*
X0129681Y0236128D01*
X0135681Y0242128D02*
X0139181Y0245628D01*
X0139378Y0245778D01*
X0135681Y0242128D02*
X0135681Y0216628D01*
X0139681Y0212628D01*
X0149681Y0212628D01*
X0161181Y0201128D01*
X0161181Y0189628D01*
X0165681Y0192628D02*
X0165681Y0185628D01*
X0162681Y0182628D01*
X0159681Y0182628D01*
X0155681Y0186628D01*
X0155681Y0193628D01*
X0140681Y0208628D01*
X0132681Y0208628D01*
X0128181Y0213128D01*
X0128124Y0213203D01*
X0138181Y0210628D02*
X0117681Y0231128D01*
X0101681Y0231128D01*
X0094181Y0238628D01*
X0092681Y0224628D02*
X0079681Y0237628D01*
X0079681Y0245628D01*
X0079666Y0245890D01*
X0092681Y0224628D02*
X0092681Y0200128D01*
X0097181Y0195628D01*
X0101181Y0195628D01*
X0107181Y0189628D01*
X0141181Y0189628D01*
X0155681Y0180628D02*
X0170681Y0180628D01*
X0176681Y0186628D01*
X0176681Y0193628D01*
X0195181Y0212128D01*
X0203681Y0212128D01*
X0196681Y0216628D02*
X0196681Y0223628D01*
X0201681Y0228628D01*
X0218181Y0228628D01*
X0230181Y0240628D01*
X0240181Y0240628D01*
X0247181Y0247628D01*
X0247181Y0248628D01*
X0248681Y0250128D01*
X0293181Y0250128D01*
X0305681Y0237628D01*
X0306181Y0237628D01*
X0297681Y0229128D01*
X0297681Y0203128D01*
X0310181Y0190628D01*
X0310181Y0184628D01*
X0275681Y0193628D02*
X0275681Y0154128D01*
X0255181Y0133628D01*
X0267181Y0128128D02*
X0277681Y0138628D01*
X0277681Y0240128D01*
X0273181Y0244628D01*
X0272781Y0244628D01*
X0282681Y0244628D02*
X0282781Y0244628D01*
X0282681Y0244628D02*
X0282681Y0140628D01*
X0268181Y0126128D01*
X0241181Y0126128D01*
X0229181Y0114128D01*
X0210681Y0114128D01*
X0199681Y0103128D01*
X0187181Y0103128D01*
X0181681Y0108628D01*
X0179181Y0108628D01*
X0171681Y0108628D02*
X0191181Y0128128D01*
X0267181Y0128128D01*
X0266181Y0114128D02*
X0298181Y0146128D01*
X0312181Y0146128D01*
X0320681Y0137628D01*
X0320681Y0026128D01*
X0307181Y0012628D01*
X0297681Y0040628D02*
X0275681Y0018628D01*
X0265181Y0018628D01*
X0254181Y0029628D01*
X0197681Y0029628D01*
X0187181Y0040128D01*
X0187181Y0040628D01*
X0181681Y0046128D01*
X0180181Y0046128D01*
X0170681Y0055628D01*
X0170681Y0063628D01*
X0175181Y0068128D01*
X0175181Y0074628D01*
X0172181Y0071628D02*
X0165181Y0064628D01*
X0165181Y0059628D01*
X0175181Y0059628D02*
X0175181Y0058628D01*
X0185681Y0048128D01*
X0247681Y0048128D01*
X0254181Y0041628D01*
X0273181Y0041628D01*
X0298681Y0067128D01*
X0305681Y0067128D01*
X0310181Y0071628D01*
X0305681Y0077128D02*
X0310181Y0081628D01*
X0305681Y0077128D02*
X0299181Y0077128D01*
X0295681Y0073628D01*
X0295681Y0071628D01*
X0276681Y0052628D01*
X0263681Y0052628D01*
X0260681Y0055628D01*
X0260681Y0062628D01*
X0256681Y0066628D01*
X0253681Y0066628D01*
X0250681Y0063628D01*
X0250681Y0056628D01*
X0246181Y0052128D01*
X0204181Y0052128D01*
X0196681Y0059628D01*
X0195181Y0059628D01*
X0186681Y0059628D02*
X0196181Y0050128D01*
X0251681Y0050128D01*
X0254181Y0052628D01*
X0260681Y0052628D01*
X0262681Y0050628D01*
X0279181Y0050628D01*
X0300181Y0071628D01*
X0318681Y0073628D02*
X0318681Y0129628D01*
X0312181Y0136128D01*
X0308181Y0136128D01*
X0305681Y0133628D01*
X0305681Y0126128D01*
X0310181Y0121628D01*
X0316681Y0125128D02*
X0310181Y0131628D01*
X0316681Y0125128D02*
X0316681Y0101628D01*
X0312181Y0097128D01*
X0309181Y0097128D01*
X0305681Y0093628D01*
X0305681Y0090628D01*
X0302181Y0087128D01*
X0299181Y0087128D01*
X0275181Y0063128D01*
X0275181Y0059628D01*
X0265181Y0059628D02*
X0265181Y0063128D01*
X0299181Y0097128D01*
X0305181Y0097128D01*
X0309681Y0101628D01*
X0310181Y0101628D01*
X0310094Y0101510D01*
X0305681Y0107128D02*
X0310181Y0111628D01*
X0305681Y0107128D02*
X0299181Y0107128D01*
X0290181Y0098128D01*
X0205181Y0098128D01*
X0196681Y0089628D01*
X0195181Y0089628D01*
X0171681Y0108628D02*
X0169181Y0108628D01*
X0165181Y0092628D02*
X0147681Y0110128D01*
X0147681Y0119628D01*
X0144181Y0123128D01*
X0142181Y0123128D01*
X0139181Y0126128D01*
X0139181Y0129128D01*
X0143181Y0133128D01*
X0228681Y0133128D01*
X0250181Y0151628D02*
X0251181Y0152628D01*
X0251181Y0172628D01*
X0241181Y0188628D02*
X0225681Y0173128D01*
X0225681Y0167128D01*
X0211181Y0152628D01*
X0179181Y0166128D02*
X0179181Y0168628D01*
X0179181Y0166128D02*
X0161181Y0148128D01*
X0161181Y0145128D01*
X0160717Y0144778D01*
X0160681Y0144628D01*
X0152681Y0136628D01*
X0129181Y0136628D01*
X0108181Y0115628D01*
X0107181Y0115628D01*
X0106803Y0115463D01*
X0098181Y0115628D02*
X0121181Y0138628D01*
X0140681Y0138628D01*
X0154681Y0152628D01*
X0154681Y0156628D01*
X0161181Y0163128D01*
X0163681Y0163128D01*
X0169181Y0168628D01*
X0155681Y0180628D02*
X0147181Y0172128D01*
X0114681Y0172128D01*
X0085181Y0201628D01*
X0082181Y0201628D01*
X0138181Y0210628D02*
X0141681Y0210628D01*
X0150681Y0201628D01*
X0156181Y0201628D01*
X0165681Y0192628D02*
X0191181Y0218128D01*
X0191181Y0219628D01*
X0196681Y0216628D02*
X0171181Y0191128D01*
X0171181Y0189628D01*
X0171181Y0219628D02*
X0169681Y0219628D01*
X0162181Y0227128D01*
X0138681Y0227128D01*
X0241181Y0189628D02*
X0241181Y0188628D01*
X0271181Y0198128D02*
X0275681Y0193628D01*
X0271181Y0198128D02*
X0271181Y0219628D01*
X0300181Y0131628D02*
X0296681Y0128128D01*
X0291681Y0128128D01*
X0318681Y0073628D02*
X0297681Y0052628D01*
X0297681Y0040628D01*
X0206369Y0013948D02*
X0206181Y0013628D01*
X0197181Y0013628D01*
X0192181Y0008628D01*
X0187681Y0008628D01*
X0172681Y0023628D01*
X0172681Y0025628D01*
X0161181Y0037128D01*
X0159181Y0037128D01*
X0158717Y0037187D01*
X0159181Y0046628D02*
X0181681Y0024128D01*
X0189681Y0024128D01*
X0190083Y0024019D01*
X0159181Y0046628D02*
X0159181Y0047628D01*
X0158764Y0047990D01*
X0185181Y0059628D02*
X0186681Y0059628D01*
X0165181Y0089628D02*
X0165181Y0092628D01*
X0125509Y0077434D02*
X0125181Y0077628D01*
X0100181Y0077628D01*
X0099909Y0077434D01*
X0096803Y0115463D02*
X0097181Y0115628D01*
X0098181Y0115628D01*
D32*
X0172181Y0071628D03*
X0175181Y0074628D03*
X0228681Y0133128D03*
X0266181Y0114128D03*
X0291681Y0128128D03*
X0203681Y0212128D03*
X0156181Y0201628D03*
X0138681Y0227128D03*
X0129681Y0236128D03*
D33*
X0154681Y0175128D02*
X0142181Y0162628D01*
X0142181Y0147628D01*
X0154681Y0175128D02*
X0181681Y0175128D01*
X0187181Y0169628D01*
X0188181Y0169628D01*
X0189181Y0168628D01*
X0208181Y0168628D01*
X0211181Y0171628D01*
X0238681Y0119128D02*
X0226181Y0106628D01*
X0220181Y0106628D01*
X0238681Y0119128D02*
X0265681Y0119128D01*
X0285681Y0139128D01*
X0285681Y0150128D01*
X0320181Y0184628D01*
X0320181Y0212128D01*
X0316181Y0216128D01*
X0316181Y0237628D01*
X0143528Y0117652D02*
X0143181Y0117628D01*
X0141181Y0115628D01*
X0136681Y0115628D01*
X0136681Y0099128D01*
X0130681Y0093128D01*
X0130681Y0092128D01*
X0130477Y0091933D01*
X0131681Y0091128D01*
X0142681Y0080128D01*
X0184681Y0080128D01*
X0205181Y0059628D01*
X0266181Y0037628D02*
X0277681Y0026128D01*
X0288681Y0021128D02*
X0301681Y0034128D01*
X0136681Y0115628D02*
X0127181Y0115628D01*
X0126803Y0115463D01*
X0101181Y0096628D02*
X0101181Y0091628D01*
X0102181Y0090628D01*
X0110181Y0090628D01*
X0110469Y0090965D01*
X0102181Y0090628D02*
X0091181Y0079628D01*
X0091181Y0068628D01*
X0073681Y0051128D01*
X0064181Y0051128D01*
X0064063Y0050982D01*
X0101181Y0096628D02*
X0083181Y0114628D01*
X0081681Y0114628D01*
M02*
