%
M48
M72
T01C0.01500
T02C0.02756
T03C0.03000
T04C0.03150
T05C0.03200
T06C0.03543
T07C0.03900
T08C0.03937
T09C0.04000
T10C0.04700
T11C0.11800
T12C0.13780
%
T01
X172181Y71628
X175181Y74628
X228681Y133128
X266181Y114128
X291681Y128128
X203681Y212128
X156181Y201628
X138681Y227128
X129681Y236128
T02
X230181Y151628
X250181Y151628
X246481Y19828
X226481Y19828
T03
X81681Y114628
X218181Y121128
X216681Y137128
X265681Y208628
X196181Y231628
X266181Y37628
X277681Y26128
X288681Y21128
X301681Y34128
X266681Y22628
T04
X66661Y136384
X76661Y156384
T05
X82181Y211628
X82181Y201628
X97181Y195628
X107181Y195628
X141181Y189628
X151181Y189628
X161181Y189628
X171181Y189628
X181181Y189628
X191181Y189628
X201181Y189628
X211181Y189628
X221181Y189628
X231181Y189628
X241181Y189628
X251181Y189628
X261181Y189628
X271181Y189628
X261181Y172628
X251181Y172628
X241181Y171628
X231181Y171628
X221181Y171628
X211181Y171628
X211181Y219628
X201181Y219628
X191181Y219628
X181181Y219628
X171181Y219628
X161181Y219628
X151181Y219628
X141181Y219628
X204881Y233128
X214881Y233128
X221181Y219628
X231181Y219628
X241181Y219628
X251181Y219628
X261181Y219628
X271181Y219628
X143528Y127652
X143528Y117652
X126803Y115463
X116803Y115463
X106803Y115463
X96803Y115463
X96803Y145463
X106803Y145463
X116803Y145463
X126803Y145463
X145181Y89628
X155181Y89628
X165181Y89628
X175181Y89628
X185181Y89628
X195181Y89628
X205181Y89628
X215181Y89628
X225181Y89628
X235181Y89628
X245181Y89628
X255181Y89628
X265181Y89628
X275181Y89628
X275181Y59628
X265181Y59628
X255181Y59628
X245181Y59628
X235181Y59628
X225181Y59628
X215181Y59628
X205181Y59628
X195181Y59628
X185181Y59628
X175181Y59628
X165181Y59628
X155181Y59628
X145181Y59628
X170181Y41628
X180181Y41628
X191281Y41928
X201281Y41928
X212981Y42228
X222981Y42228
X233981Y43228
X243981Y43228
X275981Y35228
X285981Y35228
X220181Y106628
X210181Y106628
X167000Y23746
X167000Y13746
X135362Y13778
X135362Y23778
X64063Y50982
X54063Y50982
T06
X26770Y55659
X40550Y55659
X69225Y69261
X83005Y69261
X128764Y47990
X128717Y37187
X158717Y37187
X158764Y47990
X235181Y103628
X245181Y103628
X255181Y103628
X265181Y103628
X265181Y133628
X255181Y133628
X245181Y133628
X235181Y133628
X211181Y122628
X202181Y122628
X190717Y144778
X190205Y154628
X202181Y152628
X211181Y152628
X160205Y154628
X160717Y144778
X142181Y147628
X142181Y177628
X128124Y213203
X98124Y213203
X66181Y210628
X54181Y211628
X24181Y211628
X66181Y180628
X192291Y246202
X211976Y246202
X299181Y184628
X310181Y184628
X310181Y154628
X299181Y154628
X286299Y47250
X256299Y47250
T07
X231715Y235427
X236715Y245427
X226715Y245427
T08
X94181Y238628
X104181Y238628
X114181Y238628
X106181Y170628
X96181Y170628
X296181Y237628
X306181Y237628
X316181Y237628
T09
X54066Y245890
X54066Y228090
X79666Y228090
X79666Y245890
X129378Y245778
X139378Y245778
X149378Y245778
X159378Y245778
X169378Y245778
X179378Y245778
X252781Y244628
X262781Y244628
X272781Y244628
X282781Y244628
X189181Y168628
X179181Y168628
X169181Y168628
X159181Y168628
X159181Y108628
X169181Y108628
X179181Y108628
X189181Y108628
X130477Y101933
X130477Y91933
X125509Y77434
X110469Y90965
X110469Y100965
X99909Y77434
X99909Y59634
X125509Y59634
X190083Y24019
X190083Y14019
X206369Y13948
X206369Y23948
X267181Y12628
X277181Y12628
X287181Y12628
X297181Y12628
X307181Y12628
X317181Y12628
X310181Y71628
X300181Y71628
X300181Y81628
X310181Y81628
X310181Y91628
X300181Y91628
X300181Y101628
X310181Y101628
X310181Y111628
X300181Y111628
X300181Y121628
X310181Y121628
X310181Y131628
X300181Y131628
X300181Y141628
X310181Y141628
T10
X37425Y194463
X37425Y174778
X37031Y151037
X37031Y131352
T11
X35315Y99219
X47126Y80715
X58937Y99219
T12
X32929Y22376
X32929Y234974
X308520Y207415
X308520Y45998
M30
